<?xml version="1.0" encoding="UTF-8"?>
<!DOCTYPE svg PUBLIC '-//W3C//DTD SVG 1.1//EN' 'http://www.w3.org/Graphics/SVG/1.1/DTD/svg11.dtd'>
<svg width="674.23" height="518.84" font-family="DejaVu Sans" font-size="20" version="1.1" xmlns="http://www.w3.org/2000/svg" xmlns:xlink="http://www.w3.org/1999/xlink">
 <linearGradient id="c" x1="629" x2="762.64" y1="239.68" y2="241.42" gradientTransform="matrix(1 0 0 .92286 100.75 41.36)" xlink:href="#b"/>
 <linearGradient id="b" gradientUnits="userSpaceOnUse">
  <stop stop-color="#edd400" offset="0"/>
  <stop stop-color="#edd400" stop-opacity="0" offset="1"/>
 </linearGradient>
 <linearGradient id="d" x1="629" x2="762.64" y1="239.68" y2="241.42" gradientTransform="matrix(1 0 0 .92286 104.25 14.36)" xlink:href="#b"/>
 <linearGradient id="e" x1="321.73" x2="188.9" y1="313.69" y2="316.36" gradientTransform="matrix(.83187 0 0 1 -5.71 -12.2)" gradientUnits="userSpaceOnUse">
  <stop stop-color="#9fe859" offset="0"/>
  <stop stop-color="#9fe859" stop-opacity="0" offset="1"/>
 </linearGradient>
 <linearGradient id="f" x1="371.43" x2="187.14" y1="254.86" y2="-13.71" gradientTransform="matrix(.93767 0 0 1 -60.6 -12.2)" gradientUnits="userSpaceOnUse">
  <stop stop-color="#fce94f" offset="0"/>
  <stop stop-color="#fce94f" stop-opacity="0" offset="1"/>
 </linearGradient>
 <radialGradient id="g" cx="587.62" cy="337.12" r="8.38" gradientTransform="matrix(1.7868 -.14769 .13952 1.7412 -526.82 -580.39)" xlink:href="#a"/>
 <linearGradient id="a" gradientUnits="userSpaceOnUse">
  <stop stop-color="#c00" offset="0"/>
  <stop stop-color="#c00" stop-opacity=".506" offset=".715"/>
  <stop stop-color="#c00" stop-opacity="0" offset="1"/>
 </linearGradient>
 <radialGradient id="h" cx="587.62" cy="337.12" r="8.38" gradientTransform="matrix(1.6849 -.13712 .13156 1.6166 -552.54 -107.29)" xlink:href="#a"/>
 <radialGradient id="i" cx="587.62" cy="337.12" r="8.38" gradientTransform="matrix(1.2389 -.10083 .09674 1.1887 -213.15 -473.4)" xlink:href="#a"/>
 <path d="M164.36 16.603l21.799-.066 6.363 69.682 17.383 85.499c13.881 14.188 27.273 28.908 51.226 32.107 34.201 1.035 68.129 2.0076 107.82-6.2776 0 0 29.038-13.183 42.599-21.492 14.395-8.82 24.106-27.842 40.859-29.927 10.706-1.332 13.583-4.9478 32.896-.4599 23.551 5.4731 30.65 24.955 51.601 36.486 29.995 16.508 54.341 16.555 85.428 21.763l6.1966 33.222 3.9604 39.551.4606 53.971-86.491 75.459-30.654 29.478-52.624 56.596-4.728-108.06s-49.09-27.647-62.404-17.307c-20.247 15.724-27.473 71.833-27.473 71.833-23.333 3.6823-15.595 3.1626-29.4-22.835l-25.203-48.752-31.604-6.0058-14.287 4.2942-16.174-11.916c-.1537-3.542.0462-28.196-.1077-15.662 17.533-8.7323 35.42-6.0899 52.954-6.5699l62.719 12.97 22.712-2.9989-39.399-75.859c-17.104-9.8636-38.945-7.0944-58.568-10.241l-52.062 7.756-29.213-2.5916-22.479-27.528c-9.1494-19.531-4.741-44.314-6.279-65.537z" fill="#fea" fill-rule="evenodd" opacity=".5"/>
 <path d="M137.37 16.85h25.456l17.621 152.67 3.4301 52.515 27.823 37.618 27.745 2.9334c19.896 1.7906 84.328-15.754 104.02-1.5134 27.475 19.871 32.976 65.571 46.896 83.068 4.4063 5.5383-48.181.4683-36.724.182 10.256-.2562-65.089-20.161-101.92-2.724-.2744 9.9911 3.5914 16.75 13.148 22.403 6.4871 3.8376 5.5236-2.3186 16.063-2.8165 14.345-.6777 20.223-1.5794 34.643 8.1538 9.9231 6.6978 32.697 61.971 43.192 69.931 15.938 12.089 19.064-46.363 30.628-65.411 4.4744-7.37 8.1353-11.974 21.276-10.169 6.522.8959 41.731 6.961 47.495 23.66 12.727 36.873.0198 97.415 3.7674 100.43l-310.42 1.4142-8.1091-50.238c-5.3592 26.558-11.822 47.755-30.163 11.259l-5.5481-44.225c-1.5361-6.3664-4.7362-11.901.892-21.85l19.7-5.232 7.848-36.786-3.6342-67.668c-8.6884-5.8757-9.7988-16.298-9.1461-27.779l16.859-3.3739c14.236-11.374 2.547-23.455-4.9502-34.122l-24.142-4.246-4.4332-14.819 11.832-21.25c-1.5357-15.158-7.7428-24.087-14.875-31.783 4.7929-30.438 27.825-30.199 42.477-7.0187z" fill="#ffd5d5" fill-rule="evenodd" opacity=".5"/>
 <path d="M536.15 230.63c6.3185-8.4011 47.536 1.0436 92.907 6.4998l8.6083 39.322c-28.252 2.8335-39.624 7.7686-67.212 20.107-16.512 5.0979-31.207-7.2108-36.305-23.509-1.3638-4.3598-2.1657-7.0707-2.6991-8.918-1.7937-6.212 7.626-10.876 7.509-10.856-.8972-.2056-8.4443-2.4041-7.963-8.598.6519-8.3887 1.7246-11.259 5.1549-14.048z" fill="#dee3db"/>
 <path d="M633.28 275.83c-28.252 2.8335-35.823 8.8332-63.411 21.172-11.267 3.8074-29.438-2.3757-37.17-27.459-.9444-3.0638-1.3034-4.9916-1.3301-7.129-.0456-3.6488 3.3904-6.5217 7.5236-9.0999-4.168-1.4411-7.2224-3.3802-7.9264-7.907-1.0762-6.9206 3.8503-16.244 7.9708-16.972 24.867-4.0765 52.886 5.9816 88.774 8.0729" fill="none" stroke="#000" stroke-width="3.1"/>
 <path transform="translate(-204.09 -13.67)" d="M834.51 257.29c-22.55 2.742-45.729 1.0469-68.317-1.3632-4.5614-.4867-10.278-.0493-14.8-1.5532-2.9029-2.661-5.8001-3.5567-9.0516-1.0934-6.9483-.7802-14.607-1.3825-21.626-2.1331-18.259-1.032-36.519-3.0063-54.778-2.3268l-.1768 4.2197c20.813-1.8894 59.591 1.8014 71.667 2.9142-13.917-.532-54.47.2974-68.386 6.9874l.7197 3.8484c9.313-3.1897 19.147-5.0195 28.927-6.1464 12.825-1.4779 30.287-.464 44.2.1676 2.6006 2.0626 4.9483 1.8718 6.9355.4191 6.682-.0953 13.108-.3641 16.156.2343 23.283 4.5709 47.108 6.576 70.282 2.5755" fill="url(#c)"/>
 <path d="M630.88 244c-22.55 2.742-47.557-.3665-70.145-2.7766-4.5614-.4867-8.6645.0213-13.187-1.4826-2.9029-2.661-5.8001-3.5567-9.0516-1.0934-6.9483-.7802-14.607-.47-21.626-1.2205-18.259-1.032-36.519-3.0063-54.778-2.3268l-.1768 4.2197c20.813-1.8894 59.591 1.8889 71.667 3.0016-13.917-.532-54.47.21-68.386 6.9l.7197 3.8484c9.313-3.1897 19.147-5.0195 28.927-6.1464 12.825-1.4779 29.787-.6266 43.7.005 2.6006 3.2556 6.1983 3.3395 8.1855.4192 6.682-.0953 11.131-.3504 14.223-.0543 23.283 2.2293 47.791 6.6944 70.965 3.5266" fill="none" stroke="#00610f" stroke-width="2.5"/>
 <path transform="translate(-204.09 -13.67)" d="M847.99 274.45l-10-9.75c-31.665-1.3811-84.58 8.6508-107.83 10.911-11.171-1.4259-14.896-6.9302-25.146-8.247-5.89-.701-19.748-.579-24.768 2.5804-5.0201 3.1594-8.9858 7.8876-11.51 13.255-4.5948 9.7721-4.2637 21.686.75 31.25 5.0848 9.6995 14.78 16.758 25.5 19 12.323 2.5772 25.196-.9578 36.5-6.5 7.7232-3.7865 15.011-8.5378 21.275-14.432 4.8737-4.5855 9.2277-9.771 14.657-13.683 5.4294-3.9117 11.849-6.1708 18.318-7.8854z" fill="url(#d)"/>
 <path d="M632.67 251.07l-105.23 8.6287c-17.577 3.4834-10.046-4.001-25.33-5.9645-5.89-.701-21.163-.579-26.183 2.5804-5.0201 3.1594-8.9858 7.8876-11.51 13.255-4.5948 9.7721-4.2637 21.686.75 31.25 5.0848 9.6995 14.78 16.758 25.5 19 12.323 2.5772 25.196-.9577 36.5-6.5 7.7232-3.7865 15.011-8.5378 21.275-14.432 4.8737-4.5855 9.2277-9.771 14.657-13.683 5.4294-3.9117 11.849-6.1708 18.318-7.8854l52.343-12.672" fill="none" stroke="#00610f" stroke-width="2.5"/>
 <g stroke="#330080" stroke-width="2.799">
  <path d="M394.85 239.4c6.6084 17.574 37.481 9.2333 41.373 4.3663.3426 10.748 2.6352 21.442.1099 19.755-3.8098-2.5456-40.869 3.6446-47.969-22.124-12.216-44.338 33.276-59.655 59.144-47.857 1.1339 5.9456-2.8458 6.0493-.3588 7.7075-32.285-8.2582-61.195 3.9945-52.298 38.152z" fill="#ad7fa8"/>
  <path d="M467.78 151.66c-13.502.1782-26.267 34.768-19.272 69.295-30.707-5.9515-50.086-.1364-50.987 8.9924-.6992 7.0882 9.7894 12.283 31.139 12.317-16.406 13.271-9.7545 17.425-10.28 25.031-1.0217 14.815 3.6611 33.746 13.21 41.958 9.9783 8.5824 24.436 17.889 41.975 22.583 64.689 17.311 93.243-53.563 37.691-84.833-8.8492-4.9811-24.128-4.6172-32.751.485-1.1174-8.0305-3.911-6.895-9.1156-10.725 2.8742-8.249 8.0908-20.784 9.3067-26.76 3.9614-19.469.4491-54.575-10.917-58.343zm-1.9105 11.588c3.6271.0488 5.2495 18.105 5.1582 24.927-.3543 6.7053-1.1114 15.331-2.6055 21.897-3.7216-7.3403-12.377-11.339-12.416-13.706.5345.7215.2126 5.6382 1.5738 9.9272.755 2.735 4.1491 4.1764 8.7814 14.464-.9527 2.9025-1.5831 4.3542-3.4936 8.1098-1.296-2.9466 1.3455-4.6708-.2201-7.8082-1.7373-3.4815-6.667-16.344-6.712-21.619-.1557-17.782 5.419-36.252 9.9339-36.192zm-37.822 63.594c5.4131.1704 15.346 1.8673 15.606 4.828.3848 4.381-13.105 2.7481-18.286 2.6948-5.9601-.0612-18.69-2.6354-18.668-3.9111.0531-3.025 15.03-3.8106 21.347-3.6117z" fill="#ad7fa8"/>
  <path d="M478.54 247.29l-8.3233 5.5791c-5.3404 3.5796-10.641 9.9696-10.458 19.329.0893 4.57 1.5733 9.1956 3.8287 13.58" fill="none"/>
  <path d="M493.63 316.61c7.0046.0265 18.388-3.5404 23.13-8.3492 5.9173-5.9991 6.3975-19.018 4.005-26.106-3.4461-10.21-8.5824-15.98-21.472-19.598-8.7965-2.4692-19.424-.428-26.43 6.0842-3.8134 3.5446-9.8036 14.278-9.814 20.649-.009 5.6062 2.4957 15.16 8.2968 20.481 6.0304 5.5307 11.662 8.7014 20.087 6.8987 5.0944-1.0899 11.198-1.8063 13.974-10.133 2.1888-6.5647 4.3501-15.279-3.9301-22.421-5.6278-4.8539-14.197-6.6459-19.534-.662-2.4494 2.7462-3.7391 7.4826-2.5717 11.363.7462 2.48 3.7765 5.3754 5.9481 5.8992 3.3052.7973 5.469-1.4685 8.0776-4.8719" fill="none"/>
  <path d="M445.13 265.24c-1.3619 5.6745-11.791 2.3047-16.098.958-5.6823-1.7766-10.068-6.8955-8.6313-9.4508 1.5616-2.7766 7.7201-2.4301 14.112.3423 5.4124 2.3476 11.312 5.2588 10.618 8.1505z" fill="#743dda"/>
  <path d="M438.74 291.03c.1048 2.0955.0533 2.8372-.4978 3.7253-1.7832 2.874-5.0064 2.834-7.5317 1.1466-3.8098-2.5457-6.2205-6.3583-6.2205-10.705.008-4.4066 3.9363-6.5609 8.2069-4.4568 3.8506 1.8885 5.8248 5.7706 6.0431 10.289z" fill="#ad7fa8"/>
 </g>
 <path d="M430.29 241.61c2.041 2.1551 3.6023 4.4286 7.8602 6.0364 5.3857 2.4773 10.772 1.4938 16.157 0 2.8511-1.0259 3.6025-2.7427 4.8035-4.3117M441.72 233.75c3.639-.964 7.1944-3.8116 10.833-1.6193 2.8327 1.1498 3.8446 2.2996 4.3667 3.4494M444.22 230.77l4.9262-9.2628" fill="none" stroke="#330080" stroke-width="2.799"/>
 <path d="M365.39 208.3c-13.323-1.5294-28.114 5.2122-31.237 9.2149-4.1977 5.3792 6.8263 23.981 8.905 30.744 1.2281 3.9959 2.9742 7.9197 3.9707 15.125 0 0 21.281 18.016 35.928 28.875 12.279 34.949 15.712 38.26 14.5 46.619 14.647 13.132 45.367 12.209 45.367 12.209s18.94 10.103 48.234 39.145 41.795 57.578 41.795 57.578l24.179-16.509-22.536-23.897s-45.09-37.056-63.893-58.842c-17.445-20.213-20.268-20.391-23.662-31.121-2.7402-8.6626-3.7162-16.811-2.6003-29.816.41-4.7783-1.1623-5.6244-.9574-13.16.2184-5.2997-23.643-18.897-27.997-16.075l-17.029-8.3633c-6.1833-3.0369-5.827-10.939-10.859-17.973-3.1239-4.3666-2.3362-17.462-4.5585-20.303-2.2765-2.9103-13.761-3.0161-17.549-3.4509zm60.498 73.594c2.4919-2.3239 6.7089-2.5024 10.658 2.6469 4.4563 5.8102 4.6806 9.9404 1.389 12.756-3.6127 3.0899-8.012 2.1799-12.995-4.6031-3.8139-5.1919-2.0341-8.2421.9475-10.799z" fill="#ff8080" opacity=".5"/>
 <path d="M364.46 207.67c-11.435.2012-25.251 4.7147-29.186 7.9863-4.985 4.1446 2.2673 20.588 5.5898 26.289 2.708 4.6463 5.5714 16.499 7.2207 21.5 1.75.716 2.9774 1.1619 5.1602 2.002.5884-3.2378 1.431-10.929-.3672-17.574-2.8298-10.458-9.7719-22.733-6.8242-24.68 5.5724-3.6797 19.324-8.3884 29.734-.166 8.0683 6.3726 3.9977 19.725 14.252 29.17 16.286 17.583 28.739 22.114 26.166 36.369-.793 14.367 24.76 45.69 32.287 45.088 0 0 16.465 17.88 45.76 46.922 29.294 29.042 49.599 54.241 49.599 54.241l11.01-9.088-24.95-19.141s-41.025-39.354-59.827-61.14c-17.445-20.213-20.237-24.524-25.041-34.702-5.4818-11.613-2.3824-21.652-1.5784-39.481.0498-1.2094 2.4467-6.125.7281-7.9351-3.5552-3.7444-12.738-6.824-18.9-8.7647-3.9127-1.2322-9.1209.6594-10.956.7104l-15.797-8.0652c-5.5409-4.0932-6.9702-12.905-10.506-16.945-3.5355-4.0406-1.8624-9.377-5.127-19.428-3.4724-1.2627-14.636-3.235-18.447-3.168zm61.58 74.218c3.1826-2.9291 8.4579-.2163 11.395 4.297 3.3159 5.0956 4.001 8.4553.546 11.426-3.4958 3.0052-9.4875-.8297-12.316-4.2699-3.4199-4.1595-2.8328-8.5004.375-11.453z" fill="#ff4848" opacity=".5"/>
 <path d="M186.05 15.798l447.01-1.6036-1.265 224.25c-3.5089-1.5769-7.0565-10.946-7.5906-18.023-.4349-5.7629-4.0575-15.51-5.1214-15.822-40.922-12.018-73.654-3.9992-111.92-43.929 0 0-16.616-11.781-28.71-14.452-12.317-2.72-20.1-9.103-37.037 7.7671-8.5021 8.4685-13.542 9.7406-22.458 16.22-49.657 36.087-108.68 38.697-169.72 29.989-42.191-11.445-39.105-42.58-45.972-65.25-13.378-44.169-11.029-65.936-17.229-119.15z" fill="#dee3db"/>
 <path d="M50.79 41.933C68.033 24.76 75.083 15.92 96.223 27.975c26.122 14.895 47.707 105.28 47.707 105.28 16.872-22.856-44.322-33.215-42.57 3.7477.0984 2.0762 7.4868 3.133 7.9725 7.6214.8134 7.5171 13.64 17.077 7.5071 25.784-7.5491 10.716-8.212 23.091-6.7306 31.096.3193 1.7252 4.1744 1.4357 4.4933 3.384 33.326 6.2453 27.971 4.2742 31.908 21.592 4.3521 19.146-1.4071 17.642-22.463 18.183-3.2721 8.1586 2.1091 27.358 10.76 29.173 26.052 5.8461 87.326-.7208 92.861.3536-6.3968 27.702-3.7055 30.744-11.958 63.879-2.2425 4.695-50.862 5.373-77.736 1.0132-8.8641 5.3733-8.6227 21.878-7.5815 27.075 5.0704 25.308-21.413 11.944-23.441 22.236-8.0531 40.88 11.249 71.548 19.941 79.481 6.7756 6.1844 11.9-15.153 18.078-19.645 7.3125 21.709-9.3697 47.731-30.061 43.669-21.606-4.2414-36.865-10.7-44.15-22.487-11.561-18.705-7.6577-47.594-12.189-77.816-4.1072-27.394-22.965-69.266-24.069-100.05-.662-18.459 3.1842-36.192.2523-54.657-9.6483-60.765-30.356-148.75 16.036-194.95z" fill="#e9c6af"/>
 <path d="m132 274.19c30.025-1.9771 48.312 2.1005 92.985 0l-1.7678 22.981c-14.889-3.1165-55.854-3.74-86.974-6.1872z" fill="#dca480" fill-rule="evenodd"/>
 <path d="M164.56 273.5c-10.579-.9805-13.41.6803-23.214.8793-.1653 11.549 8.8042 33.239 1.908 39.527 4.8319 7.861 7.7867 18.164 13.122 25.361 17.797 8.673 41.518 4.4251 59.794-1.0986 22.944-5.299 37.446-12.184 60.082-14.051 25.916-2.9345 48.668-1.8385 73.154 9.318 7.8215 2.797 37.184 13.133 47.082 9.5215-13.398-6.5946-30.203-19.154-35.009-28.181-6.0539-11.746-11.882-37.779-9.1404-44.707-18.086-5.6219-33.382-8.4608-51.935-4.9998-21.024-2.4714-43.444 5.3893-63.913 8.3657-26.618 3.8706-50.559 2.0457-71.929.065z" fill="url(#e)"/>
 <path d="M388.73 227.15l-8.1317.5303M368.38 222.29l4.5491-12.496M352.49 220.97l-1.4874-11.192" fill="none" stroke="#867979" stroke-width="5"/>
 <path d="m353.97 269.55c-7.3065 1.6987-9.2061 14.671-8.1547 23.102 3.4676 13.869 11.234 26.583 21.111 34.306 12.771 9.7396 24.732 15.38 33.024 12.301-4.0984-13.41-8.8636-26.34-14.264-39.971-14.501-13.174-25.422-24.749-31.716-29.739z" fill="#4e9a06"/>
 <path d="M180.31 18.154c3.13 31.711 5.0027 87.822 15.033 130.62 8.2081 35.025 24.214 60.811 51.644 63.704 60.948 6.4286 73.134-4.1942 73.76 4.8162.6698 9.6429 14.855 27.394 11.506 30.966-3.3488 3.5714-46.348-3.2512-85.864 1.7488s-34.414-3.6151-42.9-15.95c-8.7598-12.734-8.6841-60.627-13.54-80.828-4.4047-18.325-17.865-134.44-17.865-134.44z" fill="url(#f)"/>
 <path d="m259.72 344.87c17.998 1.2958 41.004-9.0829 89.091 3.8604-4.8214 7.3214-22.359 12.575-58.536 7.7109-16.097-2.1644-14.301-1.8647-19.023-3.7644-12.314-4.9542-11.711-7.6283-11.532-7.8069z" fill="#fce94f"/>
 <path d="m354.26 249.43-9.9675 1.6857" fill="none" stroke="#867979" stroke-width="5"/>
 <path d="M348.07 221.61c-6.1058 3.8143-4.1346 13.491-.0625 18.156 4.1793 4.3972 4.8368 15.002 4.9688 26.687 4.7302 5.2769 28.706 28.732 33.244 32.043.6343.9479 4.1817-2.5296 1.7471-4.7068-8.7914-7.8621-21.626-26.318-22.741-30.711 1.1056-9.7489-1.0715-3.3358 6.8125-17.687 3.8414-7.9365-3.6674-16.312-9.0938-20.719-4.0236-4.7619-10.364-4.3784-14.875-3.0625z" fill="#e6e6e6" stroke="#000" stroke-width="2.5"/>
 <path d="m353.56 270.15c11.45-8.7325 33.008 7.5506 39.756 17.678 20.39 30.605 14.094 46.307 6.6117 51.244l-14.236-39.596z" fill="#4e9a06" opacity=".477"/>
 <path d="m186.91 16.732s2.4587 49.676 5.9726 74.259c1.2556 8.784 8.8852 42.57 8.8852 42.57 6.0217 29.151 3.3596 39.433 21.5 53 27.648 20.677 57.099 18.211 90.5 16.75 56.111-2.4543 78.618-13.076 104.27-31.568 11.795-8.5036 17.352-14.835 28.293-22.111 8.609-5.7248 29.792-6.783 39.5-3 17.892 6.972 15.346 6.0519 26.439 18.929 9.1118 10.577 20.736 13.811 30.151 19.676 22.746 14.17 52.608 11.71 76.69 17.684 4.597 1.1404 5.9039 27.483 7.6591 32.64" fill="none" stroke="#000" stroke-width="3.5"/>
 <path d="M162.97 349.26c2.985.2239 11.753.5651 16.547 1.3949 5.615.972 7.3294 5.7295 3.8586 8.105-9.7657 6.6841-19.095-4.5492-30.979 3.6016-6.0065 4.1197.913 20.114-5.0052 25.688-5.7342 5.4013-16.221 5.2635-20.627 9.842-6.1111 6.3498-13.902 5.0713-14.646 4.8935-1.8232-.4356-5.6494-2.8399-.3227-10.912 4.161-6.3059 17.957-4.099 23.373-10.018 4.4585-4.8725 2.6053-18.992 2.1726-20.153-1.6462-4.4393 2.3419-13.23 7.015-12.8 4.2104.3784 14.745.0683 18.613.3585zm-5.24-91.73c-4.2496.9348 17.947-2.9497 27.903-.2155 6.0996 1.6752 2.9194 4.7811.0113 5.819-3.4336 1.2252-42.548 5.0706-45.221 3.2395-4.0334-2.7626-6.5908-6.232-6.5908-10.948 2.4839-3.3678.883-3.4999 5.6792-1.9684 6.4368 2.0554 15.837-7.6447 19.258-17.822 1.8827-5.6019.6727-22.517-5.4352-28.268-8.219-7.7397-10.466-8.2707-22.86-11.197-1.6917-.3995-10.512 1.0734-11.177-2.7292-.5848-3.341-2.042-9.4813 1.5362-12.929 8.754-8.435 4.9426-15.268 4.3322-17.507-3.3331-12.221-13.033-26.159-12.166-32.858 1.2834-9.911 15.583-8.067 22.297 6.1992 2.6552 5.6415 3.0591 40.563 9.5781 47.422 9.0576 9.5312 15.834 14.568 18.033 19.012 7.583 15.327 8.8178 54.751-5.1775 54.751z" fill="#9393ac"/>
 <path d="M164.38 17.526l11.424 106.69 5.0241 35.743c2.7842 20.237-.0108 44.189 5.8772 65.467 4.7394 17.127 19.197 24.083 31.751 39.667 20.638 1.0414 27.795-2.6153 48.65-4.585 9.5344-.9005 24.846-5.6636 36.738-4.6423 17.541 1.5065 27.065 2.348 32.431 4.2028 6.1811 2.1364 11.583 4.4854 16.548 7.2303M398.58 342.07l-24.749 3.5355c-8.0929 1.1561-46.986-14.93-74.953-14.496-21.175.3288-29.581-.8698-47.73 6.7175l1.0606 16.263c6.3234 5.7577 15.014 11.74 19.092 10.607 10.06-2.7971 5.6925-4.4189 18.385-2.8284 7.9071.9908 15.769 5.06 22.627 5.6568 17.839 8.5923 11.067 8.7262 16.642 16.741" fill="none" stroke="#000" stroke-width="4"/>
 <g fill-rule="evenodd">
  <path d="M129.09 354.95c.4611.0277 3.5048 13.646 1.6753 18.532-4.3624 11.652-19.988 12.485-17.301 12.154-10.264-1.724-9.5328 6.3953-19.502-13.357-4.268-8.4565-2.067-16.68-4.5305-21.872-1.6589-3.4962-6.8537-4.8106-10.283-9.1892-5.8142-7.4245-10.718-18.783-13.715-27.534-17.856-52.128 5.4136-110.77 48.164-106.87 8.8157.8038 13.162-.3182 22.363 4.9842 10.903 6.2828 7.3787 11.141 10.925 16.891 5.2841 8.5678-9.5102-10.11-41.137-3.4216-13.2 2.7916-27.436 30.898-28.44 40.835-2.3958 23.709 7.744 45.761 14.83 55.739 8.564 12.06 22.782 32.258 36.951 33.108z" fill="#dca480"/>
  <path d="M225.92 275.96s52.764-9.6767 78.622-10.388c14.889-.4098 48.48 3.2856 48.48 3.2856-4.6344 5.9733-9.9735 15.21-7.1866 24.519 0 0-31.216-7.3673-46.265-7.6865-12.608-.2674-32.087 4.2861-47.681 6.7799-15.53 2.4834-30.03 4.6744-30.03 4.6744z" fill="#bcd35f"/>
  <path d="M88.33 25.265l17.171 15.874c18.454 29.248 31.786 50.668 35.891 77.743l-16-6.9376-7.8797-12zM71.89 206.3c9.1282-18.956 16.97-49.537 31.113-66.822 5.0431 6.1398 11.06 11.631 10.692 21.377-7.5358 6.5795-28.709 29.391-37.084 40.88-1.6359 2.2441-3.2185 1.7444-4.7206 4.5646z" fill="#dca480"/>
 </g>
 <g fill="none">
  <path d="M137.43 17.06c10.444 92.704 5.3223 115.06 7.3223 118.62-1.5013-8.666-.944-16.654-9.3358-20.086-8.4246-3.4453-19.1-3.9682-26.768 2.3432-4.1043 3.3784-5.2131 11.926-5.8964 18.743.8361 3.2206 6.206 5.4997 8.5239 10.532 1.9603 4.2561 5.6082 11.783 5.4171 24.07-.0401 2.5752-6.7999 8.8672-7.8156 11.188-2.468 5.6386-1.7762 15.594 1.1246 18.96 1.6679 3.5584 5.7548 4.0007 8.7284 4.2594 2.8938.2518 5.4435.5664 6.6975.8819 15.375 3.8676 12.988 4.588 17.237 10.164 5.3282 6.991 4.5327 19.569 3.2071 22.146-3.8481 7.5984-8.9047 5.5404-22.499 6.3588-2.3504 14.95 3.1628 21.039 10.55 29.793 26.105-1.7986 45.575 1.111 65.479.5 21.914-.6728 52.444-4.1451 74.114-7.475 14.704-2.2593 30.673-5.8755 44.75-3 10.646 2.1747 34.441 4.0699 34.441 4.0699M391.51 342.42c.1542.3855-38.459-8.8058-56.243-13.86-26.675-7.5813-53.788-6.8251-79.879-.2574-17.378 4.4984-24.593 6.5288-42.118 10.411-32.336 6.4205-45.65 4.7582-69.896 1.4883-16.73-.5423-10.555 33.982-13.543 37.663-3.2984 4.0634-15.413 6.899-19.658 7.3144-1.8654.1826-4.596 3.2802-5.2108 4.595-1.6182 3.4605-3.3545 6.3616 1.7546 17.064.9329 1.9541 1.1536 9.0917 1.2874 11.688 1.2241 23.755 8.1182 56.77 24.405 49.642 9.6577-3.8558 12.03-29.642 12.03-29.642l7 51.5v-1" stroke="#000" stroke-width="4"/>
  <g stroke="#a00">
   <path d="m141.61 117.94s-5.9666-16.224-12.824-32.018c-8.0617-18.568-14.837-38.82-29.663-53.569-6.6592-6.624-16.163-8.0812-25.456-6.7175-14.371 2.1089-34.729 31.338-43.404 51.619-7.0406 16.46-6.8105 48.576-7.4246 66.468-1.169 34.059 15.474 105.36 15.474 105.36" stroke-width="4"/>
   <path d="M145.39 461.19s.1712 12.654-3.1185 17.534c-5.1702 7.6701-12.91 10.49-21.772 11.819-13.032 1.9541-27.869-1.2855-38.855-8.8981-12.482-8.6493-17.457-23.792-19.781-39.3-2.3952-15.987-7.3802-85.725-10.519-86.195" stroke-width="4.094"/>
   <path d="M93.81 104.48c-17.176 19.753-34.804 69.481-38.891 90.863-3.9446 19.888-11.048 33.875-15.203 51.619-2.9869 12.755-6.1883 25.802-5.6569 38.891.5985 14.74 3.6942 29.065 8.1317 43.134 5.2798 16.739 3.0945 14.027 10.253 30.052 4.8153 10.78 16.263 27.577 16.263 27.577" stroke-width="4"/>
  </g>
 </g>
 <path d="M69.23 66.089l8.971-1.5877c13.084 18.242 7.7259 16.157 12.432 29.372-7.5778-7.2009-6.014-11.381-19.653-.3995-16.404 15.022-16.573 76.199-17.742 100.92-.3417 7.2301-4.2115 15.274-5.0069 18.549-4.088-9.7404-3.4669-37.062-3.4862-61.655-.0296-37.686 3.3584-75.526 24.485-85.197z" fill="#dca480" fill-rule="evenodd"/>
 <g fill="none">
  <g stroke="#a00">
   <path d="M102.3 129.94s-4.1171-20.648-10.253-36.416c-4.0184-10.326-6.6198-30.051-17.678-30.759-6.6878-.4286-17.182 9.9713-17.182 9.9713-11.148 16.611-13.358 48.777-12.87 77.003" stroke-width="4"/>
   <path d="M64.12 245.55s-5.3033 20.245-5.3033 28.991c0 9.7182 2.8284 28.638 2.8284 28.638m-.0051 3.531c4.523 8.9358 9.3134 33.103 22.113 40.234 11.309 6.3001 5.5766 22.861 13.286 30.619 2.6501 2.5231 4.9382 9.6765 8.5637 9.182m27.809-47.508s7.8496-18.955 10.783-26.163c2.7903-6.8551-1.0607-22.627-1.0607-22.627m-22.451-44.548s-7.9431.2879-11.314 2.1213c-5.7118 3.107-13.435 14.142-13.435 14.142m17.453-56.654s-14.481 4.2695-20.238 6.5355c-12.52 4.928-22.699 19.97-26.206 26.784" stroke-width="2.2"/>
  </g>
  <path d="m219.29 265.89-22.182-2.9142" stroke="#000" stroke-width="2"/>
  <path d="M525.26 437.56s-11.368-17.799-17-25.5c-11.756-16.077-23.506-28.89-38.5-42-9.0349-7.8992-17.141-18.126-28.5-22-7.414-2.5287-15.788 1.3754-23.5 0-6.6446-1.1851-19-7-19-7m23.39-76.19l8.8388 4.9498M554.38 426.32s-11.965-11.578-22.117-22.257c-12.543-13.193-26.12-22.135-39-35-9.7846-9.773-21.004-20.997-30.006-31.495-6.7881-7.9164-16.934-15.677-19.132-25.871-.9118-4.2284-1.4288-15.81-2.4979-25.045-2.3043-6.2324-3.143-10.921-3.6254-14.725m-19.512-12.272c-14.343.4135-28.207-15.639-31.692-31.759l-3.2896-15.215c-.8172-3.7796-18.221-6.8381-31.942-3.801-7.3773 1.633-16.313 4.2096-18.274 10.026-1.6755 4.9672 4.509 14.608 8.6555 25.637.9777 2.6005 6.3809 19.822 6.3809 19.822" stroke="maroon" stroke-width="4"/>
 </g>
 <g stroke="#000">
  <path d="M425.35 255.46a20.421 20.421 0 0 0-1.0488.006l-1.5255.4694c-1.8616 1.0676-3.4582 2.6386-3.9769 4.591-2.6687 3.0698-6.8473 6.4989-4.3601 11.109-.0937.7181-6.4285 4.1989-6.344 4.824.1343.993.9143 3.412 3.0712 3.469 2.5988-1.1658 5.5719-3.1966 6.509-3.9328 1.5836.6686 3.6738.7318 6.5512 1.5383 5.6276.5134 10.587-3.2816 14.765-6.4503 1.8921-1.398 5.9249.8559 7.3011-2.2497 1.6739-4.1138-3.4163-7.1793-6.4595-8.9054-4.8782-2.4793-9.2933-4.3711-14.483-4.4683zm.9534 4.4958c.094.005.1913.0202.297.0404 1.198.2203-.2896-.4536-.2896.0532 0 .2864 1.2527-.1577.2785-.0328-1.2879.169-2.6062 2.38-2.2768 2.7032 1.6732 1.7567 6.98 5.5021 10.201 5.4903 1.9397-2.0623 2.7472-3.1172 3.7393-3.1919.315.4925.8061.4054-.3612.2732-.8536-.0955-1.0325.0734-1.8262 1.212-1.6997 2.4165-5.466 4.7585-9.1199 5.6692-2.351.5876-5.9078.5437-7.3304-.0953-1.505-.6684-1.97-1.278-1.9325-2.5412.0375-1.6012 1.139-3.1284 4.7396-6.5731 2.6927-2.5836 3.224-3.0411 3.8816-3.007z" fill="#e6e6e6" stroke-width="2.347"/>
  <path d="M364.02 224.68c13.033 11.52 8.5539 21.221 5.0312 25.781-.7962 5.8001 6.7068 1.6845 7.5625 7.0938.7088 2.7637-1.8512 5.9883 1.6652 7.8839 4.9506 2.2216 8.3221 4.7149 11.21 8.8661 5.4512 2.9565 9.6465 7.0105 12.972 8.1609 2.2655.5733 6.8138.7359 8.7761-1.3225 1.376-3.6832-2.4602-5.1897-4.1231-6.4322-4.4895 1.9276-11.783-5.4172-15.531-12.938-2.1566-4.9225-9.1361-6.6043-8.125-12.875.6424-14.652 1.2423-17.873-6.0625-25.719-4.4539-3.5885-15.804-1.4136-13.375 1.5z" fill="#e6e6e6" stroke-width="2.5"/>
  <path d="M553.76 415.56s-9.8122-9.9221-23-23.5c-15.545-16.005-50-44.5-50-44.5m35.5 87.5s-16.154-21.428-25-31.5c-10.422-11.867-20.52-24.32-33-34-5.3087-4.1178-11.1-7.9542-17.5-10-9.5726-3.0601-20.215-.7064-30-3-9.1922-2.1547-26.5-10-26.5-10" fill="none" stroke-width="4"/>
 </g>
 <path d="M222.42 345.92c6.7908-2.1365-.4187 12.11-20.068 15.792-8.5096 1.5945-14.31-2.8195-15.318-7.073-1.0222-4.3125 3.7753-7.1281 7.9014-6.0822 3.7168.9422 24.147-1.587 27.485-2.6373z" fill="#9393ac"/>
 <path d="M233.68 342.97c8.6407-1.9784 13.108-3.0581 13.798 2.1178.4473 3.3565-4.0248 7.9198-11.61 10.045-3.9607 1.1095-12.439 3.3658-13.353-3.0685-.7627-5.3653 1.8247-6.9554 11.165-9.0938z" fill="#9393ac"/>
 <g fill="none">
  <path d="m400.61 338.3c-10.597 7.8264-31.658-5.2988-43.694-21.262-13.305-17.646-13.993-38.413-4.5418-46.506 9.4068-8.0545 25.27-2.1538 40.956 17.916 13.61 17.412 17.672 42.177 7.2795 49.852z" stroke="green" stroke-dasharray="1.99,3.97" stroke-width="1.985"/>
  <path d="m399.49 337.69c-7.756 8.7377-29.963-4.4374-42.34-20.601-13.209-17.251-14.602-38.691-4.3051-47.34" stroke="green" stroke-width="1.985"/>
  <path d="m408.82 260.77c-11.405-1.5318-22.577-6.9642-43.605-1.2637" stroke="#867979" stroke-width="5"/>
 </g>
 <path d="M385.78 215.88l3.4038-6.6872c-.9135 9.2242.3672 44.913 28.704 45.655 1.8938.0496 5.5383 1.6111 7.4072 1.925 8.1311 1.3661 11.784 6.4137 16.766 11.838 1.7299 1.8835 2.0418 5.1781 2.5583 7.7988.495 2.5113 1.4485 4.4258 1.6506 8.4309.384 7.6103.8006 16.728 3.3826 22.833 8.059 19.054 24.664 38.068 33.075 39.833l-4.7228 4.3505c-11.492-15.04-29.873-32.319-33.008-44.643l-1.8528-21.916-2.0344-7.2822c-.7392-1.5378-.9304-6.473-2.0553-7.5969-4.7003-4.6959-7.373-9.709-15.102-10.699-2.1885-.2802-4.2948-2.0398-6.7683-1.7762-27.012-3.9506-29.187-26.15-31.404-42.063z" fill="#fff" fill-rule="evenodd" opacity=".676"/>
 <g fill="#8f5c8a" fill-rule="evenodd">
  <path d="M456.69 319.44c41.932 21.1 78.987-.6767 83.146-30.73-1.707 6.4671.7403 30.952-32.646 42.98-18.427 2.5349-32.61-.7655-45.75-5.5z"/>
  <path d="M519.8 285.67c.3633 6.2389 1.9651 12.478-2.1213 18.717-3.5507 6.1952-8.9168 6.9443-13.783 9.1924 10.958-7.3287 13.787-12.297 15.905-27.909zm-13.86 8.14c-.3795 7.2936 1.652 15.706-9.75 20.125-8.2038 3.1792-14.6 2.527-23.159-4.5 21.484 4.4185 27.061 2.4077 32.909-15.625z"/>
 </g>
 <path d="M512.87 188.92c15.909 12.786 50.015 17.072 99.416 22.788-1.3477 2.0465.5657 7.0032-4.2062 8.018-12.3 2.6157-39.88-1.5346-65.945-5.0392-16.097-2.1644-28.713 12.116-33.434 10.217-12.314-4.9542 4.2061-48.066 4.1696-35.984z" fill="#fce94f"/>
 <path d="M153.77 18.694l9.0824-.4302c3.2921 53.031 10.87 107.57 9.8078 161.69h-5.3583c-8.3749-50.746-8.591-108.8-13.532-161.26z" fill="#de8787" fill-rule="evenodd"/>
 <path d="m167.18 179.45 5.5924-1.0755-2.1509 55.709-3.8717-29.253z" fill="#ac9393" fill-rule="evenodd"/>
 <g stroke-linejoin="round">
  <g stroke-width="2">
   <g stroke="#000">
    <circle cx="608.72" cy="262.7" r="1.96"/>
    <path d="M608.97 262.85l.3323 39.547"/>
    <circle cx="486.99" cy="307.84" r="1.96"/>
    <path d="m486.73 307.21c10.78 34.578 28.683 58.533 58.103 74.471" fill="none"/>
    <path d="m476.31 182.2 29.003-122.48" fill="#c00"/>
    <circle cx="474.56" cy="183.5" r="1.96"/>
    <circle cx="608.19" cy="247.83" r="1.96"/>
    <path d="m608.69 248.01-1.6668-132.38"/>
    <circle cx="434" cy="258.58" r="1.96"/>
    <path d="m386.63 92.31 47.347 166.62"/>
    <path d="m355.7 234.42-87.022-65.445m109.75 69.995-22.751-84.909" fill="#c00"/>
    <circle cx="355.82" cy="234.3" r="1.96"/>
    <circle cx="378.43" cy="239.92" r="1.96"/>
    <circle cx="357.86" cy="300.46" r="1.96"/>
   </g>
  </g>
  <switch stroke="#000">
   <g stroke-width="2" systemLanguage="en, eo">
    <path d="m357.68 300.46-75.378 147.59m149.15-155.45-5.397 155.05"/>
   </g>
   <g transform="translate(-98.008 -12.008)" stroke-dashoffset="0pt" systemLanguage="de">
    <path d="m455.87 312.47-123.59 168.71" stroke-width="2"/>
    <path d="m530.31 302.7 3.2061 156.78" stroke-width="1.8097"/>
   </g>
  </switch>
  <g stroke="#000" stroke-width="2">
   <circle cx="432.3" cy="290.69" r="1.96"/>
   <path d="m507.73 397.56-13.637 61.114"/>
   <circle cx="507.8" cy="397.73" r="1.96"/>
   <path d="m206.4 376.45 5.3538-69.802"/>
   <circle cx="211.37" cy="307.65" r="1.96"/>
   <g stroke="#000">
    <path d="m370.11 391.92 41.5-62.5"/>
    <circle cx="412.47" cy="328.92" r="1.96"/>
   </g>
  </g>
 </g>
 <switch>
  <g stroke-linejoin="round" stroke-width="2" systemLanguage="en, eo">
   <g stroke="#000">
    <path d="m32.64 416.76 36.354-65.302"/>
   </g>
  </g>
  <g transform="translate(-98.008 -12.008)" systemLanguage="de">
   <path d="m144.16 431.74 22.468-67.272" stroke="#000" stroke-dashoffset="0pt" stroke-linejoin="round" stroke-width="2"/>
  </g>
 </switch>
 <g stroke-linejoin="round" stroke-width="2">
  <g stroke="#000">
   <circle cx="68.62" cy="352.46" r="1.96"/>
  </g>
  <g stroke="#c00">
   <path d="m504.35 322.87 23.76 23.208"/>
   <path d="m474.16 301.16c4.2585-51.015 27.433-91.941 51.276-132.51" fill="none"/>
   <path d="m511.56 258.07 19.734-41.971" fill="#c00"/>
  </g>
 </g>
 <ellipse transform="matrix(.82124 .57059 -.53949 .84199 0 0)" cx="570.17" cy="-80.16" rx="16.04" ry="12.27" fill="url(#g)"/>
 <ellipse transform="rotate(-3.979)" cx="481.88" cy="357.13" rx="15.13" ry="11.39" fill="url(#h)"/>
 <ellipse transform="rotate(46.135)" cx="547.5" cy="-131.9" rx="11.13" ry="8.38" fill="url(#i)"/>
 <g stroke="#000" stroke-linejoin="round" stroke-width="2">
  <circle cx="504.83" cy="323.51" r="1.96"/>
  <circle cx="474.31" cy="301.54" r="1.96"/>
  <circle cx="511.68" cy="258.17" r="1.96"/>
 </g>
 <switch>
  <text x="324" y="145" systemLanguage="en">Incus</text>
  <text x="324" y="145" systemLanguage="eo">Inko</text>
  <text x="350" y="145" text-anchor="middle" systemLanguage="de">Amboss</text>
 </switch>
 <switch>
  <text x="222" y="162" systemLanguage="en">Malleus</text>
  <text x="222" y="162" systemLanguage="eo">Malleus</text>
  <text x="222" y="162" systemLanguage="de">Hammer</text>
 </switch>
 <switch text-anchor="end">
  <text x="586" y="45" systemLanguage="en">Semicircular <tspan x="586" y="65">Canals</tspan></text>
  <text x="510" y="45" systemLanguage="eo" text-anchor="start">Kanaloj<tspan x="510" y="65">semicirculares</tspan></text>
  <text x="586" y="55" systemLanguage="de">Bogengänge</text>
 </switch>
 <switch>
  <text x="529" y="100" systemLanguage="en">Vestibular <tspan x="529" y="120">Nerve</tspan></text>
  <text x="610" y="100" systemLanguage="eo" text-anchor="middle">Nordo<tspan x="610" y="120">Vestibular</tspan></text>
  <text x="610" y="90" text-anchor="middle" systemLanguage="de">Nervus <tspan x="610" y="110">vestibularis</tspan></text>
 </switch>
 <switch>
  <text x="553" y="316" systemLanguage="en">Cochlear <tspan x="553" y="336">Nerve</tspan></text>
  <text x="610" y="316" systemLanguage="eo" text-anchor="middle">Nervo<tspan x="610" y="336">coclear</tspan></text>
  <text x="610" y="316" text-anchor="middle" systemLanguage="de">Nervus <tspan x="610" y="336">cochlearis</tspan></text>
 </switch>
 <switch>
  <text x="473" y="478" systemLanguage="en">Eustachian Tube</text>
  <text x="473" y="478" systemLanguage="eo">Eustachia Tubo</text>
  <text x="473" y="478" systemLanguage="de">Ohrtrompete</text>
 </switch>
 <switch>
  <text x="257" y="473" text-anchor="middle" systemLanguage="en">Tympanic <tspan x="257" y="493">Membrane</tspan></text>
  <text x="257" y="473" text-anchor="middle" systemLanguage="eo">Timpana<tspan x="257" y="493">Membrano</tspan></text>
  <g transform="translate(-98.008 -12.008)" systemLanguage="de">
   <text x="324.94199" y="500.64001" fill="#000000" font-family='DejaVu Sans' text-anchor="middle" style="line-height:0%" xml:space="preserve"><tspan x="324.94199" y="500.64001" font-size="20px" style="line-height:1">Trommelfell</tspan></text>
  </g>
 </switch>
 <g text-anchor="middle">
  <switch>
   <text x="206" y="401" systemLanguage="en">External <tspan x="206" y="421">Auditory Canal</tspan></text>
   <text x="206" y="401" systemLanguage="eo">Ekstera<tspan x="206" y="421">Okaza Kanalo</tspan></text>
   <text x="206" y="401" systemLanguage="de">äußerer <tspan x="206" y="421">Gehörgang</tspan></text>
  </switch>
  <switch>
   <text x="380" y="45" systemLanguage="en">Stapes <tspan x="383" y="65">(attached to</tspan><tspan x="380" y="85">oval window)</tspan></text>
   <text x="380" y="45" systemLanguage="eo">Stapes<tspan x="383" y="65">(kunigitaj al</tspan><tspan x="380" y="85">ovala fenestro)</tspan></text>
   <text x="380" y="45" systemLanguage="de"><tspan x="380" y="85">Steigbügel</tspan></text>
  </switch>
 </g>
 <switch>
  <text x="552" y="392" systemLanguage="en">Cochlea</text>
  <text x="552" y="392" systemLanguage="eo">Cochlea</text>
  <text x="552" y="392" systemLanguage="de">Schnecke</text>
 </switch>
 <switch text-anchor="middle">
  <text x="411" y="472" systemLanguage="en">Round <tspan x="411" y="492">Window</tspan></text>
  <text x="411" y="472" systemLanguage="eo">Ronda<tspan x="411" y="492">Fenestro</tspan></text>
  <text x="411" y="472" systemLanguage="de">rundes <tspan x="411" y="492">Fenster</tspan></text>
 </switch>
 <switch>
  <text transform="rotate(-90)" x="-495" y="36" systemLanguage="en">Auricle</text>
  <text transform="rotate(-90)" x="-495" y="36" systemLanguage="eo">Auriklo</text>
  <text transform="rotate(-90)" x="-495" y="36" systemLanguage="de">Ohrmuschel</text>
 </switch>
 <switch>
  <text x="317" y="409" systemLanguage="en">Tympanic <tspan x="317" y="429">Cavity</tspan></text>
  <text x="317" y="409" systemLanguage="eo">Tympanic<tspan x="317" y="429">Cavity</tspan></text>
  <text x="430" y="409" text-anchor="end" systemLanguage="de">Paukenhöhle</text>
 </switch>
 <g fill="#c00">
  <text x="535" y="361">16 kHz</text>
  <text x="536" y="218">6 kHz</text>
  <text x="512" y="163">0.5 kHz</text>
 </g>
</svg>
