<?xml version='1.0' encoding='UTF-8'?>
<!DOCTYPE svg PUBLIC "-//W3C//DTD SVG 1.1//EN" "http://www.w3.org/Graphics/SVG/1.1/DTD/svg11.dtd">
<!-- Created with matplotlib (http://matplotlib.org/) -->
<svg xmlns="http://www.w3.org/2000/svg" xmlns:xlink="http://www.w3.org/1999/xlink" height="400px" version="1.1" viewBox="0 0 600 400" width="600px">
  <title>mplwp_Euler_spiral.svg</title>
  <desc>http://commons.wikimedia.org/wiki/File:mplwp_Euler_spiral.svg
Plot created with mplwp, the Matplotlib extension for Wikipedia plots.</desc>
  <defs>
    <style type="text/css">
*{stroke-linecap:square;stroke-linejoin:round;}
  </style>
  </defs>
  <defs>
    <clipPath id="pa82c4e93f3">
      <rect height="355.0" width="515.0" x="42.5" y="18.5"/>
    </clipPath>
  </defs>
  <g id="figure_1">
    <g id="patch_1">
      <path d="
M 0 400
L 600 400
L 600 0
L 0 0
z 
" style="fill:#ffffff;"/>
    </g>
    <g id="axes_1">
      <g id="patch_2">
        <path d="
M 42.5 373.5
L 557.5 373.5
L 557.5 18.5
L 42.5 18.5
z 
" style="fill:#ffffff;"/>
      </g>
      <g id="line2d_1">
        <path clip-path="url(#pa82c4e93f3)" d="
M 203.357 309.327
L 202.989 311.207
L 202.382 313.024
L 201.545 314.747
L 200.494 316.349
L 199.246 317.803
L 197.822 319.085
L 196.246 320.175
L 194.543 321.054
L 192.742 321.71
L 190.873 322.131
L 188.964 322.312
L 187.049 322.25
L 185.156 321.946
L 183.318 321.406
L 181.561 320.638
L 179.916 319.656
L 178.407 318.475
L 177.057 317.115
L 175.889 315.596
L 174.919 313.944
L 174.163 312.183
L 173.632 310.343
L 173.333 308.45
L 173.272 306.536
L 173.448 304.628
L 173.858 302.756
L 174.496 300.95
L 175.351 299.235
L 176.41 297.639
L 177.657 296.184
L 179.073 294.892
L 180.636 293.783
L 182.322 292.873
L 184.107 292.174
L 185.963 291.697
L 187.864 291.448
L 189.781 291.43
L 191.685 291.644
L 193.55 292.086
L 195.349 292.749
L 197.055 293.622
L 198.644 294.693
L 200.094 295.947
L 201.383 297.364
L 202.495 298.925
L 203.413 300.607
L 204.125 302.386
L 204.622 304.236
L 204.896 306.132
L 204.945 308.047
L 204.768 309.955
L 204.368 311.829
L 203.751 313.643
L 202.926 315.372
L 201.905 316.994
L 200.702 318.485
L 199.333 319.826
L 197.818 321
L 196.177 321.991
L 194.433 322.785
L 192.608 323.372
L 190.728 323.746
L 188.818 323.902
L 186.902 323.838
L 185.006 323.555
L 183.155 323.057
L 181.373 322.352
L 179.682 321.449
L 178.105 320.36
L 176.662 319.099
L 175.37 317.683
L 174.246 316.131
L 173.305 314.462
L 172.556 312.698
L 172.011 310.861
L 171.674 308.975
L 171.55 307.063
L 171.64 305.149
L 171.942 303.257
L 172.453 301.41
L 173.165 299.631
L 174.069 297.942
L 175.154 296.362
L 176.406 294.912
L 177.81 293.607
L 179.349 292.464
L 181.003 291.496
L 182.753 290.714
L 184.578 290.128
L 186.456 289.743
L 188.365 289.563
L 190.281 289.591
L 192.184 289.826
L 194.05 290.264
L 195.859 290.9
L 197.588 291.726
L 199.22 292.732
L 200.734 293.907
L 202.115 295.236
L 203.346 296.704
L 204.415 298.295
L 205.309 299.99
L 206.019 301.77
L 206.538 303.614
L 206.86 305.503
L 206.981 307.416
L 206.902 309.33
L 206.623 311.226
L 206.083 313.285
L 205.309 315.268
L 204.312 317.149
L 203.105 318.903
L 201.705 320.507
L 200.13 321.941
L 198.403 323.186
L 196.544 324.226
L 194.58 325.049
L 192.535 325.645
L 190.436 326.006
L 188.31 326.128
L 186.183 326.011
L 184.083 325.657
L 182.036 325.07
L 180.066 324.258
L 178.2 323.233
L 176.458 322.008
L 174.863 320.597
L 173.433 319.019
L 172.185 317.294
L 171.135 315.442
L 170.293 313.486
L 169.671 311.45
L 169.273 309.359
L 169.106 307.236
L 169.169 305.108
L 169.462 302.999
L 169.98 300.934
L 170.718 298.937
L 171.665 297.03
L 172.811 295.236
L 174.141 293.573
L 175.641 292.062
L 177.293 290.717
L 179.078 289.555
L 180.975 288.588
L 182.964 287.825
L 185.022 287.275
L 187.126 286.943
L 189.253 286.832
L 191.38 286.943
L 193.484 287.274
L 195.543 287.82
L 197.534 288.576
L 199.437 289.533
L 201.232 290.68
L 202.9 292.004
L 204.424 293.491
L 205.789 295.126
L 206.981 296.891
L 207.988 298.767
L 208.801 300.735
L 209.411 302.774
L 209.814 304.865
L 210.006 306.985
L 209.985 309.114
L 209.753 311.231
L 209.312 313.314
L 208.667 315.343
L 207.825 317.299
L 206.794 319.162
L 205.586 320.916
L 204.213 322.543
L 202.687 324.029
L 201.024 325.36
L 199.24 326.523
L 197.352 327.509
L 195.378 328.309
L 193.336 328.915
L 191.245 329.324
L 189.125 329.531
L 186.995 329.536
L 184.663 329.307
L 182.367 328.838
L 180.133 328.134
L 177.983 327.203
L 175.94 326.055
L 174.026 324.705
L 172.26 323.166
L 170.66 321.455
L 169.242 319.59
L 168.02 317.592
L 167.006 315.481
L 166.209 313.278
L 165.637 311.007
L 165.294 308.69
L 165.184 306.351
L 165.306 304.012
L 165.659 301.696
L 166.238 299.427
L 167.036 297.225
L 168.046 295.112
L 169.257 293.107
L 170.657 291.229
L 172.233 289.495
L 173.967 287.92
L 175.845 286.52
L 177.849 285.305
L 179.959 284.286
L 182.156 283.473
L 184.421 282.871
L 186.732 282.484
L 189.069 282.317
L 191.412 282.368
L 193.74 282.638
L 196.032 283.122
L 198.27 283.816
L 200.435 284.714
L 202.508 285.806
L 204.472 287.083
L 206.311 288.534
L 208.012 290.146
L 209.559 291.905
L 210.942 293.795
L 212.15 295.803
L 213.173 297.91
L 214.004 300.1
L 214.638 302.355
L 215.07 304.657
L 215.298 306.988
L 215.32 309.33
L 215.138 311.665
L 214.709 314.184
L 214.043 316.651
L 213.148 319.044
L 212.034 321.344
L 210.709 323.529
L 209.188 325.583
L 207.483 327.487
L 205.611 329.226
L 203.587 330.787
L 201.429 332.157
L 199.156 333.326
L 196.786 334.284
L 194.34 335.026
L 191.837 335.547
L 189.298 335.842
L 186.742 335.912
L 184.191 335.756
L 181.663 335.376
L 179.178 334.777
L 176.754 333.964
L 174.41 332.945
L 172.162 331.728
L 170.027 330.322
L 168.02 328.74
L 166.154 326.992
L 164.443 325.094
L 162.898 323.058
L 161.529 320.901
L 160.344 318.636
L 159.35 316.282
L 158.555 313.853
L 157.961 311.368
L 157.572 308.842
L 157.39 306.294
L 157.414 303.738
L 157.644 301.193
L 158.121 298.467
L 158.832 295.791
L 159.769 293.187
L 160.925 290.671
L 162.29 288.262
L 163.853 285.977
L 165.601 283.83
L 167.523 281.836
L 169.602 280.008
L 171.826 278.357
L 174.176 276.894
L 176.638 275.626
L 179.195 274.561
L 181.828 273.704
L 184.522 273.061
L 187.258 272.633
L 190.02 272.422
L 192.79 272.427
L 195.55 272.649
L 198.286 273.083
L 200.98 273.726
L 203.616 274.574
L 206.181 275.618
L 208.66 276.854
L 211.039 278.271
L 213.475 279.991
L 215.767 281.9
L 217.9 283.983
L 219.863 286.227
L 221.645 288.618
L 223.237 291.139
L 224.63 293.775
L 225.819 296.51
L 226.796 299.326
L 227.559 302.208
L 228.106 305.139
L 228.433 308.103
L 228.542 311.082
L 228.434 314.061
L 228.11 317.025
L 227.574 319.958
L 226.831 322.845
L 225.885 325.673
L 224.744 328.428
L 223.312 331.283
L 221.673 334.025
L 219.838 336.64
L 217.818 339.116
L 215.625 341.439
L 213.272 343.601
L 210.772 345.591
L 208.139 347.402
L 205.387 349.026
L 202.53 350.457
L 199.582 351.691
L 196.558 352.724
L 193.471 353.553
L 190.337 354.176
L 186.956 354.613
L 183.553 354.816
L 180.144 354.787
L 176.745 354.527
L 173.371 354.041
L 170.036 353.334
L 166.755 352.41
L 163.54 351.275
L 160.404 349.939
L 157.359 348.406
L 154.416 346.687
L 151.584 344.79
L 148.708 342.589
L 145.978 340.209
L 143.404 337.662
L 140.994 334.96
L 138.754 332.115
L 136.691 329.139
L 134.809 326.045
L 133.113 322.846
L 131.523 319.358
L 130.147 315.78
L 128.987 312.126
L 128.044 308.41
L 127.317 304.646
L 126.805 300.847
L 126.507 297.025
L 126.42 292.979
L 126.564 288.935
L 126.935 284.906
L 127.526 280.903
L 128.332 276.937
L 129.346 273.02
L 130.632 268.959
L 132.133 264.972
L 133.84 261.069
L 135.744 257.259
L 137.945 253.365
L 140.343 249.589
L 142.927 245.937
L 145.684 242.415
L 148.749 238.869
L 151.981 235.475
L 155.369 232.236
L 159.064 229.018
L 162.902 225.973
L 166.873 223.101
L 171.144 220.289
L 175.532 217.664
L 180.214 215.124
L 184.998 212.781
L 190.067 210.547
L 195.42 208.438
L 200.85 206.538
L 206.551 204.779
L 212.518 203.171
L 218.745 201.726
L 225.226 200.449
L 232.166 199.314
L 239.349 198.364
L 246.98 197.578
L 255.266 196.947
L 264.417 196.476
L 274.855 196.168
L 287.853 196.019
L 329.832 195.719
L 340.053 195.321
L 348.985 194.757
L 357.263 194.011
L 364.88 193.103
L 372.044 192.025
L 378.751 190.794
L 385.205 189.384
L 391.398 187.8
L 397.325 186.05
L 402.979 184.146
L 408.356 182.1
L 413.452 179.928
L 418.456 177.551
L 423.168 175.067
L 427.77 172.385
L 432.071 169.619
L 436.245 166.666
L 440.114 163.659
L 443.841 160.478
L 447.262 157.275
L 450.531 153.916
L 453.634 150.404
L 456.432 146.914
L 459.058 143.292
L 461.501 139.545
L 463.75 135.679
L 465.702 131.892
L 467.459 128.012
L 469.013 124.045
L 470.353 120.002
L 471.472 115.892
L 472.322 111.936
L 472.959 107.939
L 473.376 103.915
L 473.569 99.8726
L 473.531 95.8263
L 473.28 92.0011
L 472.815 88.1958
L 472.136 84.4228
L 471.241 80.6953
L 470.129 77.0264
L 468.801 73.4301
L 467.259 69.9205
L 465.607 66.6985
L 463.768 63.5789
L 461.747 60.5744
L 459.549 57.6973
L 457.178 54.9601
L 454.642 52.3753
L 451.948 49.9549
L 449.105 47.711
L 446.124 45.6552
L 443.201 43.902
L 440.174 42.3341
L 437.054 40.96
L 433.854 39.7873
L 430.584 38.8234
L 427.258 38.0746
L 423.89 37.5466
L 420.495 37.2443
L 417.086 37.1714
L 413.681 37.3308
L 410.295 37.7243
L 407.152 38.3063
L 404.055 39.0941
L 401.017 40.0862
L 398.053 41.2802
L 395.177 42.6724
L 392.402 44.2583
L 389.745 46.0322
L 387.217 47.9872
L 384.834 50.1152
L 382.608 52.4072
L 380.552 54.853
L 378.679 57.441
L 376.999 60.1588
L 375.525 62.9929
L 374.343 65.7301
L 373.355 68.5432
L 372.568 71.4189
L 371.987 74.3433
L 371.618 77.3017
L 371.463 80.279
L 371.525 83.2597
L 371.806 86.2278
L 372.305 89.167
L 373.022 92.0609
L 373.954 94.8929
L 375.098 97.6465
L 376.447 100.305
L 377.997 102.852
L 379.739 105.272
L 381.665 107.549
L 383.762 109.668
L 386.021 111.615
L 388.427 113.377
L 390.782 114.835
L 393.239 116.113
L 395.785 117.203
L 398.406 118.096
L 401.088 118.787
L 403.816 119.27
L 406.572 119.54
L 409.341 119.596
L 412.106 119.435
L 414.85 119.057
L 417.555 118.463
L 420.204 117.656
L 422.78 116.638
L 425.265 115.417
L 427.643 113.997
L 429.897 112.389
L 432.011 110.601
L 433.97 108.644
L 435.76 106.531
L 437.367 104.277
L 438.778 101.895
L 439.983 99.4025
L 440.972 96.8167
L 441.735 94.1559
L 442.267 91.4393
L 442.562 88.6868
L 442.62 86.1322
L 442.473 83.5812
L 442.118 81.0506
L 441.558 78.5573
L 440.796 76.1182
L 439.835 73.7502
L 438.682 71.4699
L 437.343 69.2933
L 435.826 67.2363
L 434.142 65.3139
L 432.301 63.5406
L 430.317 61.9297
L 428.202 60.4938
L 425.972 59.2443
L 423.643 58.1913
L 421.231 57.3436
L 418.755 56.7087
L 416.233 56.2923
L 413.684 56.0986
L 411.127 56.1304
L 408.584 56.3883
L 406.074 56.8714
L 403.617 57.5768
L 401.233 58.4999
L 398.942 59.6342
L 396.764 60.9713
L 394.716 62.5011
L 392.817 64.2116
L 391.084 66.0893
L 389.531 68.1189
L 388.173 70.2836
L 387.022 72.5652
L 386.09 74.9444
L 385.386 77.4006
L 384.917 79.9123
L 384.698 82.2442
L 384.683 84.5865
L 384.873 86.921
L 385.268 89.2297
L 385.866 91.4945
L 386.662 93.6975
L 387.65 95.821
L 388.825 97.8478
L 390.177 99.7611
L 391.695 101.545
L 393.369 103.184
L 395.184 104.666
L 397.127 105.975
L 399.181 107.102
L 401.33 108.035
L 403.556 108.767
L 405.84 109.29
L 408.163 109.599
L 410.505 109.69
L 412.844 109.563
L 415.162 109.216
L 417.436 108.653
L 419.647 107.877
L 421.775 106.895
L 423.799 105.715
L 425.701 104.348
L 427.463 102.804
L 429.069 101.098
L 430.502 99.2446
L 431.748 97.2614
L 432.796 95.1663
L 433.633 92.9791
L 434.253 90.7203
L 434.647 88.4116
L 434.811 86.0753
L 434.743 83.7343
L 434.443 81.4116
L 433.912 79.1304
L 433.155 76.9138
L 432.18 74.7843
L 430.995 72.7638
L 429.612 70.8735
L 428.044 69.1332
L 426.307 67.5615
L 424.418 66.1754
L 422.397 64.99
L 420.265 64.0187
L 418.044 63.2725
L 415.758 62.7601
L 413.431 62.4878
L 411.301 62.452
L 409.177 62.6187
L 407.079 62.987
L 405.026 63.5542
L 403.037 64.3157
L 401.13 65.2649
L 399.324 66.3937
L 397.635 67.6918
L 396.081 69.1477
L 394.676 70.7479
L 393.433 72.4776
L 392.367 74.3206
L 391.486 76.2593
L 390.801 78.2754
L 390.319 80.3492
L 390.044 82.4606
L 389.981 84.5887
L 390.13 86.7126
L 390.491 88.8109
L 391.061 90.8625
L 391.834 92.8465
L 392.803 94.7425
L 393.959 96.5309
L 395.29 98.1929
L 396.783 99.7111
L 398.424 101.069
L 400.195 102.252
L 402.078 103.248
L 404.053 104.045
L 406.1 104.634
L 408.197 105.008
L 410.321 105.163
L 412.45 105.097
L 414.561 104.809
L 416.629 104.302
L 418.634 103.582
L 420.551 102.654
L 422.36 101.53
L 424.04 100.221
L 425.572 98.7418
L 426.938 97.1081
L 428.121 95.3383
L 429.109 93.4522
L 429.89 91.4711
L 430.453 89.4179
L 430.791 87.3159
L 430.9 85.1898
L 430.779 83.0643
L 430.427 80.9646
L 429.849 78.9155
L 429.051 76.9418
L 428.041 75.0672
L 426.832 73.3146
L 425.437 71.7056
L 423.873 70.26
L 422.16 68.9961
L 420.316 67.9298
L 418.365 67.0749
L 416.332 66.4424
L 414.24 66.041
L 412.116 65.8761
L 409.988 65.9506
L 407.881 66.2641
L 405.823 66.8131
L 403.841 67.5912
L 401.959 68.5891
L 400.204 69.7942
L 398.597 71.1915
L 397.16 72.7632
L 395.913 74.4889
L 394.873 76.3464
L 394.053 78.3113
L 393.466 80.3576
L 393.143 82.2463
L 393.019 84.1584
L 393.096 86.073
L 393.373 87.969
L 393.848 89.8253
L 394.517 91.6212
L 395.371 93.3366
L 396.402 94.9521
L 397.598 96.4492
L 398.947 97.8108
L 400.433 99.021
L 402.04 100.066
L 403.75 100.933
L 405.542 101.612
L 407.397 102.094
L 409.294 102.375
L 411.209 102.449
L 413.122 102.315
L 415.008 101.975
L 416.847 101.433
L 418.616 100.694
L 420.293 99.7664
L 421.859 98.6613
L 423.294 97.3915
L 424.582 95.9718
L 425.705 94.4193
L 426.651 92.7525
L 427.406 90.9916
L 427.962 89.1579
L 428.311 87.2739
L 428.448 85.3628
L 428.372 83.4483
L 428.082 81.5543
L 427.583 79.7046
L 426.879 77.9224
L 425.979 76.2306
L 424.895 74.6506
L 423.639 73.2029
L 422.228 71.9063
L 420.679 70.7778
L 419.012 69.8321
L 417.248 69.082
L 415.41 68.5376
L 413.522 68.2065
L 411.608 68.0933
L 409.694 68.2
L 407.805 68.5257
L 405.966 69.0665
L 404.202 69.8156
L 402.536 70.7634
L 400.991 71.8976
L 399.589 73.2032
L 398.347 74.663
L 397.284 76.2573
L 396.414 77.9647
L 395.75 79.762
L 395.302 81.6246
L 395.075 83.527
L 395.073 85.4429
L 395.298 87.3456
L 395.746 89.2085
L 396.411 91.0054
L 397.284 92.7108
L 398.354 94.3005
L 399.605 95.7516
L 401.021 97.0432
L 402.581 98.1565
L 404.263 99.0751
L 406.043 99.7855
L 407.896 100.277
L 409.794 100.542
L 411.711 100.576
L 413.617 100.379
L 415.486 99.9516
L 417.289 99.3013
L 418.999 98.4368
L 420.592 97.3705
L 422.042 96.118
L 423.328 94.6976
L 424.431 93.1305
L 425.333 91.4401
L 426.02 89.6516
L 426.481 87.7922
L 426.71 85.89
L 426.701 83.9743
L 426.455 82.0744
L 425.975 80.2196
L 425.268 78.439
L 424.345 76.7602
L 423.219 75.2097
L 421.908 73.8121
L 420.432 72.5895
L 418.815 71.5617
L 417.081 70.7454
L 415.258 70.1538
L 413.375 69.7968
L 411.462 69.6806
L 409.549 69.8075
L 407.668 70.1759
L 405.85 70.7803
L 404.123 71.6112
L 402.516 72.6556
L 401.056 73.8966
L 399.767 75.3142
L 398.67 76.8854
L 397.785 78.5844
L 397.125 80.3831
L 396.704 82.2518
L 396.643 82.6735
L 396.643 82.6735" style="fill:none;stroke:#0000cc;stroke-width:2.4;"/>
      </g>
      <g id="line2d_2">
        <defs>
          <path d="
M 0 16
C 4.24325 16 8.31328 14.3141 11.3137 11.3137
C 14.3141 8.31328 16 4.24325 16 0
C 16 -4.24325 14.3141 -8.31328 11.3137 -11.3137
C 8.31328 -14.3141 4.24325 -16 0 -16
C -4.24325 -16 -8.31328 -14.3141 -11.3137 -11.3137
C -14.3141 -8.31328 -16 -4.24325 -16 0
C -16 4.24325 -14.3141 8.31328 -11.3137 11.3137
C -8.31328 14.3141 -4.24325 16 0 16
z 
" id="m8a25da138c"/>
        </defs>
        <g clip-path="url(#pa82c4e93f3)">
          <use style="fill:#0000cc;" x="188.714348152" xlink:href="#m8a25da138c" y="307.231629687"/>
          <use style="fill:#0000cc;" x="411.285651848" xlink:href="#m8a25da138c" y="84.7683703132"/>
        </g>
      </g>
      <g id="matplotlib.axis_1">
        <g id="xtick_1">
          <g id="line2d_3">
            <path clip-path="url(#pa82c4e93f3)" d="
M 122.414 373.5
L 122.414 18.5" style="fill:none;stroke:#000000;stroke-dasharray:1.000000,3.000000;stroke-dashoffset:0.0;stroke-linecap:butt;stroke-width:0.5;"/>
          </g>
          <g id="line2d_4">
            <defs>
              <path d="
M 0 0
L 0 -4" id="ma222041d45" style="stroke:#000000;stroke-linecap:butt;stroke-width:1.25;"/>
            </defs>
            <g>
              <use style="stroke:#000000;stroke-linecap:butt;stroke-width:1.25;" x="122.413793103" xlink:href="#ma222041d45" y="373.5"/>
            </g>
          </g>
          <g id="line2d_5">
            <defs>
              <path d="
M 0 0
L 0 4" id="mab2f347831" style="stroke:#000000;stroke-linecap:butt;stroke-width:1.25;"/>
            </defs>
            <g>
              <use style="stroke:#000000;stroke-linecap:butt;stroke-width:1.25;" x="122.413793103" xlink:href="#mab2f347831" y="18.5"/>
            </g>
          </g>
          <g id="text_1">
            <!-- −1.0 -->
            <defs>
              <path d="
M 12.4062 8.29688
L 28.5156 8.29688
L 28.5156 63.9219
L 10.9844 60.4062
L 10.9844 69.3906
L 28.4219 72.9062
L 38.2812 72.9062
L 38.2812 8.29688
L 54.3906 8.29688
L 54.3906 0
L 12.4062 0
z 
" id="DejaVuSans-31"/>
              <path d="
M 31.7812 66.4062
Q 24.1719 66.4062 20.3281 58.9062
Q 16.5 51.4219 16.5 36.375
Q 16.5 21.3906 20.3281 13.8906
Q 24.1719 6.39062 31.7812 6.39062
Q 39.4531 6.39062 43.2812 13.8906
Q 47.125 21.3906 47.125 36.375
Q 47.125 51.4219 43.2812 58.9062
Q 39.4531 66.4062 31.7812 66.4062
M 31.7812 74.2188
Q 44.0469 74.2188 50.5156 64.5156
Q 56.9844 54.8281 56.9844 36.375
Q 56.9844 17.9688 50.5156 8.26562
Q 44.0469 -1.42188 31.7812 -1.42188
Q 19.5312 -1.42188 13.0625 8.26562
Q 6.59375 17.9688 6.59375 36.375
Q 6.59375 54.8281 13.0625 64.5156
Q 19.5312 74.2188 31.7812 74.2188" id="DejaVuSans-30"/>
              <path d="
M 10.6875 12.4062
L 21 12.4062
L 21 0
L 10.6875 0
z 
" id="DejaVuSans-2e"/>
              <path d="
M 10.5938 35.5
L 73.1875 35.5
L 73.1875 27.2031
L 10.5938 27.2031
z 
" id="DejaVuSans-2212"/>
            </defs>
            <g transform="translate(104.366293103 392.375)scale(0.16 -0.16)">
              <use xlink:href="#DejaVuSans-2212"/>
              <use x="83.7890625" xlink:href="#DejaVuSans-31"/>
              <use x="147.412109375" xlink:href="#DejaVuSans-2e"/>
              <use x="179.19921875" xlink:href="#DejaVuSans-30"/>
            </g>
          </g>
        </g>
        <g id="xtick_2">
          <g id="line2d_6">
            <path clip-path="url(#pa82c4e93f3)" d="
M 211.207 373.5
L 211.207 18.5" style="fill:none;stroke:#000000;stroke-dasharray:1.000000,3.000000;stroke-dashoffset:0.0;stroke-linecap:butt;stroke-width:0.5;"/>
          </g>
          <g id="line2d_7">
            <g>
              <use style="stroke:#000000;stroke-linecap:butt;stroke-width:1.25;" x="211.206896552" xlink:href="#ma222041d45" y="373.5"/>
            </g>
          </g>
          <g id="line2d_8">
            <g>
              <use style="stroke:#000000;stroke-linecap:butt;stroke-width:1.25;" x="211.206896552" xlink:href="#mab2f347831" y="18.5"/>
            </g>
          </g>
          <g id="text_2">
            <!-- −0.5 -->
            <defs>
              <path d="
M 10.7969 72.9062
L 49.5156 72.9062
L 49.5156 64.5938
L 19.8281 64.5938
L 19.8281 46.7344
Q 21.9688 47.4688 24.1094 47.8281
Q 26.2656 48.1875 28.4219 48.1875
Q 40.625 48.1875 47.75 41.5
Q 54.8906 34.8125 54.8906 23.3906
Q 54.8906 11.625 47.5625 5.09375
Q 40.2344 -1.42188 26.9062 -1.42188
Q 22.3125 -1.42188 17.5469 -0.640625
Q 12.7969 0.140625 7.71875 1.70312
L 7.71875 11.625
Q 12.1094 9.23438 16.7969 8.0625
Q 21.4844 6.89062 26.7031 6.89062
Q 35.1562 6.89062 40.0781 11.3281
Q 45.0156 15.7656 45.0156 23.3906
Q 45.0156 31 40.0781 35.4375
Q 35.1562 39.8906 26.7031 39.8906
Q 22.75 39.8906 18.8125 39.0156
Q 14.8906 38.1406 10.7969 36.2812
z 
" id="DejaVuSans-35"/>
            </defs>
            <g transform="translate(193.326896552 392.375)scale(0.16 -0.16)">
              <use xlink:href="#DejaVuSans-2212"/>
              <use x="83.7890625" xlink:href="#DejaVuSans-30"/>
              <use x="147.412109375" xlink:href="#DejaVuSans-2e"/>
              <use x="179.19921875" xlink:href="#DejaVuSans-35"/>
            </g>
          </g>
        </g>
        <g id="xtick_3">
          <g id="line2d_9">
            <path clip-path="url(#pa82c4e93f3)" d="
M 300 373.5
L 300 18.5" style="fill:none;stroke:#000000;stroke-dasharray:3.000000,1.000000;stroke-dashoffset:0.0;stroke-linecap:butt;stroke-width:0.5;"/>
          </g>
          <g id="line2d_10">
            <g>
              <use style="stroke:#000000;stroke-linecap:butt;stroke-width:1.25;" x="300.0" xlink:href="#ma222041d45" y="373.5"/>
            </g>
          </g>
          <g id="line2d_11">
            <g>
              <use style="stroke:#000000;stroke-linecap:butt;stroke-width:1.25;" x="300.0" xlink:href="#mab2f347831" y="18.5"/>
            </g>
          </g>
          <g id="text_3">
            <!-- 0.0 -->
            <g transform="translate(288.33625 392.375)scale(0.16 -0.16)">
              <use xlink:href="#DejaVuSans-30"/>
              <use x="63.623046875" xlink:href="#DejaVuSans-2e"/>
              <use x="95.41015625" xlink:href="#DejaVuSans-30"/>
            </g>
          </g>
        </g>
        <g id="xtick_4">
          <g id="line2d_12">
            <path clip-path="url(#pa82c4e93f3)" d="
M 388.793 373.5
L 388.793 18.5" style="fill:none;stroke:#000000;stroke-dasharray:1.000000,3.000000;stroke-dashoffset:0.0;stroke-linecap:butt;stroke-width:0.5;"/>
          </g>
          <g id="line2d_13">
            <g>
              <use style="stroke:#000000;stroke-linecap:butt;stroke-width:1.25;" x="388.793103448" xlink:href="#ma222041d45" y="373.5"/>
            </g>
          </g>
          <g id="line2d_14">
            <g>
              <use style="stroke:#000000;stroke-linecap:butt;stroke-width:1.25;" x="388.793103448" xlink:href="#mab2f347831" y="18.5"/>
            </g>
          </g>
          <g id="text_4">
            <!-- 0.5 -->
            <g transform="translate(377.296853448 392.375)scale(0.16 -0.16)">
              <use xlink:href="#DejaVuSans-30"/>
              <use x="63.623046875" xlink:href="#DejaVuSans-2e"/>
              <use x="95.41015625" xlink:href="#DejaVuSans-35"/>
            </g>
          </g>
        </g>
        <g id="xtick_5">
          <g id="line2d_15">
            <path clip-path="url(#pa82c4e93f3)" d="
M 477.586 373.5
L 477.586 18.5" style="fill:none;stroke:#000000;stroke-dasharray:1.000000,3.000000;stroke-dashoffset:0.0;stroke-linecap:butt;stroke-width:0.5;"/>
          </g>
          <g id="line2d_16">
            <g>
              <use style="stroke:#000000;stroke-linecap:butt;stroke-width:1.25;" x="477.586206897" xlink:href="#ma222041d45" y="373.5"/>
            </g>
          </g>
          <g id="line2d_17">
            <g>
              <use style="stroke:#000000;stroke-linecap:butt;stroke-width:1.25;" x="477.586206897" xlink:href="#mab2f347831" y="18.5"/>
            </g>
          </g>
          <g id="text_5">
            <!-- 1.0 -->
            <g transform="translate(466.273706897 392.375)scale(0.16 -0.16)">
              <use xlink:href="#DejaVuSans-31"/>
              <use x="63.623046875" xlink:href="#DejaVuSans-2e"/>
              <use x="95.41015625" xlink:href="#DejaVuSans-30"/>
            </g>
          </g>
        </g>
      </g>
      <g id="matplotlib.axis_2">
        <g id="ytick_1">
          <g id="line2d_18">
            <path clip-path="url(#pa82c4e93f3)" d="
M 42.5 373.5
L 557.5 373.5" style="fill:none;stroke:#000000;stroke-dasharray:1.000000,3.000000;stroke-dashoffset:0.0;stroke-linecap:butt;stroke-width:0.5;"/>
          </g>
          <g id="line2d_19">
            <defs>
              <path d="
M 0 0
L 4 0" id="m1eb0c910b5" style="stroke:#000000;stroke-linecap:butt;stroke-width:1.25;"/>
            </defs>
            <g>
              <use style="stroke:#000000;stroke-linecap:butt;stroke-width:1.25;" x="42.5" xlink:href="#m1eb0c910b5" y="373.5"/>
            </g>
          </g>
          <g id="line2d_20">
            <defs>
              <path d="
M 0 0
L -4 0" id="mb63a56c30e" style="stroke:#000000;stroke-linecap:butt;stroke-width:1.25;"/>
            </defs>
            <g>
              <use style="stroke:#000000;stroke-linecap:butt;stroke-width:1.25;" x="557.5" xlink:href="#mb63a56c30e" y="373.5"/>
            </g>
          </g>
          <g id="text_6">
            <!-- −1.0 -->
            <g transform="translate(-0.595 379.32375)scale(0.16 -0.16)">
              <use xlink:href="#DejaVuSans-2212"/>
              <use x="83.7890625" xlink:href="#DejaVuSans-31"/>
              <use x="147.412109375" xlink:href="#DejaVuSans-2e"/>
              <use x="179.19921875" xlink:href="#DejaVuSans-30"/>
            </g>
          </g>
        </g>
        <g id="ytick_2">
          <g id="line2d_21">
            <path clip-path="url(#pa82c4e93f3)" d="
M 42.5 284.75
L 557.5 284.75" style="fill:none;stroke:#000000;stroke-dasharray:1.000000,3.000000;stroke-dashoffset:0.0;stroke-linecap:butt;stroke-width:0.5;"/>
          </g>
          <g id="line2d_22">
            <g>
              <use style="stroke:#000000;stroke-linecap:butt;stroke-width:1.25;" x="42.5" xlink:href="#m1eb0c910b5" y="284.75"/>
            </g>
          </g>
          <g id="line2d_23">
            <g>
              <use style="stroke:#000000;stroke-linecap:butt;stroke-width:1.25;" x="557.5" xlink:href="#mb63a56c30e" y="284.75"/>
            </g>
          </g>
          <g id="text_7">
            <!-- −0.5 -->
            <g transform="translate(-0.26 290.57375)scale(0.16 -0.16)">
              <use xlink:href="#DejaVuSans-2212"/>
              <use x="83.7890625" xlink:href="#DejaVuSans-30"/>
              <use x="147.412109375" xlink:href="#DejaVuSans-2e"/>
              <use x="179.19921875" xlink:href="#DejaVuSans-35"/>
            </g>
          </g>
        </g>
        <g id="ytick_3">
          <g id="line2d_24">
            <path clip-path="url(#pa82c4e93f3)" d="
M 42.5 196
L 557.5 196" style="fill:none;stroke:#000000;stroke-dasharray:3.000000,1.000000;stroke-dashoffset:0.0;stroke-linecap:butt;stroke-width:0.5;"/>
          </g>
          <g id="line2d_25">
            <g>
              <use style="stroke:#000000;stroke-linecap:butt;stroke-width:1.25;" x="42.5" xlink:href="#m1eb0c910b5" y="196.0"/>
            </g>
          </g>
          <g id="line2d_26">
            <g>
              <use style="stroke:#000000;stroke-linecap:butt;stroke-width:1.25;" x="557.5" xlink:href="#mb63a56c30e" y="196.0"/>
            </g>
          </g>
          <g id="text_8">
            <!-- 0.0 -->
            <g transform="translate(12.1725 201.82375)scale(0.16 -0.16)">
              <use xlink:href="#DejaVuSans-30"/>
              <use x="63.623046875" xlink:href="#DejaVuSans-2e"/>
              <use x="95.41015625" xlink:href="#DejaVuSans-30"/>
            </g>
          </g>
        </g>
        <g id="ytick_4">
          <g id="line2d_27">
            <path clip-path="url(#pa82c4e93f3)" d="
M 42.5 107.25
L 557.5 107.25" style="fill:none;stroke:#000000;stroke-dasharray:1.000000,3.000000;stroke-dashoffset:0.0;stroke-linecap:butt;stroke-width:0.5;"/>
          </g>
          <g id="line2d_28">
            <g>
              <use style="stroke:#000000;stroke-linecap:butt;stroke-width:1.25;" x="42.5" xlink:href="#m1eb0c910b5" y="107.25"/>
            </g>
          </g>
          <g id="line2d_29">
            <g>
              <use style="stroke:#000000;stroke-linecap:butt;stroke-width:1.25;" x="557.5" xlink:href="#mb63a56c30e" y="107.25"/>
            </g>
          </g>
          <g id="text_9">
            <!-- 0.5 -->
            <g transform="translate(12.5075 113.07375)scale(0.16 -0.16)">
              <use xlink:href="#DejaVuSans-30"/>
              <use x="63.623046875" xlink:href="#DejaVuSans-2e"/>
              <use x="95.41015625" xlink:href="#DejaVuSans-35"/>
            </g>
          </g>
        </g>
        <g id="ytick_5">
          <g id="line2d_30">
            <path clip-path="url(#pa82c4e93f3)" d="
M 42.5 18.5
L 557.5 18.5" style="fill:none;stroke:#000000;stroke-dasharray:1.000000,3.000000;stroke-dashoffset:0.0;stroke-linecap:butt;stroke-width:0.5;"/>
          </g>
          <g id="line2d_31">
            <g>
              <use style="stroke:#000000;stroke-linecap:butt;stroke-width:1.25;" x="42.5" xlink:href="#m1eb0c910b5" y="18.5"/>
            </g>
          </g>
          <g id="line2d_32">
            <g>
              <use style="stroke:#000000;stroke-linecap:butt;stroke-width:1.25;" x="557.5" xlink:href="#mb63a56c30e" y="18.5"/>
            </g>
          </g>
          <g id="text_10">
            <!-- 1.0 -->
            <g transform="translate(12.875 24.32375)scale(0.16 -0.16)">
              <use xlink:href="#DejaVuSans-31"/>
              <use x="63.623046875" xlink:href="#DejaVuSans-2e"/>
              <use x="95.41015625" xlink:href="#DejaVuSans-30"/>
            </g>
          </g>
        </g>
      </g>
      <g id="patch_3">
        <path d="
M 42.5 18.5
L 557.5 18.5" style="fill:none;stroke:#000000;stroke-width:1.25;"/>
      </g>
      <g id="patch_4">
        <path d="
M 557.5 373.5
L 557.5 18.5" style="fill:none;stroke:#000000;stroke-width:1.25;"/>
      </g>
      <g id="patch_5">
        <path d="
M 42.5 373.5
L 557.5 373.5" style="fill:none;stroke:#000000;stroke-width:1.25;"/>
      </g>
      <g id="patch_6">
        <path d="
M 42.5 373.5
L 42.5 18.5" style="fill:none;stroke:#000000;stroke-width:1.25;"/>
      </g>
      <g id="legend_1">
        <g id="patch_7">
          <path d="
M 71.3 81.242
L 244.259 81.242
L 244.259 47.3
L 71.3 47.3
L 71.3 81.242
z 
" style="fill:#ffffff;opacity:0.9;stroke:#000000;"/>
        </g>
        <g id="line2d_33">
          <path d="
M 84.74 62.849
L 111.62 62.849" style="fill:none;stroke:#0000cc;stroke-width:2.4;"/>
        </g>
        <g id="line2d_34"/>
        <g id="text_11">
          <!-- x=C,   y=S -->
          <defs>
            <path d="
M 11.7188 12.4062
L 22.0156 12.4062
L 22.0156 4
L 14.0156 -11.625
L 7.71875 -11.625
L 11.7188 4
z 
" id="DejaVuSans-2c"/>
            <path d="
M 10.5938 45.4062
L 73.1875 45.4062
L 73.1875 37.2031
L 10.5938 37.2031
z 

M 10.5938 25.4844
L 73.1875 25.4844
L 73.1875 17.1875
L 10.5938 17.1875
z 
" id="DejaVuSans-3d"/>
            <path id="DejaVuSans-20"/>
            <path d="
M 32.1719 -5.07812
Q 28.375 -14.8438 24.75 -17.8125
Q 21.1406 -20.7969 15.0938 -20.7969
L 7.90625 -20.7969
L 7.90625 -13.2812
L 13.1875 -13.2812
Q 16.8906 -13.2812 18.9375 -11.5156
Q 21 -9.76562 23.4844 -3.21875
L 25.0938 0.875
L 2.98438 54.6875
L 12.5 54.6875
L 29.5938 11.9219
L 46.6875 54.6875
L 56.2031 54.6875
z 
" id="DejaVuSans-79"/>
            <path d="
M 54.8906 54.6875
L 35.1094 28.0781
L 55.9062 0
L 45.3125 0
L 29.3906 21.4844
L 13.4844 0
L 2.875 0
L 24.125 28.6094
L 4.6875 54.6875
L 15.2812 54.6875
L 29.7812 35.2031
L 44.2812 54.6875
z 
" id="DejaVuSans-78"/>
            <path d="
M 64.4062 67.2812
L 64.4062 56.8906
Q 59.4219 61.5312 53.7812 63.8125
Q 48.1406 66.1094 41.7969 66.1094
Q 29.2969 66.1094 22.6562 58.4688
Q 16.0156 50.8281 16.0156 36.375
Q 16.0156 21.9688 22.6562 14.3281
Q 29.2969 6.6875 41.7969 6.6875
Q 48.1406 6.6875 53.7812 8.98438
Q 59.4219 11.2812 64.4062 15.9219
L 64.4062 5.60938
Q 59.2344 2.09375 53.4375 0.328125
Q 47.6562 -1.42188 41.2188 -1.42188
Q 24.6562 -1.42188 15.125 8.70312
Q 5.60938 18.8438 5.60938 36.375
Q 5.60938 53.9531 15.125 64.0781
Q 24.6562 74.2188 41.2188 74.2188
Q 47.75 74.2188 53.5312 72.4844
Q 59.3281 70.75 64.4062 67.2812" id="DejaVuSans-43"/>
            <path d="
M 53.5156 70.5156
L 53.5156 60.8906
Q 47.9062 63.5781 42.9219 64.8906
Q 37.9375 66.2188 33.2969 66.2188
Q 25.25 66.2188 20.875 63.0938
Q 16.5 59.9688 16.5 54.2031
Q 16.5 49.3594 19.4062 46.8906
Q 22.3125 44.4375 30.4219 42.9219
L 36.375 41.7031
Q 47.4062 39.5938 52.6562 34.2969
Q 57.9062 29 57.9062 20.125
Q 57.9062 9.51562 50.7969 4.04688
Q 43.7031 -1.42188 29.9844 -1.42188
Q 24.8125 -1.42188 18.9688 -0.25
Q 13.1406 0.921875 6.89062 3.21875
L 6.89062 13.375
Q 12.8906 10.0156 18.6562 8.29688
Q 24.4219 6.59375 29.9844 6.59375
Q 38.4219 6.59375 43.0156 9.90625
Q 47.6094 13.2344 47.6094 19.3906
Q 47.6094 24.75 44.3125 27.7812
Q 41.0156 30.8125 33.5 32.3281
L 27.4844 33.5
Q 16.4531 35.6875 11.5156 40.375
Q 6.59375 45.0625 6.59375 53.4219
Q 6.59375 63.0938 13.4062 68.6562
Q 20.2188 74.2188 32.1719 74.2188
Q 37.3125 74.2188 42.625 73.2812
Q 47.9531 72.3594 53.5156 70.5156" id="DejaVuSans-53"/>
          </defs>
          <g transform="translate(132.74 69.569)scale(0.192 -0.192)">
            <use xlink:href="#DejaVuSans-78"/>
            <use x="59.1796875" xlink:href="#DejaVuSans-3d"/>
            <use x="142.96875" xlink:href="#DejaVuSans-43"/>
            <use x="212.79296875" xlink:href="#DejaVuSans-2c"/>
            <use x="244.580078125" xlink:href="#DejaVuSans-20"/>
            <use x="276.3671875" xlink:href="#DejaVuSans-20"/>
            <use x="308.154296875" xlink:href="#DejaVuSans-20"/>
            <use x="339.94140625" xlink:href="#DejaVuSans-79"/>
            <use x="399.12109375" xlink:href="#DejaVuSans-3d"/>
            <use x="482.91015625" xlink:href="#DejaVuSans-53"/>
          </g>
        </g>
      </g>
    </g>
  </g>
</svg>
