<?xml version="1.0" encoding="UTF-8" standalone="no"?>
<svg
   xmlns:dc="http://purl.org/dc/elements/1.1/"
   xmlns:cc="http://web.resource.org/cc/"
   xmlns:rdf="http://www.w3.org/1999/02/22-rdf-syntax-ns#"
   xmlns:svg="http://www.w3.org/2000/svg"
   xmlns="http://www.w3.org/2000/svg"
   xmlns:xlink="http://www.w3.org/1999/xlink"
   xmlns:sodipodi="http://sodipodi.sourceforge.net/DTD/sodipodi-0.dtd"
   xmlns:inkscape="http://www.inkscape.org/namespaces/inkscape"
   width="600"
   height="600"
   id="lis21"
   version="1.0">

  <path id="curve"
     fill="none"
     stroke="red"
     stroke-width="0.01"
     transform="translate(300,300) scale(280,-280) rotate(90)"
     stroke-linejoin="round"
     stroke-linecap="round"
     d="M 0,0
          C 0.204327,0.102164 0.408883,0.204440 0.579556,0.304194
          C 0.710501,0.380727 0.823009,0.456656 0.898649,0.529779
          C 0.959317,0.588427 1.000000,0.648875 1.000000,0.707107
          C 1.000000,0.739834 0.987151,0.775548 0.948997,0.810952
          C 0.888923,0.866695 0.780976,0.907853 0.654143,0.937116
          C 0.470288,0.979534 0.233558,1.000000 0.000000,1.000000
          C -0.233558,1.000000 -0.470288,0.979534 -0.654143,0.937116
          C -0.780976,0.907853 -0.888923,0.866695 -0.948997,0.810952
          C -0.987151,0.775548 -1.000000,0.739834 -1.000000,0.707107
          C -1.000000,0.648875 -0.959317,0.588427 -0.898649,0.529779
          C -0.823009,0.456656 -0.710501,0.380727 -0.579556,0.304194
          C -0.408883,0.204440 -0.204327,0.102164 0.000000,0.000000
          C 0.204327,-0.102164 0.408883,-0.204440 0.579556,-0.304194
          C 0.710501,-0.380727 0.823009,-0.456656 0.898649,-0.529779
          C 0.959317,-0.588427 1.000000,-0.648875 1.000000,-0.707107
          C 1.000000,-0.739834 0.987151,-0.775548 0.948997,-0.810952
          C 0.888923,-0.866695 0.780976,-0.907853 0.654143,-0.937116
          C 0.470288,-0.979534 0.233558,-1.000000 0.000000,-1.000000
          C -0.233558,-1.000000 -0.470288,-0.979534 -0.654143,-0.937116
          C -0.780976,-0.907853 -0.888923,-0.866695 -0.948997,-0.810952
          C -0.987151,-0.775548 -1.000000,-0.739834 -1.000000,-0.707107
          C -1.000000,-0.648875 -0.959317,-0.588427 -0.898649,-0.529779
          C -0.823009,-0.456656 -0.710501,-0.380727 -0.579556,-0.304194
          C -0.408883,-0.204440 -0.204327,-0.102164 0.000000,0.000000 Z"/>

</svg>
