<?xml version="1.0" encoding="UTF-8" standalone="no"?>
<svg xmlns="http://www.w3.org/2000/svg" width="600" height="600" version="1.0">
  <path fill="none" stroke="red" stroke-linecap="round" stroke-linejoin="round" stroke-width="2.8" d="M300 300c62.2314-41.4876 124.69996-83.13172 175.02212-121.8294 34.75164-26.72432 65.11876-53.12552 84.15876-76.77236C570.75636 87.0222 580 71.36264 580 57.513c0-13.0564-8.21996-22.06848-21.3136-27.97228C544.22888 23.02204 523.18128 20 497.98996 20c-52.82564 0-125.18828 13.29272-197.51788 37.35564-44.64152 14.85148-89.32532 33.82316-129.5182 56.36484-38.09904 21.36764-71.80264 45.74108-97.65532 72.57656C39.02404 221.87412 20 260.26856 20 300c0 39.73144 19.02404 78.12588 53.29856 113.70296 25.85268 26.83548 59.55628 51.20892 97.65532 72.57656 40.19288 22.54168 84.87668 41.51336 129.5182 56.36484C372.80168 566.70728 445.16432 580 497.98996 580c25.19132 0 46.23892-3.02204 60.69644-9.54072C571.78004 564.55548 580 555.5434 580 542.487c0-13.84964-9.24364-29.5092-20.81912-43.88524-19.04-23.64684-49.40712-50.04804-84.15876-76.77236C424.69996 383.13172 362.2314 341.4876 300 300c-62.2314-41.4876-124.69996-83.13172-175.02212-121.8294-34.75164-26.72432-65.11876-53.12552-84.15876-76.77236C29.24364 87.0222 20 71.36264 20 57.513c0-13.0564 8.21996-22.06848 21.3136-27.97228C55.77112 23.02204 76.81872 20 102.01004 20c52.82564 0 125.18828 13.29272 197.51788 37.35564 44.64152 14.85148 89.32532 33.82316 129.5182 56.36484 38.09904 21.36764 71.80264 45.74108 97.65532 72.57656C560.97596 221.87412 580 260.26856 580 300c0 39.73144-19.02404 78.12588-53.29856 113.70296-25.85268 26.83548-59.55628 51.20892-97.65532 72.57656-40.19288 22.54168-84.87668 41.51336-129.5182 56.36484C227.19832 566.70728 154.83568 580 102.01004 580c-25.19132 0-46.23892-3.02204-60.69644-9.54072C28.21996 564.55548 20 555.5434 20 542.487c0-13.84964 9.24364-29.5092 20.81912-43.88524 19.04-23.64684 49.40712-50.04804 84.15876-76.77236C175.30004 383.13172 237.7686 341.4876 300 300Z"/>
</svg>