<?xml version="1.0" encoding="utf-8"?>
<!DOCTYPE svg PUBLIC "-//W3C//DTD SVG 1.1//EN" "http://www.w3.org/Graphics/SVG/1.1/DTD/svg11.dtd">
<svg version="1.1" id="Layer_1" xmlns="http://www.w3.org/2000/svg" xmlns:xlink="http://www.w3.org/1999/xlink" width="755" height="664" viewBox="69 96 755 664">
<rect fill="#0f172a" x="69" y="96" width="755" height="664"/>
<g>
	<path fill-rule="evenodd" clip-rule="evenodd" d="M743.984,167.927c13.122,18.368,22.742,37.946,32,58
		c12.992,28.143,37.162,84.728,9,115c-20.319,21.841-61.171,25.408-85,46c-11.642,10.06-34.298,49.465-17,70
		c13.084,15.532,43.948,12.896,61,24c6.65,4.331,11.668,9.856,15,16c13.258,24.449,0.449,60.78,9,93c-0.646,4.021-7.312-1.569-12,0
		c-8.235,23.193-15.302,45.142-33,61c-25.987,23.286-78.21,19.813-126,24c-24.542,2.15-43.689,7.08-62,13
		c-25.158,8.134-60.293,18.845-86,6c-12.851,9.536-23.026,18.46-38,29c-8.364,5.888-31.992,25.219-47,15
		c-6.632-4.516-5.41-21.016-9-29c-12.117-26.951-58.895-13.565-83-4c-13.278,5.27-25.331,14.125-39,14
		c0.655-11.647,11.075-12.512,11-25c-0.141-23.392-46.115-36.627-71-43c-10.656-2.729-24.059-7.334-31-7
		c-6.369,0.307-16.973,8.557-19-3c-1.349-7.688,6.487-10.299,10-12c7.145-88.5,13.985-171.777,42-237
		c28.021-65.237,72.951-113.282,124-154c-0.187-4.841-6.476-8.821-5-12c7.786-3.724,20.456-4.244,30-8
		c9.151-3.602,16.614-11.04,25-16c57.85-34.217,132.041-57.957,219-63c40.624-2.356,88.124,0.145,125,7
		c11.784,2.19,23.896,7.792,35,8c3.558,0.066,4.361-1.373,8-2C744.496,150.46,750.746,158.2,743.984,167.927z M181.984,387.927
		c-27.47,61.098-37.156,136.214-42,222c32.904-75.73,80.882-145.396,142-198c20.636-17.761,46.23-36.734,78-37
		c64.131-0.536,85.525,57.979,158,45c2.849-2.793-4.581-7.621-1-11c10.25-1.923,24.125,0.278,35-3c9.072-2.735,21.235-14.207,31-22
		c60.231-48.069,107.768-108.109,137-184c4.924-12.783,12.251-26.053,10-40c-65.81-17.815-147.468-23.339-220-11
		c-48.799,8.302-98.545,25.482-137,46c-13.651,7.284-29.117,13.719-39,22c-10.763,9.017-18.014,23.597-29,31
		c-1.827-1.769-2.081-8.419-5-6C252.793,282.177,209.442,326.856,181.984,387.927z M203.984,655.927
		c19.366,7.116,44.869,17.296,45,38c0.057,8.99-6.482,14.23-8,20c26.278-12.085,101.182-48.832,119-6c3.391,8.152,1.624,20.059,8,27
		c33.917-1.853,53.542-26.383,75-44c-22.262-9.717-33.175-38.769-31-67c4.493-58.318,55.636-88.144,96-110
		c11.56-6.259,24.379-11.893,41-18c14.688-5.397,39.273-11.896,46-1c11.5,18.63-16.111,51.588-22,60
		c-33.319,47.6-70.309,88.647-111,126c-3.352,3.076-10.276,7.109-8,10c30.384,10.154,57.028-0.717,84-9
		c16.664-5.118,33.689-8.712,53-11c39.962-4.735,88.045-0.755,115-14c26.235-12.892,36.225-41.228,45-68
		c-1.35-2.316-7.521,0.188-8-3c5.921-15.682,13.843-22.064,17-35c4.992-20.454,0.965-41.508-6-53
		c-20.008-33.016-87.331-11.397-81-68c4.256-38.048,30.048-53.196,60-66c29.44-12.585,60.203-22.667,61-60
		c0.836-39.161-22.735-79.581-38-107c-5.876-10.555-10.179-23.145-20-29c-18.247,61.057-46.881,111.832-83,155
		c-36.395,43.497-81.84,77.126-129,110c-2.184-2.483-0.831-8.503-5-9c-69.079,13.861-96.17-39.865-152-44
		c-40.64-3.01-65.922,22.042-89,43c-53.608,48.685-93.947,102.826-125,172c-6.01,13.388-15.946,27.354-13,43
		C157.822,642.845,181.629,647.712,203.984,655.927z M536.984,504.927c-13.366,5.605-24.723,12.49-36,19
		c-22.908,13.223-48.898,28.755-63,46c-24.036,29.394-33.806,95.851,7,118c16.462-10.941,30.217-25.938,44-40
		c28.59-29.169,54.158-58.774,78-92c11.523-16.059,26.364-34.762,25-58C576.484,487.988,554.329,497.654,536.984,504.927z"/>
</g>
<g>
	<path fill="#f1f5f9" d="M106.953,681.88H95.727l-1.336,3.094c-0.438,1.031-0.656,1.883-0.656,2.555
		c0,0.891,0.359,1.547,1.078,1.969c0.422,0.25,1.461,0.438,3.117,0.563v0.867h-10.57v-0.867c1.141-0.172,2.078-0.645,2.813-1.418
		s1.641-2.371,2.719-4.793l11.367-25.359h0.445l11.461,26.063c1.094,2.469,1.992,4.023,2.695,4.664
		c0.531,0.484,1.281,0.766,2.25,0.844v0.867h-15.375v-0.867h0.633c1.234,0,2.102-0.172,2.602-0.516
		c0.344-0.25,0.516-0.609,0.516-1.078c0-0.281-0.047-0.57-0.141-0.867c-0.031-0.141-0.266-0.727-0.703-1.758L106.953,681.88z
		 M106.156,680.146l-4.734-10.945l-4.875,10.945H106.156z"/>
</g>
<g>
	<path fill="#f1f5f9" d="M787.336,132.076c3.016,0.703,5.133,1.555,6.352,2.555c1.75,1.422,2.625,3.266,2.625,5.531
		c0,2.391-0.961,4.367-2.883,5.93c-2.359,1.891-5.789,2.836-10.289,2.836h-16.148v-0.867c1.469,0,2.465-0.137,2.988-0.41
		s0.891-0.629,1.102-1.066s0.316-1.516,0.316-3.234v-20.625c0-1.719-0.105-2.801-0.316-3.246s-0.582-0.801-1.113-1.066
		s-1.523-0.398-2.977-0.398v-0.867h15.234c3.641,0,6.219,0.324,7.734,0.973s2.711,1.617,3.586,2.906s1.313,2.66,1.313,4.113
		c0,1.531-0.555,2.895-1.664,4.09S790.133,131.373,787.336,132.076z M778.805,133.271v10.195l-0.023,1.172
		c0,0.844,0.215,1.48,0.645,1.91s1.066,0.645,1.91,0.645c1.25,0,2.402-0.277,3.457-0.832s1.863-1.359,2.426-2.414
		s0.844-2.23,0.844-3.527c0-1.484-0.344-2.816-1.031-3.996s-1.633-2.004-2.836-2.473S781.195,133.255,778.805,133.271z
		 M778.805,131.443c2.219,0,3.855-0.25,4.91-0.75s1.863-1.203,2.426-2.109s0.844-2.063,0.844-3.469s-0.277-2.559-0.832-3.457
		s-1.348-1.582-2.379-2.051s-2.688-0.695-4.969-0.68V131.443z"/>
</g>
</svg>