<?xml version="1.0" encoding="utf-8" standalone="no"?>
<!DOCTYPE svg PUBLIC "-//W3C//DTD SVG 1.1//EN"
  "http://www.w3.org/Graphics/SVG/1.1/DTD/svg11.dtd">
<svg xmlns:xlink="http://www.w3.org/1999/xlink" width="569.114346pt" height="511.003001pt" viewBox="0 0 569.114346 511.003001" xmlns="http://www.w3.org/2000/svg" version="1.1">
 <metadata>
  <rdf:RDF xmlns:dc="http://purl.org/dc/elements/1.1/" xmlns:cc="http://creativecommons.org/ns#" xmlns:rdf="http://www.w3.org/1999/02/22-rdf-syntax-ns#">
   <cc:Work>
    <dc:type rdf:resource="http://purl.org/dc/dcmitype/StillImage"/>
    <dc:date>2026-03-30T10:37:15.107198</dc:date>
    <dc:format>image/svg+xml</dc:format>
    <dc:creator>
     <cc:Agent>
      <dc:title>Matplotlib v3.10.8, https://matplotlib.org/</dc:title>
     </cc:Agent>
    </dc:creator>
   </cc:Work>
  </rdf:RDF>
 </metadata>
 <defs>
  <style type="text/css">*{stroke-linejoin: round; stroke-linecap: butt}</style>
 </defs>
 <g id="figure_1">
  <g id="patch_1">
   <path d="M 0 511.003001 
L 569.114346 511.003001 
L 569.114346 0 
L 0 0 
z
" style="fill: #0a0a14"/>
  </g>
  <g id="axes_1">
   <g id="line2d_1">
    <path d="M 284.557173 100.213566 
L 66.63368 417.193192 
" clip-path="url(#p7b8c2f280c)" style="fill: none; stroke-dasharray: 4.44,1.92; stroke-dashoffset: 0; stroke: #4b5563; stroke-width: 1.2"/>
   </g>
   <g id="line2d_2">
    <path d="M 284.557173 100.213566 
L 502.480666 417.193192 
" clip-path="url(#p7b8c2f280c)" style="fill: none; stroke-dasharray: 4.44,1.92; stroke-dashoffset: 0; stroke: #4b5563; stroke-width: 1.2"/>
   </g>
   <g id="line2d_3">
    <path d="M 66.63368 417.193192 
L 502.480666 417.193192 
" clip-path="url(#p7b8c2f280c)" style="fill: none; stroke-dasharray: 4.44,1.92; stroke-dashoffset: 0; stroke: #4b5563; stroke-width: 1.2"/>
   </g>
   <g id="patch_2">
    <path d="M 284.557173 151.722755 
C 298.21757 151.722755 311.320311 146.295422 320.97967 136.636063 
C 330.639029 126.976704 336.066362 113.873963 336.066362 100.213566 
C 336.066362 86.553169 330.639029 73.450428 320.97967 63.791069 
C 311.320311 54.13171 298.21757 48.704377 284.557173 48.704377 
C 270.896776 48.704377 257.794035 54.13171 248.134676 63.791069 
C 238.475317 73.450428 233.047984 86.553169 233.047984 100.213566 
C 233.047984 113.873963 238.475317 126.976704 248.134676 136.636063 
C 257.794035 146.295422 270.896776 151.722755 284.557173 151.722755 
z
" clip-path="url(#p7b8c2f280c)" style="fill: #22d3ee; opacity: 0.06"/>
   </g>
   <g id="patch_3">
    <path d="M 66.63368 468.702382 
C 80.294077 468.702382 93.396818 463.275049 103.056177 453.615689 
C 112.715536 443.95633 118.142869 430.853589 118.142869 417.193192 
C 118.142869 403.532796 112.715536 390.430054 103.056177 380.770695 
C 93.396818 371.111336 80.294077 365.684003 66.63368 365.684003 
C 52.973283 365.684003 39.870542 371.111336 30.211183 380.770695 
C 20.551824 390.430054 15.124491 403.532796 15.124491 417.193192 
C 15.124491 430.853589 20.551824 443.95633 30.211183 453.615689 
C 39.870542 463.275049 52.973283 468.702382 66.63368 468.702382 
z
" clip-path="url(#p7b8c2f280c)" style="fill: #a78bfa; opacity: 0.06"/>
   </g>
   <g id="patch_4">
    <path d="M 502.480666 468.702382 
C 516.141063 468.702382 529.243804 463.275049 538.903163 453.615689 
C 548.562522 443.95633 553.989856 430.853589 553.989856 417.193192 
C 553.989856 403.532796 548.562522 390.430054 538.903163 380.770695 
C 529.243804 371.111336 516.141063 365.684003 502.480666 365.684003 
C 488.82027 365.684003 475.717528 371.111336 466.058169 380.770695 
C 456.39881 390.430054 450.971477 403.532796 450.971477 417.193192 
C 450.971477 430.853589 456.39881 443.95633 466.058169 453.615689 
C 475.717528 463.275049 488.82027 468.702382 502.480666 468.702382 
z
" clip-path="url(#p7b8c2f280c)" style="fill: #f59e0b; opacity: 0.06"/>
   </g>
   <g id="text_1">
    <!-- Umgruppieren -->
    <g style="fill: #4b5563" transform="translate(110.6873 238.14834) scale(0.07 -0.07)">
     <defs>
      <path id="DejaVuSans-Oblique-55" d="M 991 4666 
L 1625 4666 
L 1075 1831 
Q 1041 1641 1027 1517 
Q 1013 1394 1013 1300 
Q 1013 869 1253 645 
Q 1494 422 1959 422 
Q 2563 422 2898 753 
Q 3234 1084 3378 1831 
L 3928 4666 
L 4563 4666 
L 4000 1753 
Q 3816 809 3300 359 
Q 2784 -91 1888 -91 
Q 1188 -91 780 261 
Q 372 613 372 1216 
Q 372 1325 387 1461 
Q 403 1597 434 1753 
L 991 4666 
z
" transform="scale(0.015625)"/>
      <path id="DejaVuSans-Oblique-6d" d="M 5747 2113 
L 5338 0 
L 4763 0 
L 5166 2094 
Q 5191 2228 5203 2325 
Q 5216 2422 5216 2491 
Q 5216 2772 5059 2928 
Q 4903 3084 4622 3084 
Q 4203 3084 3875 2770 
Q 3547 2456 3450 1953 
L 3066 0 
L 2491 0 
L 2900 2094 
Q 2925 2209 2937 2307 
Q 2950 2406 2950 2484 
Q 2950 2769 2794 2926 
Q 2638 3084 2363 3084 
Q 1938 3084 1609 2770 
Q 1281 2456 1184 1953 
L 800 0 
L 225 0 
L 909 3500 
L 1484 3500 
L 1375 2956 
Q 1609 3263 1923 3423 
Q 2238 3584 2597 3584 
Q 2978 3584 3223 3384 
Q 3469 3184 3519 2828 
Q 3781 3197 4126 3390 
Q 4472 3584 4856 3584 
Q 5306 3584 5551 3325 
Q 5797 3066 5797 2591 
Q 5797 2488 5784 2364 
Q 5772 2241 5747 2113 
z
" transform="scale(0.015625)"/>
      <path id="DejaVuSans-Oblique-67" d="M 3816 3500 
L 3219 434 
Q 3047 -456 2561 -893 
Q 2075 -1331 1253 -1331 
Q 950 -1331 690 -1286 
Q 431 -1241 206 -1147 
L 313 -588 
Q 525 -725 762 -790 
Q 1000 -856 1269 -856 
Q 1816 -856 2167 -557 
Q 2519 -259 2631 300 
L 2681 563 
Q 2441 288 2122 144 
Q 1803 0 1434 0 
Q 903 0 598 351 
Q 294 703 294 1319 
Q 294 1803 478 2267 
Q 663 2731 997 3091 
Q 1219 3328 1514 3456 
Q 1809 3584 2131 3584 
Q 2484 3584 2746 3420 
Q 3009 3256 3138 2956 
L 3238 3500 
L 3816 3500 
z
M 2950 2216 
Q 2950 2641 2750 2872 
Q 2550 3103 2181 3103 
Q 1953 3103 1747 3012 
Q 1541 2922 1394 2759 
Q 1156 2491 1023 2127 
Q 891 1763 891 1375 
Q 891 944 1092 712 
Q 1294 481 1672 481 
Q 2219 481 2584 976 
Q 2950 1472 2950 2216 
z
" transform="scale(0.015625)"/>
      <path id="DejaVuSans-Oblique-72" d="M 2853 2969 
Q 2766 3016 2653 3041 
Q 2541 3066 2413 3066 
Q 1953 3066 1609 2717 
Q 1266 2369 1153 1784 
L 800 0 
L 225 0 
L 909 3500 
L 1484 3500 
L 1375 2956 
Q 1603 3259 1920 3421 
Q 2238 3584 2597 3584 
Q 2691 3584 2781 3573 
Q 2872 3563 2963 3538 
L 2853 2969 
z
" transform="scale(0.015625)"/>
      <path id="DejaVuSans-Oblique-75" d="M 428 1388 
L 838 3500 
L 1416 3500 
L 1006 1409 
Q 975 1256 961 1147 
Q 947 1038 947 966 
Q 947 700 1109 554 
Q 1272 409 1569 409 
Q 2031 409 2368 721 
Q 2706 1034 2809 1563 
L 3194 3500 
L 3769 3500 
L 3091 0 
L 2516 0 
L 2631 550 
Q 2388 244 2052 76 
Q 1716 -91 1338 -91 
Q 878 -91 622 161 
Q 366 413 366 863 
Q 366 956 381 1097 
Q 397 1238 428 1388 
z
" transform="scale(0.015625)"/>
      <path id="DejaVuSans-Oblique-70" d="M 3175 2156 
Q 3175 2616 2975 2859 
Q 2775 3103 2400 3103 
Q 2144 3103 1911 2972 
Q 1678 2841 1497 2591 
Q 1319 2344 1212 1994 
Q 1106 1644 1106 1300 
Q 1106 863 1306 627 
Q 1506 391 1875 391 
Q 2147 391 2380 519 
Q 2613 647 2778 891 
Q 2956 1147 3065 1494 
Q 3175 1841 3175 2156 
z
M 1394 2969 
Q 1625 3272 1939 3428 
Q 2253 3584 2638 3584 
Q 3175 3584 3472 3232 
Q 3769 2881 3769 2247 
Q 3769 1728 3584 1258 
Q 3400 788 3053 416 
Q 2822 169 2531 39 
Q 2241 -91 1919 -91 
Q 1547 -91 1294 64 
Q 1041 219 916 525 
L 556 -1331 
L -19 -1331 
L 922 3500 
L 1497 3500 
L 1394 2969 
z
" transform="scale(0.015625)"/>
      <path id="DejaVuSans-Oblique-69" d="M 1172 4863 
L 1747 4863 
L 1606 4134 
L 1031 4134 
L 1172 4863 
z
M 909 3500 
L 1484 3500 
L 800 0 
L 225 0 
L 909 3500 
z
" transform="scale(0.015625)"/>
      <path id="DejaVuSans-Oblique-65" d="M 3078 2063 
Q 3088 2113 3092 2166 
Q 3097 2219 3097 2272 
Q 3097 2653 2873 2875 
Q 2650 3097 2266 3097 
Q 1838 3097 1509 2826 
Q 1181 2556 1013 2059 
L 3078 2063 
z
M 3578 1613 
L 903 1613 
Q 884 1494 878 1425 
Q 872 1356 872 1306 
Q 872 872 1139 634 
Q 1406 397 1894 397 
Q 2269 397 2603 481 
Q 2938 566 3225 728 
L 3116 159 
Q 2806 34 2476 -28 
Q 2147 -91 1806 -91 
Q 1078 -91 686 257 
Q 294 606 294 1247 
Q 294 1794 489 2264 
Q 684 2734 1063 3103 
Q 1306 3334 1642 3459 
Q 1978 3584 2356 3584 
Q 2950 3584 3301 3228 
Q 3653 2872 3653 2272 
Q 3653 2128 3634 1964 
Q 3616 1800 3578 1613 
z
" transform="scale(0.015625)"/>
      <path id="DejaVuSans-Oblique-6e" d="M 3566 2113 
L 3156 0 
L 2578 0 
L 2988 2091 
Q 3016 2238 3031 2350 
Q 3047 2463 3047 2528 
Q 3047 2791 2881 2937 
Q 2716 3084 2419 3084 
Q 1956 3084 1622 2776 
Q 1288 2469 1184 1941 
L 800 0 
L 225 0 
L 903 3500 
L 1478 3500 
L 1363 2950 
Q 1603 3253 1940 3418 
Q 2278 3584 2650 3584 
Q 3113 3584 3367 3334 
Q 3622 3084 3622 2631 
Q 3622 2519 3608 2391 
Q 3594 2263 3566 2113 
z
" transform="scale(0.015625)"/>
     </defs>
     <use xlink:href="#DejaVuSans-Oblique-55"/>
     <use xlink:href="#DejaVuSans-Oblique-6d" transform="translate(73.193359 0)"/>
     <use xlink:href="#DejaVuSans-Oblique-67" transform="translate(170.605469 0)"/>
     <use xlink:href="#DejaVuSans-Oblique-72" transform="translate(234.082031 0)"/>
     <use xlink:href="#DejaVuSans-Oblique-75" transform="translate(275.195312 0)"/>
     <use xlink:href="#DejaVuSans-Oblique-70" transform="translate(338.574219 0)"/>
     <use xlink:href="#DejaVuSans-Oblique-70" transform="translate(402.050781 0)"/>
     <use xlink:href="#DejaVuSans-Oblique-69" transform="translate(465.527344 0)"/>
     <use xlink:href="#DejaVuSans-Oblique-65" transform="translate(493.310547 0)"/>
     <use xlink:href="#DejaVuSans-Oblique-72" transform="translate(554.833984 0)"/>
     <use xlink:href="#DejaVuSans-Oblique-65" transform="translate(595.947266 0)"/>
     <use xlink:href="#DejaVuSans-Oblique-6e" transform="translate(657.470703 0)"/>
    </g>
    <!-- der Pfade -->
    <g style="fill: #4b5563" transform="translate(119.127769 247.05059) scale(0.07 -0.07)">
     <defs>
      <path id="DejaVuSans-Oblique-64" d="M 2675 525 
Q 2444 222 2128 65 
Q 1813 -91 1428 -91 
Q 903 -91 598 267 
Q 294 625 294 1247 
Q 294 1766 478 2236 
Q 663 2706 1013 3078 
Q 1244 3325 1534 3454 
Q 1825 3584 2144 3584 
Q 2481 3584 2739 3421 
Q 2997 3259 3138 2956 
L 3513 4863 
L 4091 4863 
L 3144 0 
L 2566 0 
L 2675 525 
z
M 891 1350 
Q 891 897 1095 644 
Q 1300 391 1663 391 
Q 1931 391 2161 520 
Q 2391 650 2566 903 
Q 2750 1166 2856 1509 
Q 2963 1853 2963 2188 
Q 2963 2622 2758 2865 
Q 2553 3109 2194 3109 
Q 1922 3109 1687 2981 
Q 1453 2853 1288 2613 
Q 1106 2353 998 2009 
Q 891 1666 891 1350 
z
" transform="scale(0.015625)"/>
      <path id="DejaVuSans-Oblique-20" transform="scale(0.015625)"/>
      <path id="DejaVuSans-Oblique-50" d="M 1081 4666 
L 2541 4666 
Q 3178 4666 3512 4369 
Q 3847 4072 3847 3500 
Q 3847 2731 3353 2303 
Q 2859 1875 1966 1875 
L 1172 1875 
L 806 0 
L 172 0 
L 1081 4666 
z
M 1613 4147 
L 1275 2394 
L 2069 2394 
Q 2606 2394 2893 2669 
Q 3181 2944 3181 3456 
Q 3181 3784 2986 3965 
Q 2791 4147 2438 4147 
L 1613 4147 
z
" transform="scale(0.015625)"/>
      <path id="DejaVuSans-Oblique-66" d="M 3059 4863 
L 2969 4384 
L 2419 4384 
Q 2106 4384 1964 4261 
Q 1822 4138 1753 3809 
L 1691 3500 
L 2638 3500 
L 2553 3053 
L 1606 3053 
L 1013 0 
L 434 0 
L 1031 3053 
L 481 3053 
L 563 3500 
L 1113 3500 
L 1159 3744 
Q 1278 4363 1576 4613 
Q 1875 4863 2516 4863 
L 3059 4863 
z
" transform="scale(0.015625)"/>
      <path id="DejaVuSans-Oblique-61" d="M 3438 1997 
L 3047 0 
L 2472 0 
L 2578 531 
Q 2325 219 2001 64 
Q 1678 -91 1281 -91 
Q 834 -91 548 182 
Q 263 456 263 884 
Q 263 1497 752 1853 
Q 1241 2209 2100 2209 
L 2900 2209 
L 2931 2363 
Q 2938 2388 2941 2417 
Q 2944 2447 2944 2509 
Q 2944 2788 2717 2942 
Q 2491 3097 2081 3097 
Q 1800 3097 1504 3025 
Q 1209 2953 897 2809 
L 997 3341 
Q 1322 3463 1633 3523 
Q 1944 3584 2234 3584 
Q 2853 3584 3176 3315 
Q 3500 3047 3500 2534 
Q 3500 2431 3484 2292 
Q 3469 2153 3438 1997 
z
M 2816 1759 
L 2241 1759 
Q 1534 1759 1195 1570 
Q 856 1381 856 984 
Q 856 709 1029 553 
Q 1203 397 1509 397 
Q 1978 397 2328 733 
Q 2678 1069 2791 1631 
L 2816 1759 
z
" transform="scale(0.015625)"/>
     </defs>
     <use xlink:href="#DejaVuSans-Oblique-64"/>
     <use xlink:href="#DejaVuSans-Oblique-65" transform="translate(63.476562 0)"/>
     <use xlink:href="#DejaVuSans-Oblique-72" transform="translate(125 0)"/>
     <use xlink:href="#DejaVuSans-Oblique-20" transform="translate(166.113281 0)"/>
     <use xlink:href="#DejaVuSans-Oblique-50" transform="translate(197.900391 0)"/>
     <use xlink:href="#DejaVuSans-Oblique-66" transform="translate(258.203125 0)"/>
     <use xlink:href="#DejaVuSans-Oblique-61" transform="translate(293.408203 0)"/>
     <use xlink:href="#DejaVuSans-Oblique-64" transform="translate(354.6875 0)"/>
     <use xlink:href="#DejaVuSans-Oblique-65" transform="translate(418.164062 0)"/>
    </g>
   </g>
   <g id="text_2">
    <!-- Fourier-Zerlegung -->
    <g style="fill: #4b5563" transform="translate(401.75439 238.14834) scale(0.07 -0.07)">
     <defs>
      <path id="DejaVuSans-Oblique-46" d="M 1081 4666 
L 3756 4666 
L 3653 4134 
L 1606 4134 
L 1338 2759 
L 3188 2759 
L 3084 2228 
L 1234 2228 
L 800 0 
L 172 0 
L 1081 4666 
z
" transform="scale(0.015625)"/>
      <path id="DejaVuSans-Oblique-6f" d="M 1625 -91 
Q 1009 -91 651 289 
Q 294 669 294 1325 
Q 294 1706 417 2101 
Q 541 2497 738 2766 
Q 1047 3184 1428 3384 
Q 1809 3584 2291 3584 
Q 2888 3584 3255 3212 
Q 3622 2841 3622 2241 
Q 3622 1825 3500 1412 
Q 3378 1000 3181 728 
Q 2875 309 2494 109 
Q 2113 -91 1625 -91 
z
M 891 1344 
Q 891 869 1089 633 
Q 1288 397 1691 397 
Q 2269 397 2648 901 
Q 3028 1406 3028 2181 
Q 3028 2634 2825 2865 
Q 2622 3097 2228 3097 
Q 1903 3097 1650 2945 
Q 1397 2794 1197 2484 
Q 1050 2253 970 1956 
Q 891 1659 891 1344 
z
" transform="scale(0.015625)"/>
      <path id="DejaVuSans-Oblique-2d" d="M 391 2009 
L 2075 2009 
L 1978 1497 
L 288 1497 
L 391 2009 
z
" transform="scale(0.015625)"/>
      <path id="DejaVuSans-Oblique-5a" d="M 838 4666 
L 4500 4666 
L 4409 4184 
L 794 531 
L 3769 531 
L 3669 0 
L -141 0 
L -50 481 
L 3566 4134 
L 738 4134 
L 838 4666 
z
" transform="scale(0.015625)"/>
      <path id="DejaVuSans-Oblique-6c" d="M 1172 4863 
L 1747 4863 
L 800 0 
L 225 0 
L 1172 4863 
z
" transform="scale(0.015625)"/>
     </defs>
     <use xlink:href="#DejaVuSans-Oblique-46"/>
     <use xlink:href="#DejaVuSans-Oblique-6f" transform="translate(57.519531 0)"/>
     <use xlink:href="#DejaVuSans-Oblique-75" transform="translate(118.701172 0)"/>
     <use xlink:href="#DejaVuSans-Oblique-72" transform="translate(182.080078 0)"/>
     <use xlink:href="#DejaVuSans-Oblique-69" transform="translate(223.193359 0)"/>
     <use xlink:href="#DejaVuSans-Oblique-65" transform="translate(250.976562 0)"/>
     <use xlink:href="#DejaVuSans-Oblique-72" transform="translate(312.5 0)"/>
     <use xlink:href="#DejaVuSans-Oblique-2d" transform="translate(348.113281 0)"/>
     <use xlink:href="#DejaVuSans-Oblique-5a" transform="translate(384.197266 0)"/>
     <use xlink:href="#DejaVuSans-Oblique-65" transform="translate(452.703125 0)"/>
     <use xlink:href="#DejaVuSans-Oblique-72" transform="translate(514.226562 0)"/>
     <use xlink:href="#DejaVuSans-Oblique-6c" transform="translate(555.339844 0)"/>
     <use xlink:href="#DejaVuSans-Oblique-65" transform="translate(583.123047 0)"/>
     <use xlink:href="#DejaVuSans-Oblique-67" transform="translate(644.646484 0)"/>
     <use xlink:href="#DejaVuSans-Oblique-75" transform="translate(708.123047 0)"/>
     <use xlink:href="#DejaVuSans-Oblique-6e" transform="translate(771.501953 0)"/>
     <use xlink:href="#DejaVuSans-Oblique-67" transform="translate(834.880859 0)"/>
    </g>
    <!-- des Propagators -->
    <g style="fill: #4b5563" transform="translate(404.68564 247.05059) scale(0.07 -0.07)">
     <defs>
      <path id="DejaVuSans-Oblique-73" d="M 3200 3397 
L 3091 2853 
Q 2863 2978 2609 3040 
Q 2356 3103 2088 3103 
Q 1634 3103 1373 2948 
Q 1113 2794 1113 2528 
Q 1113 2219 1719 2053 
Q 1766 2041 1788 2034 
L 1972 1978 
Q 2547 1819 2739 1644 
Q 2931 1469 2931 1166 
Q 2931 609 2489 259 
Q 2047 -91 1331 -91 
Q 1053 -91 747 -37 
Q 441 16 72 128 
L 184 722 
Q 500 559 806 475 
Q 1113 391 1394 391 
Q 1816 391 2080 572 
Q 2344 753 2344 1031 
Q 2344 1331 1650 1516 
L 1591 1531 
L 1394 1581 
Q 956 1697 753 1886 
Q 550 2075 550 2369 
Q 550 2928 970 3256 
Q 1391 3584 2113 3584 
Q 2397 3584 2667 3537 
Q 2938 3491 3200 3397 
z
" transform="scale(0.015625)"/>
      <path id="DejaVuSans-Oblique-74" d="M 2706 3500 
L 2619 3053 
L 1472 3053 
L 1100 1153 
Q 1081 1047 1072 975 
Q 1063 903 1063 863 
Q 1063 663 1183 572 
Q 1303 481 1569 481 
L 2150 481 
L 2053 0 
L 1503 0 
Q 991 0 739 200 
Q 488 400 488 806 
Q 488 878 497 964 
Q 506 1050 525 1153 
L 897 3053 
L 409 3053 
L 500 3500 
L 978 3500 
L 1172 4494 
L 1747 4494 
L 1556 3500 
L 2706 3500 
z
" transform="scale(0.015625)"/>
     </defs>
     <use xlink:href="#DejaVuSans-Oblique-64"/>
     <use xlink:href="#DejaVuSans-Oblique-65" transform="translate(63.476562 0)"/>
     <use xlink:href="#DejaVuSans-Oblique-73" transform="translate(125 0)"/>
     <use xlink:href="#DejaVuSans-Oblique-20" transform="translate(177.099609 0)"/>
     <use xlink:href="#DejaVuSans-Oblique-50" transform="translate(208.886719 0)"/>
     <use xlink:href="#DejaVuSans-Oblique-72" transform="translate(269.189453 0)"/>
     <use xlink:href="#DejaVuSans-Oblique-6f" transform="translate(310.302734 0)"/>
     <use xlink:href="#DejaVuSans-Oblique-70" transform="translate(371.484375 0)"/>
     <use xlink:href="#DejaVuSans-Oblique-61" transform="translate(434.960938 0)"/>
     <use xlink:href="#DejaVuSans-Oblique-67" transform="translate(496.240234 0)"/>
     <use xlink:href="#DejaVuSans-Oblique-61" transform="translate(559.716797 0)"/>
     <use xlink:href="#DejaVuSans-Oblique-74" transform="translate(620.996094 0)"/>
     <use xlink:href="#DejaVuSans-Oblique-6f" transform="translate(660.205078 0)"/>
     <use xlink:href="#DejaVuSans-Oblique-72" transform="translate(721.386719 0)"/>
     <use xlink:href="#DejaVuSans-Oblique-73" transform="translate(762.5 0)"/>
    </g>
   </g>
   <g id="text_3">
    <!-- Eigenfrequenzen -->
    <g style="fill: #4b5563" transform="translate(254.934595 458.258329) scale(0.07 -0.07)">
     <defs>
      <path id="DejaVuSans-Oblique-45" d="M 1081 4666 
L 4031 4666 
L 3928 4134 
L 1606 4134 
L 1338 2753 
L 3566 2753 
L 3463 2222 
L 1234 2222 
L 909 531 
L 3284 531 
L 3181 0 
L 172 0 
L 1081 4666 
z
" transform="scale(0.015625)"/>
      <path id="DejaVuSans-Oblique-71" d="M 2669 525 
Q 2438 222 2123 65 
Q 1809 -91 1428 -91 
Q 897 -91 595 267 
Q 294 625 294 1253 
Q 294 1759 480 2231 
Q 666 2703 1013 3078 
Q 1238 3322 1530 3453 
Q 1822 3584 2144 3584 
Q 2531 3584 2781 3431 
Q 3031 3278 3144 2969 
L 3244 3494 
L 3822 3494 
L 2888 -1319 
L 2309 -1319 
L 2669 525 
z
M 891 1338 
Q 891 875 1084 633 
Q 1278 391 1644 391 
Q 2188 391 2572 911 
Q 2956 1431 2956 2175 
Q 2956 2625 2757 2864 
Q 2559 3103 2188 3103 
Q 1916 3103 1684 2976 
Q 1453 2850 1281 2606 
Q 1100 2350 995 2006 
Q 891 1663 891 1338 
z
" transform="scale(0.015625)"/>
      <path id="DejaVuSans-Oblique-7a" d="M 744 3500 
L 3475 3500 
L 3372 2975 
L 738 459 
L 2913 459 
L 2822 0 
L -19 0 
L 84 525 
L 2719 3041 
L 653 3041 
L 744 3500 
z
" transform="scale(0.015625)"/>
     </defs>
     <use xlink:href="#DejaVuSans-Oblique-45"/>
     <use xlink:href="#DejaVuSans-Oblique-69" transform="translate(63.183594 0)"/>
     <use xlink:href="#DejaVuSans-Oblique-67" transform="translate(90.966797 0)"/>
     <use xlink:href="#DejaVuSans-Oblique-65" transform="translate(154.443359 0)"/>
     <use xlink:href="#DejaVuSans-Oblique-6e" transform="translate(215.966797 0)"/>
     <use xlink:href="#DejaVuSans-Oblique-66" transform="translate(279.345703 0)"/>
     <use xlink:href="#DejaVuSans-Oblique-72" transform="translate(314.550781 0)"/>
     <use xlink:href="#DejaVuSans-Oblique-65" transform="translate(355.664062 0)"/>
     <use xlink:href="#DejaVuSans-Oblique-71" transform="translate(417.1875 0)"/>
     <use xlink:href="#DejaVuSans-Oblique-75" transform="translate(480.664062 0)"/>
     <use xlink:href="#DejaVuSans-Oblique-65" transform="translate(544.042969 0)"/>
     <use xlink:href="#DejaVuSans-Oblique-6e" transform="translate(605.566406 0)"/>
     <use xlink:href="#DejaVuSans-Oblique-7a" transform="translate(668.945312 0)"/>
     <use xlink:href="#DejaVuSans-Oblique-65" transform="translate(721.435547 0)"/>
     <use xlink:href="#DejaVuSans-Oblique-6e" transform="translate(782.958984 0)"/>
    </g>
    <!-- = Fourier-Peaks -->
    <g style="fill: #4b5563" transform="translate(256.806548 467.160579) scale(0.07 -0.07)">
     <defs>
      <path id="DejaVuSans-Oblique-3d" d="M 678 2906 
L 4684 2906 
L 4684 2381 
L 678 2381 
L 678 2906 
z
M 678 1631 
L 4684 1631 
L 4684 1100 
L 678 1100 
L 678 1631 
z
" transform="scale(0.015625)"/>
      <path id="DejaVuSans-Oblique-6b" d="M 1172 4863 
L 1747 4863 
L 1197 2028 
L 3169 3500 
L 3916 3500 
L 1716 1825 
L 3322 0 
L 2625 0 
L 1131 1709 
L 800 0 
L 225 0 
L 1172 4863 
z
" transform="scale(0.015625)"/>
     </defs>
     <use xlink:href="#DejaVuSans-Oblique-3d"/>
     <use xlink:href="#DejaVuSans-Oblique-20" transform="translate(83.789062 0)"/>
     <use xlink:href="#DejaVuSans-Oblique-46" transform="translate(115.576172 0)"/>
     <use xlink:href="#DejaVuSans-Oblique-6f" transform="translate(173.095703 0)"/>
     <use xlink:href="#DejaVuSans-Oblique-75" transform="translate(234.277344 0)"/>
     <use xlink:href="#DejaVuSans-Oblique-72" transform="translate(297.65625 0)"/>
     <use xlink:href="#DejaVuSans-Oblique-69" transform="translate(338.769531 0)"/>
     <use xlink:href="#DejaVuSans-Oblique-65" transform="translate(366.552734 0)"/>
     <use xlink:href="#DejaVuSans-Oblique-72" transform="translate(428.076172 0)"/>
     <use xlink:href="#DejaVuSans-Oblique-2d" transform="translate(463.689453 0)"/>
     <use xlink:href="#DejaVuSans-Oblique-50" transform="translate(499.773438 0)"/>
     <use xlink:href="#DejaVuSans-Oblique-65" transform="translate(560.076172 0)"/>
     <use xlink:href="#DejaVuSans-Oblique-61" transform="translate(621.599609 0)"/>
     <use xlink:href="#DejaVuSans-Oblique-6b" transform="translate(682.878906 0)"/>
     <use xlink:href="#DejaVuSans-Oblique-73" transform="translate(740.789062 0)"/>
    </g>
   </g>
   <g id="patch_5">
    <path d="M 284.557173 155.685001 
C 299.26837 155.685001 313.379014 149.84018 323.781401 139.437794 
C 334.183787 129.035407 340.028608 114.924762 340.028608 100.213566 
C 340.028608 85.50237 334.183787 71.391725 323.781401 60.989338 
C 313.379014 50.586952 299.26837 44.742131 284.557173 44.742131 
C 269.845977 44.742131 255.735332 50.586952 245.332946 60.989338 
C 234.930559 71.391725 229.085738 85.50237 229.085738 100.213566 
C 229.085738 114.924762 234.930559 129.035407 245.332946 139.437794 
C 255.735332 149.84018 269.845977 155.685001 284.557173 155.685001 
z
" clip-path="url(#p7b8c2f280c)" style="fill: #0a0a14; opacity: 0.9; stroke: #22d3ee; stroke-width: 2.5; stroke-linejoin: miter"/>
   </g>
   <g id="text_4">
    <!-- Pfadintegral -->
    <g style="fill: #22d3ee" transform="translate(253.074751 14.038594) scale(0.09 -0.09)">
     <defs>
      <path id="DejaVuSans-Bold-50" d="M 588 4666 
L 2584 4666 
Q 3475 4666 3951 4270 
Q 4428 3875 4428 3144 
Q 4428 2409 3951 2014 
Q 3475 1619 2584 1619 
L 1791 1619 
L 1791 0 
L 588 0 
L 588 4666 
z
M 1791 3794 
L 1791 2491 
L 2456 2491 
Q 2806 2491 2997 2661 
Q 3188 2831 3188 3144 
Q 3188 3456 2997 3625 
Q 2806 3794 2456 3794 
L 1791 3794 
z
" transform="scale(0.015625)"/>
      <path id="DejaVuSans-Bold-66" d="M 2841 4863 
L 2841 4128 
L 2222 4128 
Q 1984 4128 1890 4042 
Q 1797 3956 1797 3744 
L 1797 3500 
L 2753 3500 
L 2753 2700 
L 1797 2700 
L 1797 0 
L 678 0 
L 678 2700 
L 122 2700 
L 122 3500 
L 678 3500 
L 678 3744 
Q 678 4316 997 4589 
Q 1316 4863 1984 4863 
L 2841 4863 
z
" transform="scale(0.015625)"/>
      <path id="DejaVuSans-Bold-61" d="M 2106 1575 
Q 1756 1575 1579 1456 
Q 1403 1338 1403 1106 
Q 1403 894 1545 773 
Q 1688 653 1941 653 
Q 2256 653 2472 879 
Q 2688 1106 2688 1447 
L 2688 1575 
L 2106 1575 
z
M 3816 1997 
L 3816 0 
L 2688 0 
L 2688 519 
Q 2463 200 2181 54 
Q 1900 -91 1497 -91 
Q 953 -91 614 226 
Q 275 544 275 1050 
Q 275 1666 698 1953 
Q 1122 2241 2028 2241 
L 2688 2241 
L 2688 2328 
Q 2688 2594 2478 2717 
Q 2269 2841 1825 2841 
Q 1466 2841 1156 2769 
Q 847 2697 581 2553 
L 581 3406 
Q 941 3494 1303 3539 
Q 1666 3584 2028 3584 
Q 2975 3584 3395 3211 
Q 3816 2838 3816 1997 
z
" transform="scale(0.015625)"/>
      <path id="DejaVuSans-Bold-64" d="M 2919 2988 
L 2919 4863 
L 4044 4863 
L 4044 0 
L 2919 0 
L 2919 506 
Q 2688 197 2409 53 
Q 2131 -91 1766 -91 
Q 1119 -91 703 423 
Q 288 938 288 1747 
Q 288 2556 703 3070 
Q 1119 3584 1766 3584 
Q 2128 3584 2408 3439 
Q 2688 3294 2919 2988 
z
M 2181 722 
Q 2541 722 2730 984 
Q 2919 1247 2919 1747 
Q 2919 2247 2730 2509 
Q 2541 2772 2181 2772 
Q 1825 2772 1636 2509 
Q 1447 2247 1447 1747 
Q 1447 1247 1636 984 
Q 1825 722 2181 722 
z
" transform="scale(0.015625)"/>
      <path id="DejaVuSans-Bold-69" d="M 538 3500 
L 1656 3500 
L 1656 0 
L 538 0 
L 538 3500 
z
M 538 4863 
L 1656 4863 
L 1656 3950 
L 538 3950 
L 538 4863 
z
" transform="scale(0.015625)"/>
      <path id="DejaVuSans-Bold-6e" d="M 4056 2131 
L 4056 0 
L 2931 0 
L 2931 347 
L 2931 1631 
Q 2931 2084 2911 2256 
Q 2891 2428 2841 2509 
Q 2775 2619 2662 2680 
Q 2550 2741 2406 2741 
Q 2056 2741 1856 2470 
Q 1656 2200 1656 1722 
L 1656 0 
L 538 0 
L 538 3500 
L 1656 3500 
L 1656 2988 
Q 1909 3294 2193 3439 
Q 2478 3584 2822 3584 
Q 3428 3584 3742 3212 
Q 4056 2841 4056 2131 
z
" transform="scale(0.015625)"/>
      <path id="DejaVuSans-Bold-74" d="M 1759 4494 
L 1759 3500 
L 2913 3500 
L 2913 2700 
L 1759 2700 
L 1759 1216 
Q 1759 972 1856 886 
Q 1953 800 2241 800 
L 2816 800 
L 2816 0 
L 1856 0 
Q 1194 0 917 276 
Q 641 553 641 1216 
L 641 2700 
L 84 2700 
L 84 3500 
L 641 3500 
L 641 4494 
L 1759 4494 
z
" transform="scale(0.015625)"/>
      <path id="DejaVuSans-Bold-65" d="M 4031 1759 
L 4031 1441 
L 1416 1441 
Q 1456 1047 1700 850 
Q 1944 653 2381 653 
Q 2734 653 3104 758 
Q 3475 863 3866 1075 
L 3866 213 
Q 3469 63 3072 -14 
Q 2675 -91 2278 -91 
Q 1328 -91 801 392 
Q 275 875 275 1747 
Q 275 2603 792 3093 
Q 1309 3584 2216 3584 
Q 3041 3584 3536 3087 
Q 4031 2591 4031 1759 
z
M 2881 2131 
Q 2881 2450 2695 2645 
Q 2509 2841 2209 2841 
Q 1884 2841 1681 2658 
Q 1478 2475 1428 2131 
L 2881 2131 
z
" transform="scale(0.015625)"/>
      <path id="DejaVuSans-Bold-67" d="M 2919 594 
Q 2688 288 2409 144 
Q 2131 0 1766 0 
Q 1125 0 706 504 
Q 288 1009 288 1791 
Q 288 2575 706 3076 
Q 1125 3578 1766 3578 
Q 2131 3578 2409 3434 
Q 2688 3291 2919 2981 
L 2919 3500 
L 4044 3500 
L 4044 353 
Q 4044 -491 3511 -936 
Q 2978 -1381 1966 -1381 
Q 1638 -1381 1331 -1331 
Q 1025 -1281 716 -1178 
L 716 -306 
Q 1009 -475 1290 -558 
Q 1572 -641 1856 -641 
Q 2406 -641 2662 -400 
Q 2919 -159 2919 353 
L 2919 594 
z
M 2181 2772 
Q 1834 2772 1640 2515 
Q 1447 2259 1447 1791 
Q 1447 1309 1634 1061 
Q 1822 813 2181 813 
Q 2531 813 2725 1069 
Q 2919 1325 2919 1791 
Q 2919 2259 2725 2515 
Q 2531 2772 2181 2772 
z
" transform="scale(0.015625)"/>
      <path id="DejaVuSans-Bold-72" d="M 3138 2547 
Q 2991 2616 2845 2648 
Q 2700 2681 2553 2681 
Q 2122 2681 1889 2404 
Q 1656 2128 1656 1613 
L 1656 0 
L 538 0 
L 538 3500 
L 1656 3500 
L 1656 2925 
Q 1872 3269 2151 3426 
Q 2431 3584 2822 3584 
Q 2878 3584 2943 3579 
Q 3009 3575 3134 3559 
L 3138 2547 
z
" transform="scale(0.015625)"/>
      <path id="DejaVuSans-Bold-6c" d="M 538 4863 
L 1656 4863 
L 1656 0 
L 538 0 
L 538 4863 
z
" transform="scale(0.015625)"/>
     </defs>
     <use xlink:href="#DejaVuSans-Bold-50"/>
     <use xlink:href="#DejaVuSans-Bold-66" transform="translate(73.291016 0)"/>
     <use xlink:href="#DejaVuSans-Bold-61" transform="translate(116.796875 0)"/>
     <use xlink:href="#DejaVuSans-Bold-64" transform="translate(184.277344 0)"/>
     <use xlink:href="#DejaVuSans-Bold-69" transform="translate(255.859375 0)"/>
     <use xlink:href="#DejaVuSans-Bold-6e" transform="translate(290.136719 0)"/>
     <use xlink:href="#DejaVuSans-Bold-74" transform="translate(361.328125 0)"/>
     <use xlink:href="#DejaVuSans-Bold-65" transform="translate(409.130859 0)"/>
     <use xlink:href="#DejaVuSans-Bold-67" transform="translate(476.953125 0)"/>
     <use xlink:href="#DejaVuSans-Bold-72" transform="translate(548.535156 0)"/>
     <use xlink:href="#DejaVuSans-Bold-61" transform="translate(597.851562 0)"/>
     <use xlink:href="#DejaVuSans-Bold-6c" transform="translate(665.332031 0)"/>
    </g>
    <!-- (Feynman) -->
    <g style="fill: #22d3ee" transform="translate(257.431314 24.870797) scale(0.09 -0.09)">
     <defs>
      <path id="DejaVuSans-Bold-28" d="M 2413 -844 
L 1484 -844 
Q 1006 -72 778 623 
Q 550 1319 550 2003 
Q 550 2688 779 3389 
Q 1009 4091 1484 4856 
L 2413 4856 
Q 2013 4116 1813 3408 
Q 1613 2700 1613 2009 
Q 1613 1319 1811 609 
Q 2009 -100 2413 -844 
z
" transform="scale(0.015625)"/>
      <path id="DejaVuSans-Bold-46" d="M 588 4666 
L 3834 4666 
L 3834 3756 
L 1791 3756 
L 1791 2888 
L 3713 2888 
L 3713 1978 
L 1791 1978 
L 1791 0 
L 588 0 
L 588 4666 
z
" transform="scale(0.015625)"/>
      <path id="DejaVuSans-Bold-79" d="M 78 3500 
L 1197 3500 
L 2138 1125 
L 2938 3500 
L 4056 3500 
L 2584 -331 
Q 2363 -916 2067 -1148 
Q 1772 -1381 1288 -1381 
L 641 -1381 
L 641 -647 
L 991 -647 
Q 1275 -647 1404 -556 
Q 1534 -466 1606 -231 
L 1638 -134 
L 78 3500 
z
" transform="scale(0.015625)"/>
      <path id="DejaVuSans-Bold-6d" d="M 3781 2919 
Q 3994 3244 4286 3414 
Q 4578 3584 4928 3584 
Q 5531 3584 5847 3212 
Q 6163 2841 6163 2131 
L 6163 0 
L 5038 0 
L 5038 1825 
Q 5041 1866 5042 1909 
Q 5044 1953 5044 2034 
Q 5044 2406 4934 2573 
Q 4825 2741 4581 2741 
Q 4263 2741 4089 2478 
Q 3916 2216 3909 1719 
L 3909 0 
L 2784 0 
L 2784 1825 
Q 2784 2406 2684 2573 
Q 2584 2741 2328 2741 
Q 2006 2741 1831 2477 
Q 1656 2213 1656 1722 
L 1656 0 
L 531 0 
L 531 3500 
L 1656 3500 
L 1656 2988 
Q 1863 3284 2130 3434 
Q 2397 3584 2719 3584 
Q 3081 3584 3359 3409 
Q 3638 3234 3781 2919 
z
" transform="scale(0.015625)"/>
      <path id="DejaVuSans-Bold-29" d="M 513 -844 
Q 913 -100 1113 609 
Q 1313 1319 1313 2009 
Q 1313 2700 1113 3408 
Q 913 4116 513 4856 
L 1441 4856 
Q 1916 4091 2145 3389 
Q 2375 2688 2375 2003 
Q 2375 1319 2147 623 
Q 1919 -72 1441 -844 
L 513 -844 
z
" transform="scale(0.015625)"/>
     </defs>
     <use xlink:href="#DejaVuSans-Bold-28"/>
     <use xlink:href="#DejaVuSans-Bold-46" transform="translate(45.703125 0)"/>
     <use xlink:href="#DejaVuSans-Bold-65" transform="translate(110.013672 0)"/>
     <use xlink:href="#DejaVuSans-Bold-79" transform="translate(177.835938 0)"/>
     <use xlink:href="#DejaVuSans-Bold-6e" transform="translate(243.021484 0)"/>
     <use xlink:href="#DejaVuSans-Bold-6d" transform="translate(314.212891 0)"/>
     <use xlink:href="#DejaVuSans-Bold-61" transform="translate(418.412109 0)"/>
     <use xlink:href="#DejaVuSans-Bold-6e" transform="translate(485.892578 0)"/>
     <use xlink:href="#DejaVuSans-Bold-29" transform="translate(557.083984 0)"/>
    </g>
   </g>
   <g id="text_5">
    <!-- ∫ über Wege -->
    <g style="fill: #4b5563" transform="translate(262.486939 185.336968) scale(0.07 -0.07)">
     <defs>
      <path id="DejaVuSans-Oblique-222b" d="M 1509 3906 
Q 1534 4428 1787 4636 
Q 2041 4844 2277 4844 
Q 2513 4844 2709 4648 
Q 2906 4453 2969 4016 
L 2506 3969 
Q 2453 4375 2275 4375 
Q 2053 4375 2028 3828 
L 1825 -422 
Q 1800 -944 1547 -1151 
Q 1294 -1359 1058 -1359 
Q 822 -1359 625 -1164 
Q 428 -969 366 -531 
L 828 -484 
Q 881 -891 1059 -891 
Q 1281 -891 1306 -344 
L 1509 3906 
z
" transform="scale(0.015625)"/>
      <path id="DejaVuSans-Oblique-fc" d="M 428 1388 
L 838 3500 
L 1416 3500 
L 1006 1409 
Q 975 1256 961 1147 
Q 947 1038 947 966 
Q 947 700 1109 554 
Q 1272 409 1569 409 
Q 2031 409 2368 721 
Q 2706 1034 2809 1563 
L 3194 3500 
L 3769 3500 
L 3091 0 
L 2516 0 
L 2631 550 
Q 2388 244 2052 76 
Q 1716 -91 1338 -91 
Q 878 -91 622 161 
Q 366 413 366 863 
Q 366 956 381 1097 
Q 397 1238 428 1388 
z
M 1628 4850 
L 2269 4850 
L 2141 4219 
L 1506 4219 
L 1628 4850 
z
M 2850 4850 
L 3484 4850 
L 3362 4219 
L 2728 4219 
L 2850 4850 
z
" transform="scale(0.015625)"/>
      <path id="DejaVuSans-Oblique-62" d="M 3169 2138 
Q 3169 2591 2961 2847 
Q 2753 3103 2388 3103 
Q 2122 3103 1889 2973 
Q 1656 2844 1484 2597 
Q 1303 2338 1198 1995 
Q 1094 1653 1094 1313 
Q 1094 881 1298 636 
Q 1503 391 1863 391 
Q 2134 391 2365 517 
Q 2597 644 2772 891 
Q 2950 1147 3059 1487 
Q 3169 1828 3169 2138 
z
M 1381 2969 
Q 1594 3256 1914 3420 
Q 2234 3584 2584 3584 
Q 3122 3584 3439 3221 
Q 3756 2859 3756 2241 
Q 3756 1734 3570 1259 
Q 3384 784 3041 416 
Q 2816 172 2522 40 
Q 2228 -91 1906 -91 
Q 1566 -91 1316 65 
Q 1066 222 909 531 
L 806 0 
L 231 0 
L 1178 4863 
L 1753 4863 
L 1381 2969 
z
" transform="scale(0.015625)"/>
      <path id="DejaVuSans-Oblique-57" d="M 616 4666 
L 1228 4666 
L 1453 697 
L 3213 4666 
L 3916 4666 
L 4147 697 
L 5888 4666 
L 6528 4666 
L 4453 0 
L 3659 0 
L 3444 3891 
L 1697 0 
L 903 0 
L 616 4666 
z
" transform="scale(0.015625)"/>
     </defs>
     <use xlink:href="#DejaVuSans-Oblique-222b"/>
     <use xlink:href="#DejaVuSans-Oblique-20" transform="translate(52.099609 0)"/>
     <use xlink:href="#DejaVuSans-Oblique-fc" transform="translate(83.886719 0)"/>
     <use xlink:href="#DejaVuSans-Oblique-62" transform="translate(147.265625 0)"/>
     <use xlink:href="#DejaVuSans-Oblique-65" transform="translate(210.742188 0)"/>
     <use xlink:href="#DejaVuSans-Oblique-72" transform="translate(272.265625 0)"/>
     <use xlink:href="#DejaVuSans-Oblique-20" transform="translate(313.378906 0)"/>
     <use xlink:href="#DejaVuSans-Oblique-57" transform="translate(345.166016 0)"/>
     <use xlink:href="#DejaVuSans-Oblique-65" transform="translate(444.042969 0)"/>
     <use xlink:href="#DejaVuSans-Oblique-67" transform="translate(505.566406 0)"/>
     <use xlink:href="#DejaVuSans-Oblique-65" transform="translate(569.042969 0)"/>
    </g>
   </g>
   <g id="patch_6">
    <path d="M 66.63368 472.664627 
C 81.344876 472.664627 95.455521 466.819807 105.857908 456.41742 
C 116.260294 446.015033 122.105115 431.904389 122.105115 417.193192 
C 122.105115 402.481996 116.260294 388.371352 105.857908 377.968965 
C 95.455521 367.566578 81.344876 361.721758 66.63368 361.721758 
C 51.922484 361.721758 37.811839 367.566578 27.409452 377.968965 
C 17.007066 388.371352 11.162245 402.481996 11.162245 417.193192 
C 11.162245 431.904389 17.007066 446.015033 27.409452 456.41742 
C 37.811839 466.819807 51.922484 472.664627 66.63368 472.664627 
z
" clip-path="url(#p7b8c2f280c)" style="fill: #0a0a14; opacity: 0.9; stroke: #a78bfa; stroke-width: 2.5; stroke-linejoin: miter"/>
   </g>
   <g id="text_6">
    <!-- Eigenzustände -->
    <g style="fill: #a78bfa" transform="translate(29.375086 330.999236) scale(0.09 -0.09)">
     <defs>
      <path id="DejaVuSans-Bold-45" d="M 588 4666 
L 3834 4666 
L 3834 3756 
L 1791 3756 
L 1791 2888 
L 3713 2888 
L 3713 1978 
L 1791 1978 
L 1791 909 
L 3903 909 
L 3903 0 
L 588 0 
L 588 4666 
z
" transform="scale(0.015625)"/>
      <path id="DejaVuSans-Bold-7a" d="M 366 3500 
L 3419 3500 
L 3419 2719 
L 1575 800 
L 3419 800 
L 3419 0 
L 288 0 
L 288 781 
L 2131 2700 
L 366 2700 
L 366 3500 
z
" transform="scale(0.015625)"/>
      <path id="DejaVuSans-Bold-75" d="M 500 1363 
L 500 3500 
L 1625 3500 
L 1625 3150 
Q 1625 2866 1622 2436 
Q 1619 2006 1619 1863 
Q 1619 1441 1641 1255 
Q 1663 1069 1716 984 
Q 1784 875 1895 815 
Q 2006 756 2150 756 
Q 2500 756 2700 1025 
Q 2900 1294 2900 1772 
L 2900 3500 
L 4019 3500 
L 4019 0 
L 2900 0 
L 2900 506 
Q 2647 200 2364 54 
Q 2081 -91 1741 -91 
Q 1134 -91 817 281 
Q 500 653 500 1363 
z
" transform="scale(0.015625)"/>
      <path id="DejaVuSans-Bold-73" d="M 3272 3391 
L 3272 2541 
Q 2913 2691 2578 2766 
Q 2244 2841 1947 2841 
Q 1628 2841 1473 2761 
Q 1319 2681 1319 2516 
Q 1319 2381 1436 2309 
Q 1553 2238 1856 2203 
L 2053 2175 
Q 2913 2066 3209 1816 
Q 3506 1566 3506 1031 
Q 3506 472 3093 190 
Q 2681 -91 1863 -91 
Q 1516 -91 1145 -36 
Q 775 19 384 128 
L 384 978 
Q 719 816 1070 734 
Q 1422 653 1784 653 
Q 2113 653 2278 743 
Q 2444 834 2444 1013 
Q 2444 1163 2330 1236 
Q 2216 1309 1875 1350 
L 1678 1375 
Q 931 1469 631 1722 
Q 331 1975 331 2491 
Q 331 3047 712 3315 
Q 1094 3584 1881 3584 
Q 2191 3584 2531 3537 
Q 2872 3491 3272 3391 
z
" transform="scale(0.015625)"/>
      <path id="DejaVuSans-Bold-e4" d="M 2106 1575 
Q 1756 1575 1579 1456 
Q 1403 1338 1403 1106 
Q 1403 894 1545 773 
Q 1688 653 1941 653 
Q 2256 653 2472 879 
Q 2688 1106 2688 1447 
L 2688 1575 
L 2106 1575 
z
M 3816 1997 
L 3816 0 
L 2688 0 
L 2688 519 
Q 2463 200 2181 54 
Q 1900 -91 1497 -91 
Q 953 -91 614 226 
Q 275 544 275 1050 
Q 275 1666 698 1953 
Q 1122 2241 2028 2241 
L 2688 2241 
L 2688 2328 
Q 2688 2594 2478 2717 
Q 2269 2841 1825 2841 
Q 1466 2841 1156 2769 
Q 847 2697 581 2553 
L 581 3406 
Q 941 3494 1303 3539 
Q 1666 3584 2028 3584 
Q 2975 3584 3395 3211 
Q 3816 2838 3816 1997 
z
M 1200 4953 
L 1934 4953 
L 1934 4184 
L 1200 4184 
L 1200 4953 
z
M 2434 4953 
L 3168 4953 
L 3168 4184 
L 2434 4184 
L 2434 4953 
z
" transform="scale(0.015625)"/>
     </defs>
     <use xlink:href="#DejaVuSans-Bold-45"/>
     <use xlink:href="#DejaVuSans-Bold-69" transform="translate(68.310547 0)"/>
     <use xlink:href="#DejaVuSans-Bold-67" transform="translate(102.587891 0)"/>
     <use xlink:href="#DejaVuSans-Bold-65" transform="translate(174.169922 0)"/>
     <use xlink:href="#DejaVuSans-Bold-6e" transform="translate(241.992188 0)"/>
     <use xlink:href="#DejaVuSans-Bold-7a" transform="translate(313.183594 0)"/>
     <use xlink:href="#DejaVuSans-Bold-75" transform="translate(371.386719 0)"/>
     <use xlink:href="#DejaVuSans-Bold-73" transform="translate(442.578125 0)"/>
     <use xlink:href="#DejaVuSans-Bold-74" transform="translate(502.099609 0)"/>
     <use xlink:href="#DejaVuSans-Bold-e4" transform="translate(549.902344 0)"/>
     <use xlink:href="#DejaVuSans-Bold-6e" transform="translate(617.382812 0)"/>
     <use xlink:href="#DejaVuSans-Bold-64" transform="translate(688.574219 0)"/>
     <use xlink:href="#DejaVuSans-Bold-65" transform="translate(760.15625 0)"/>
    </g>
    <!-- (Schrödinger) -->
    <g style="fill: #a78bfa" transform="translate(31.638446 341.99597) scale(0.09 -0.09)">
     <defs>
      <path id="DejaVuSans-Bold-53" d="M 3834 4519 
L 3834 3531 
Q 3450 3703 3084 3790 
Q 2719 3878 2394 3878 
Q 1963 3878 1756 3759 
Q 1550 3641 1550 3391 
Q 1550 3203 1689 3098 
Q 1828 2994 2194 2919 
L 2706 2816 
Q 3484 2659 3812 2340 
Q 4141 2022 4141 1434 
Q 4141 663 3683 286 
Q 3225 -91 2284 -91 
Q 1841 -91 1394 -6 
Q 947 78 500 244 
L 500 1259 
Q 947 1022 1364 901 
Q 1781 781 2169 781 
Q 2563 781 2772 912 
Q 2981 1044 2981 1288 
Q 2981 1506 2839 1625 
Q 2697 1744 2272 1838 
L 1806 1941 
Q 1106 2091 782 2419 
Q 459 2747 459 3303 
Q 459 4000 909 4375 
Q 1359 4750 2203 4750 
Q 2588 4750 2994 4692 
Q 3400 4634 3834 4519 
z
" transform="scale(0.015625)"/>
      <path id="DejaVuSans-Bold-63" d="M 3366 3391 
L 3366 2478 
Q 3138 2634 2908 2709 
Q 2678 2784 2431 2784 
Q 1963 2784 1702 2511 
Q 1441 2238 1441 1747 
Q 1441 1256 1702 982 
Q 1963 709 2431 709 
Q 2694 709 2930 787 
Q 3166 866 3366 1019 
L 3366 103 
Q 3103 6 2833 -42 
Q 2563 -91 2291 -91 
Q 1344 -91 809 395 
Q 275 881 275 1747 
Q 275 2613 809 3098 
Q 1344 3584 2291 3584 
Q 2566 3584 2833 3536 
Q 3100 3488 3366 3391 
z
" transform="scale(0.015625)"/>
      <path id="DejaVuSans-Bold-68" d="M 4056 2131 
L 4056 0 
L 2931 0 
L 2931 347 
L 2931 1625 
Q 2931 2084 2911 2256 
Q 2891 2428 2841 2509 
Q 2775 2619 2662 2680 
Q 2550 2741 2406 2741 
Q 2056 2741 1856 2470 
Q 1656 2200 1656 1722 
L 1656 0 
L 538 0 
L 538 4863 
L 1656 4863 
L 1656 2988 
Q 1909 3294 2193 3439 
Q 2478 3584 2822 3584 
Q 3428 3584 3742 3212 
Q 4056 2841 4056 2131 
z
" transform="scale(0.015625)"/>
      <path id="DejaVuSans-Bold-f6" d="M 2203 2784 
Q 1831 2784 1636 2517 
Q 1441 2250 1441 1747 
Q 1441 1244 1636 976 
Q 1831 709 2203 709 
Q 2569 709 2762 976 
Q 2956 1244 2956 1747 
Q 2956 2250 2762 2517 
Q 2569 2784 2203 2784 
z
M 2203 3584 
Q 3106 3584 3614 3096 
Q 4122 2609 4122 1747 
Q 4122 884 3614 396 
Q 3106 -91 2203 -91 
Q 1297 -91 786 396 
Q 275 884 275 1747 
Q 275 2609 786 3096 
Q 1297 3584 2203 3584 
z
M 1208 4953 
L 1942 4953 
L 1942 4184 
L 1208 4184 
L 1208 4953 
z
M 2442 4953 
L 3176 4953 
L 3176 4184 
L 2442 4184 
L 2442 4953 
z
" transform="scale(0.015625)"/>
     </defs>
     <use xlink:href="#DejaVuSans-Bold-28"/>
     <use xlink:href="#DejaVuSans-Bold-53" transform="translate(45.703125 0)"/>
     <use xlink:href="#DejaVuSans-Bold-63" transform="translate(117.724609 0)"/>
     <use xlink:href="#DejaVuSans-Bold-68" transform="translate(177.001953 0)"/>
     <use xlink:href="#DejaVuSans-Bold-72" transform="translate(248.193359 0)"/>
     <use xlink:href="#DejaVuSans-Bold-f6" transform="translate(297.509766 0)"/>
     <use xlink:href="#DejaVuSans-Bold-64" transform="translate(366.210938 0)"/>
     <use xlink:href="#DejaVuSans-Bold-69" transform="translate(437.792969 0)"/>
     <use xlink:href="#DejaVuSans-Bold-6e" transform="translate(472.070312 0)"/>
     <use xlink:href="#DejaVuSans-Bold-67" transform="translate(543.261719 0)"/>
     <use xlink:href="#DejaVuSans-Bold-65" transform="translate(614.84375 0)"/>
     <use xlink:href="#DejaVuSans-Bold-72" transform="translate(682.666016 0)"/>
     <use xlink:href="#DejaVuSans-Bold-29" transform="translate(731.982422 0)"/>
    </g>
   </g>
   <g id="text_7">
    <!-- Σ über Moden -->
    <g style="fill: #4b5563" transform="translate(42.409852 502.331907) scale(0.07 -0.07)">
     <defs>
      <path id="DejaVuSans-Oblique-3a3" d="M 1003 531 
L 3284 531 
L 3181 0 
L 175 0 
L 278 531 
L 2153 2481 
L 978 4134 
L 1081 4666 
L 4031 4666 
L 3928 4134 
L 1703 4134 
L 2881 2494 
L 1003 531 
z
" transform="scale(0.015625)"/>
      <path id="DejaVuSans-Oblique-4d" d="M 1081 4666 
L 2028 4666 
L 2572 1522 
L 4378 4666 
L 5350 4666 
L 4441 0 
L 3828 0 
L 4622 4091 
L 2791 897 
L 2175 897 
L 1581 4103 
L 788 0 
L 172 0 
L 1081 4666 
z
" transform="scale(0.015625)"/>
     </defs>
     <use xlink:href="#DejaVuSans-Oblique-3a3"/>
     <use xlink:href="#DejaVuSans-Oblique-20" transform="translate(63.183594 0)"/>
     <use xlink:href="#DejaVuSans-Oblique-fc" transform="translate(94.970703 0)"/>
     <use xlink:href="#DejaVuSans-Oblique-62" transform="translate(158.349609 0)"/>
     <use xlink:href="#DejaVuSans-Oblique-65" transform="translate(221.826172 0)"/>
     <use xlink:href="#DejaVuSans-Oblique-72" transform="translate(283.349609 0)"/>
     <use xlink:href="#DejaVuSans-Oblique-20" transform="translate(324.462891 0)"/>
     <use xlink:href="#DejaVuSans-Oblique-4d" transform="translate(356.25 0)"/>
     <use xlink:href="#DejaVuSans-Oblique-6f" transform="translate(442.529297 0)"/>
     <use xlink:href="#DejaVuSans-Oblique-64" transform="translate(503.710938 0)"/>
     <use xlink:href="#DejaVuSans-Oblique-65" transform="translate(567.1875 0)"/>
     <use xlink:href="#DejaVuSans-Oblique-6e" transform="translate(628.710938 0)"/>
    </g>
   </g>
   <g id="patch_7">
    <path d="M 502.480666 472.664627 
C 517.191863 472.664627 531.302507 466.819807 541.704894 456.41742 
C 552.107281 446.015033 557.952101 431.904389 557.952101 417.193192 
C 557.952101 402.481996 552.107281 388.371352 541.704894 377.968965 
C 531.302507 367.566578 517.191863 361.721758 502.480666 361.721758 
C 487.76947 361.721758 473.658825 367.566578 463.256439 377.968965 
C 452.854052 388.371352 447.009232 402.481996 447.009232 417.193192 
C 447.009232 431.904389 452.854052 446.015033 463.256439 456.41742 
C 473.658825 466.819807 487.76947 472.664627 502.480666 472.664627 
z
" clip-path="url(#p7b8c2f280c)" style="fill: #0a0a14; opacity: 0.9; stroke: #f59e0b; stroke-width: 2.5; stroke-linejoin: miter"/>
   </g>
   <g id="text_8">
    <!-- Fourier- -->
    <g style="fill: #f59e0b" transform="translate(482.390979 331.053376) scale(0.09 -0.09)">
     <defs>
      <path id="DejaVuSans-Bold-6f" d="M 2203 2784 
Q 1831 2784 1636 2517 
Q 1441 2250 1441 1747 
Q 1441 1244 1636 976 
Q 1831 709 2203 709 
Q 2569 709 2762 976 
Q 2956 1244 2956 1747 
Q 2956 2250 2762 2517 
Q 2569 2784 2203 2784 
z
M 2203 3584 
Q 3106 3584 3614 3096 
Q 4122 2609 4122 1747 
Q 4122 884 3614 396 
Q 3106 -91 2203 -91 
Q 1297 -91 786 396 
Q 275 884 275 1747 
Q 275 2609 786 3096 
Q 1297 3584 2203 3584 
z
" transform="scale(0.015625)"/>
      <path id="DejaVuSans-Bold-2d" d="M 347 2297 
L 2309 2297 
L 2309 1388 
L 347 1388 
L 347 2297 
z
" transform="scale(0.015625)"/>
     </defs>
     <use xlink:href="#DejaVuSans-Bold-46"/>
     <use xlink:href="#DejaVuSans-Bold-6f" transform="translate(64.310547 0)"/>
     <use xlink:href="#DejaVuSans-Bold-75" transform="translate(133.011719 0)"/>
     <use xlink:href="#DejaVuSans-Bold-72" transform="translate(204.203125 0)"/>
     <use xlink:href="#DejaVuSans-Bold-69" transform="translate(253.519531 0)"/>
     <use xlink:href="#DejaVuSans-Bold-65" transform="translate(287.796875 0)"/>
     <use xlink:href="#DejaVuSans-Bold-72" transform="translate(355.619141 0)"/>
     <use xlink:href="#DejaVuSans-Bold-2d" transform="translate(404.935547 0)"/>
    </g>
    <!-- Zerlegung -->
    <g style="fill: #f59e0b" transform="translate(476.502307 341.815267) scale(0.09 -0.09)">
     <defs>
      <path id="DejaVuSans-Bold-5a" d="M 359 4666 
L 4281 4666 
L 4281 3938 
L 1778 909 
L 4353 909 
L 4353 0 
L 288 0 
L 288 728 
L 2791 3756 
L 359 3756 
L 359 4666 
z
" transform="scale(0.015625)"/>
     </defs>
     <use xlink:href="#DejaVuSans-Bold-5a"/>
     <use xlink:href="#DejaVuSans-Bold-65" transform="translate(72.509766 0)"/>
     <use xlink:href="#DejaVuSans-Bold-72" transform="translate(140.332031 0)"/>
     <use xlink:href="#DejaVuSans-Bold-6c" transform="translate(189.648438 0)"/>
     <use xlink:href="#DejaVuSans-Bold-65" transform="translate(223.925781 0)"/>
     <use xlink:href="#DejaVuSans-Bold-67" transform="translate(291.748047 0)"/>
     <use xlink:href="#DejaVuSans-Bold-75" transform="translate(363.330078 0)"/>
     <use xlink:href="#DejaVuSans-Bold-6e" transform="translate(434.521484 0)"/>
     <use xlink:href="#DejaVuSans-Bold-67" transform="translate(505.712891 0)"/>
    </g>
   </g>
   <g id="text_9">
    <!-- ∫ über Frequenzen -->
    <g style="fill: #4b5563" transform="translate(469.77426 502.316594) scale(0.07 -0.07)">
     <use xlink:href="#DejaVuSans-Oblique-222b"/>
     <use xlink:href="#DejaVuSans-Oblique-20" transform="translate(52.099609 0)"/>
     <use xlink:href="#DejaVuSans-Oblique-fc" transform="translate(83.886719 0)"/>
     <use xlink:href="#DejaVuSans-Oblique-62" transform="translate(147.265625 0)"/>
     <use xlink:href="#DejaVuSans-Oblique-65" transform="translate(210.742188 0)"/>
     <use xlink:href="#DejaVuSans-Oblique-72" transform="translate(272.265625 0)"/>
     <use xlink:href="#DejaVuSans-Oblique-20" transform="translate(313.378906 0)"/>
     <use xlink:href="#DejaVuSans-Oblique-46" transform="translate(345.166016 0)"/>
     <use xlink:href="#DejaVuSans-Oblique-72" transform="translate(402.685547 0)"/>
     <use xlink:href="#DejaVuSans-Oblique-65" transform="translate(443.798828 0)"/>
     <use xlink:href="#DejaVuSans-Oblique-71" transform="translate(505.322266 0)"/>
     <use xlink:href="#DejaVuSans-Oblique-75" transform="translate(568.798828 0)"/>
     <use xlink:href="#DejaVuSans-Oblique-65" transform="translate(632.177734 0)"/>
     <use xlink:href="#DejaVuSans-Oblique-6e" transform="translate(693.701172 0)"/>
     <use xlink:href="#DejaVuSans-Oblique-7a" transform="translate(757.080078 0)"/>
     <use xlink:href="#DejaVuSans-Oblique-65" transform="translate(809.570312 0)"/>
     <use xlink:href="#DejaVuSans-Oblique-6e" transform="translate(871.09375 0)"/>
    </g>
   </g>
   <g id="text_10">
    <!-- derselbe Pfeil, -->
    <g style="fill: #4b5563" transform="translate(259.752564 339.656914) scale(0.07 -0.07)">
     <defs>
      <path id="DejaVuSans-Oblique-2c" d="M 575 794 
L 1234 794 
L 1131 256 
L 422 -744 
L 19 -744 
L 469 256 
L 575 794 
z
" transform="scale(0.015625)"/>
     </defs>
     <use xlink:href="#DejaVuSans-Oblique-64"/>
     <use xlink:href="#DejaVuSans-Oblique-65" transform="translate(63.476562 0)"/>
     <use xlink:href="#DejaVuSans-Oblique-72" transform="translate(125 0)"/>
     <use xlink:href="#DejaVuSans-Oblique-73" transform="translate(166.113281 0)"/>
     <use xlink:href="#DejaVuSans-Oblique-65" transform="translate(218.212891 0)"/>
     <use xlink:href="#DejaVuSans-Oblique-6c" transform="translate(279.736328 0)"/>
     <use xlink:href="#DejaVuSans-Oblique-62" transform="translate(307.519531 0)"/>
     <use xlink:href="#DejaVuSans-Oblique-65" transform="translate(370.996094 0)"/>
     <use xlink:href="#DejaVuSans-Oblique-20" transform="translate(432.519531 0)"/>
     <use xlink:href="#DejaVuSans-Oblique-50" transform="translate(464.306641 0)"/>
     <use xlink:href="#DejaVuSans-Oblique-66" transform="translate(524.609375 0)"/>
     <use xlink:href="#DejaVuSans-Oblique-65" transform="translate(559.814453 0)"/>
     <use xlink:href="#DejaVuSans-Oblique-69" transform="translate(621.337891 0)"/>
     <use xlink:href="#DejaVuSans-Oblique-6c" transform="translate(649.121094 0)"/>
     <use xlink:href="#DejaVuSans-Oblique-2c" transform="translate(676.904297 0)"/>
    </g>
    <!-- dreimal berechnet -->
    <g style="fill: #4b5563" transform="translate(252.277329 348.027273) scale(0.07 -0.07)">
     <defs>
      <path id="DejaVuSans-Oblique-63" d="M 3431 3366 
L 3316 2797 
Q 3109 2947 2876 3022 
Q 2644 3097 2394 3097 
Q 2119 3097 1870 3000 
Q 1622 2903 1453 2725 
Q 1184 2453 1037 2087 
Q 891 1722 891 1331 
Q 891 859 1127 628 
Q 1363 397 1844 397 
Q 2081 397 2348 469 
Q 2616 541 2906 684 
L 2797 116 
Q 2547 13 2283 -39 
Q 2019 -91 1741 -91 
Q 1044 -91 669 257 
Q 294 606 294 1253 
Q 294 1797 489 2255 
Q 684 2713 1069 3078 
Q 1331 3328 1684 3456 
Q 2038 3584 2456 3584 
Q 2700 3584 2940 3529 
Q 3181 3475 3431 3366 
z
" transform="scale(0.015625)"/>
      <path id="DejaVuSans-Oblique-68" d="M 3566 2113 
L 3156 0 
L 2578 0 
L 2988 2091 
Q 3016 2238 3031 2350 
Q 3047 2463 3047 2528 
Q 3047 2791 2881 2937 
Q 2716 3084 2419 3084 
Q 1956 3084 1617 2771 
Q 1278 2459 1178 1941 
L 800 0 
L 225 0 
L 1172 4863 
L 1747 4863 
L 1375 2950 
Q 1594 3244 1934 3414 
Q 2275 3584 2650 3584 
Q 3113 3584 3367 3334 
Q 3622 3084 3622 2631 
Q 3622 2519 3608 2391 
Q 3594 2263 3566 2113 
z
" transform="scale(0.015625)"/>
     </defs>
     <use xlink:href="#DejaVuSans-Oblique-64"/>
     <use xlink:href="#DejaVuSans-Oblique-72" transform="translate(63.476562 0)"/>
     <use xlink:href="#DejaVuSans-Oblique-65" transform="translate(104.589844 0)"/>
     <use xlink:href="#DejaVuSans-Oblique-69" transform="translate(166.113281 0)"/>
     <use xlink:href="#DejaVuSans-Oblique-6d" transform="translate(193.896484 0)"/>
     <use xlink:href="#DejaVuSans-Oblique-61" transform="translate(291.308594 0)"/>
     <use xlink:href="#DejaVuSans-Oblique-6c" transform="translate(352.587891 0)"/>
     <use xlink:href="#DejaVuSans-Oblique-20" transform="translate(380.371094 0)"/>
     <use xlink:href="#DejaVuSans-Oblique-62" transform="translate(412.158203 0)"/>
     <use xlink:href="#DejaVuSans-Oblique-65" transform="translate(475.634766 0)"/>
     <use xlink:href="#DejaVuSans-Oblique-72" transform="translate(537.158203 0)"/>
     <use xlink:href="#DejaVuSans-Oblique-65" transform="translate(578.271484 0)"/>
     <use xlink:href="#DejaVuSans-Oblique-63" transform="translate(639.794922 0)"/>
     <use xlink:href="#DejaVuSans-Oblique-68" transform="translate(694.775391 0)"/>
     <use xlink:href="#DejaVuSans-Oblique-6e" transform="translate(758.154297 0)"/>
     <use xlink:href="#DejaVuSans-Oblique-65" transform="translate(821.533203 0)"/>
     <use xlink:href="#DejaVuSans-Oblique-74" transform="translate(883.056641 0)"/>
    </g>
   </g>
   <g id="text_11">
    <!-- $K = \int \mathcal{D}[x]\, e^{iS/\hbar}$ -->
    <g style="fill: #f1f5f9" transform="translate(256.517173 99.331321) scale(0.08 -0.08)">
     <defs>
      <path id="DejaVuSans-Oblique-4b" d="M 1081 4666 
L 1716 4666 
L 1331 2700 
L 3781 4666 
L 4622 4666 
L 1850 2438 
L 3878 0 
L 3109 0 
L 1247 2272 
L 806 0 
L 172 0 
L 1081 4666 
z
" transform="scale(0.015625)"/>
      <path id="DejaVuSans-3d" d="M 678 2906 
L 4684 2906 
L 4684 2381 
L 678 2381 
L 678 2906 
z
M 678 1631 
L 4684 1631 
L 4684 1100 
L 678 1100 
L 678 1631 
z
" transform="scale(0.015625)"/>
      <path id="DejaVuSansDisplay-222b" d="M 2134 5525 
Q 2172 6263 2528 6556 
Q 2884 6850 3218 6850 
Q 3553 6850 3833 6575 
Q 4113 6300 4200 5678 
L 3544 5613 
Q 3469 6188 3219 6188 
Q 2906 6188 2869 5413 
L 2581 -597 
Q 2547 -1334 2187 -1628 
Q 1828 -1922 1497 -1922 
Q 1163 -1922 883 -1647 
Q 603 -1372 516 -750 
L 1172 -684 
Q 1247 -1259 1497 -1259 
Q 1809 -1259 1847 -488 
L 2134 5525 
z
" transform="scale(0.015625)"/>
      <path id="STIXNonUnicode-Italic-e230" d="M 314 3418 
L 218 3539 
Q 621 3923 1126 4083 
Q 1619 4237 2490 4237 
Q 3475 4237 4028 4080 
Q 4582 3923 4812 3596 
Q 5043 3270 5043 2701 
Q 5043 2349 4950 1993 
Q 4858 1638 4634 1273 
Q 4410 909 4070 630 
Q 3731 352 3190 176 
Q 2650 0 1978 0 
L 333 0 
L 378 154 
Q 576 154 678 275 
Q 781 397 870 710 
L 1491 2867 
Q 1517 2957 1581 3155 
Q 1645 3354 1673 3466 
Q 1702 3578 1702 3642 
Q 1702 3878 1414 3878 
Q 877 3878 314 3418 
z
M 2438 3750 
L 1510 557 
Q 1478 454 1478 390 
Q 1478 307 1568 281 
Q 1658 256 1856 256 
Q 2093 256 2355 297 
Q 2618 339 2989 489 
Q 3360 640 3645 886 
Q 3930 1133 4134 1597 
Q 4339 2061 4339 2675 
Q 4339 3328 3977 3654 
Q 3616 3981 2758 3981 
Q 2643 3981 2553 3913 
Q 2464 3846 2438 3750 
z
" transform="scale(0.015625)"/>
      <path id="DejaVuSans-5b" d="M 550 4863 
L 1875 4863 
L 1875 4416 
L 1125 4416 
L 1125 -397 
L 1875 -397 
L 1875 -844 
L 550 -844 
L 550 4863 
z
" transform="scale(0.015625)"/>
      <path id="DejaVuSans-Oblique-78" d="M 3841 3500 
L 2234 1784 
L 3219 0 
L 2559 0 
L 1819 1388 
L 531 0 
L -166 0 
L 1556 1844 
L 641 3500 
L 1300 3500 
L 1972 2234 
L 3144 3500 
L 3841 3500 
z
" transform="scale(0.015625)"/>
      <path id="DejaVuSans-5d" d="M 1947 4863 
L 1947 -844 
L 622 -844 
L 622 -397 
L 1369 -397 
L 1369 4416 
L 622 4416 
L 622 4863 
L 1947 4863 
z
" transform="scale(0.015625)"/>
      <path id="DejaVuSans-Oblique-53" d="M 3859 4513 
L 3738 3897 
Q 3422 4066 3111 4152 
Q 2800 4238 2509 4238 
Q 1944 4238 1609 3991 
Q 1275 3744 1275 3334 
Q 1275 3109 1398 2989 
Q 1522 2869 2034 2731 
L 2413 2638 
Q 3053 2472 3303 2217 
Q 3553 1963 3553 1503 
Q 3553 797 2998 353 
Q 2444 -91 1538 -91 
Q 1166 -91 791 -17 
Q 416 56 38 206 
L 166 856 
Q 513 641 861 531 
Q 1209 422 1556 422 
Q 2147 422 2503 684 
Q 2859 947 2859 1369 
Q 2859 1650 2717 1795 
Q 2575 1941 2106 2059 
L 1728 2156 
Q 1081 2325 845 2545 
Q 609 2766 609 3163 
Q 609 3859 1145 4304 
Q 1681 4750 2541 4750 
Q 2875 4750 3203 4690 
Q 3531 4631 3859 4513 
z
" transform="scale(0.015625)"/>
      <path id="DejaVuSans-2f" d="M 1625 4666 
L 2156 4666 
L 531 -594 
L 0 -594 
L 1625 4666 
z
" transform="scale(0.015625)"/>
      <path id="DejaVuSans-Oblique-127" d="M 3634 2113 
L 3225 0 
L 2650 0 
L 3056 2094 
Q 3094 2291 3094 2450 
Q 3094 2688 3006 2838 
Q 2863 3084 2475 3084 
Q 2009 3084 1681 2788 
Q 1356 2491 1256 1978 
L 872 0 
L 294 0 
L 1066 3969 
L 675 3969 
L 775 4481 
L 1166 4481 
L 1238 4863 
L 1816 4863 
L 1744 4481 
L 2844 4481 
L 2744 3969 
L 1644 3969 
L 1447 2956 
Q 1713 3272 2025 3428 
Q 2331 3584 2700 3584 
Q 3300 3584 3538 3213 
Q 3688 2975 3688 2606 
Q 3688 2381 3634 2113 
z
" transform="scale(0.015625)"/>
     </defs>
     <use xlink:href="#DejaVuSans-Oblique-4b" transform="translate(0 0.96875)"/>
     <use xlink:href="#DejaVuSans-3d" transform="translate(85.058594 0.96875)"/>
     <use xlink:href="#DejaVuSansDisplay-222b" transform="translate(188.330078 0.96875)"/>
     <use xlink:href="#STIXNonUnicode-Italic-e230" transform="translate(261.962891 0.96875)"/>
     <use xlink:href="#DejaVuSans-5b" transform="translate(342.062881 0.96875)"/>
     <use xlink:href="#DejaVuSans-Oblique-78" transform="translate(381.076553 0.96875)"/>
     <use xlink:href="#DejaVuSans-5d" transform="translate(440.256241 0.96875)"/>
     <use xlink:href="#DejaVuSans-Oblique-65" transform="translate(495.505589 0.96875)"/>
     <use xlink:href="#DejaVuSans-Oblique-69" transform="translate(561.678922 39.25) scale(0.7)"/>
     <use xlink:href="#DejaVuSans-Oblique-53" transform="translate(581.127165 39.25) scale(0.7)"/>
     <use xlink:href="#DejaVuSans-2f" transform="translate(625.560758 39.25) scale(0.7)"/>
     <use xlink:href="#DejaVuSans-Oblique-127" transform="translate(649.144743 39.25) scale(0.7)"/>
    </g>
   </g>
   <g id="text_12">
    <!-- $K = \sum_n \psi_n\, e^{-iE_n t/\hbar}$ -->
    <g style="fill: #f1f5f9" transform="translate(37.31368 413.870947) scale(0.08 -0.08)">
     <defs>
      <path id="DejaVuSansDisplay-2211" d="M 244 6509 
L 5803 6509 
L 5803 5656 
L 1566 5656 
L 4534 2488 
L 1469 -888 
L 5919 -888 
L 5919 -1738 
L 109 -1738 
L 109 -1078 
L 3316 2463 
L 244 5728 
L 244 6509 
z
" transform="scale(0.015625)"/>
      <path id="DejaVuSans-Oblique-3c8" d="M 1591 -78 
Q 891 38 616 341 
Q 278 713 425 1472 
L 819 3500 
L 1400 3500 
L 1009 1494 
Q 900 922 1119 684 
Q 1313 478 1691 434 
L 2284 3500 
L 2856 3500 
L 2263 438 
Q 2681 481 2928 688 
Q 3247 950 3353 1497 
L 3741 3500 
L 4322 3500 
L 3928 1475 
Q 3775 688 3300 344 
Q 2872 34 2163 -75 
L 1919 -1331 
L 1347 -1331 
L 1591 -78 
z
" transform="scale(0.015625)"/>
      <path id="DejaVuSans-2212" d="M 678 2272 
L 4684 2272 
L 4684 1741 
L 678 1741 
L 678 2272 
z
" transform="scale(0.015625)"/>
     </defs>
     <use xlink:href="#DejaVuSans-Oblique-4b" transform="translate(0 0.296875)"/>
     <use xlink:href="#DejaVuSans-3d" transform="translate(85.058594 0.296875)"/>
     <use xlink:href="#DejaVuSansDisplay-2211" transform="translate(188.330078 0.296875)"/>
     <use xlink:href="#DejaVuSans-Oblique-6e" transform="translate(215.330078 -84.809375) scale(0.7)"/>
     <use xlink:href="#DejaVuSans-Oblique-3c8" transform="translate(279.095703 0.296875)"/>
     <use xlink:href="#DejaVuSans-Oblique-6e" transform="translate(345.0625 -16.109375) scale(0.7)"/>
     <use xlink:href="#DejaVuSans-Oblique-65" transform="translate(408.397786 0.296875)"/>
     <use xlink:href="#DejaVuSans-2212" transform="translate(474.571119 38.578125) scale(0.7)"/>
     <use xlink:href="#DejaVuSans-Oblique-69" transform="translate(533.223463 38.578125) scale(0.7)"/>
     <use xlink:href="#DejaVuSans-Oblique-45" transform="translate(552.671705 38.578125) scale(0.7)"/>
     <use xlink:href="#DejaVuSans-Oblique-6e" transform="translate(596.900221 27.09375) scale(0.49)"/>
     <use xlink:href="#DejaVuSans-Oblique-74" transform="translate(629.869947 38.578125) scale(0.7)"/>
     <use xlink:href="#DejaVuSans-2f" transform="translate(657.316236 38.578125) scale(0.7)"/>
     <use xlink:href="#DejaVuSans-Oblique-127" transform="translate(680.900221 38.578125) scale(0.7)"/>
    </g>
   </g>
   <g id="text_13">
    <!-- $K = \int \tilde{K}(\omega)\, e^{-i\omega t}\, d\omega$ -->
    <g style="fill: #f1f5f9" transform="translate(466.360666 416.310947) scale(0.08 -0.08)">
     <defs>
      <path id="DejaVuSans-303" d="M -1621 4281 
L -1799 4453 
Q -1867 4516 -1919 4545 
Q -1971 4575 -2011 4575 
Q -2130 4575 -2186 4461 
Q -2242 4347 -2249 4091 
L -2639 4091 
Q -2633 4513 -2473 4742 
Q -2314 4972 -2030 4972 
Q -1911 4972 -1811 4928 
Q -1711 4884 -1596 4781 
L -1417 4609 
Q -1349 4547 -1297 4517 
Q -1246 4488 -1205 4488 
Q -1086 4488 -1030 4602 
Q -974 4716 -967 4972 
L -577 4972 
Q -583 4550 -742 4320 
Q -902 4091 -1186 4091 
Q -1305 4091 -1405 4134 
Q -1505 4178 -1621 4281 
z
" transform="scale(0.015625)"/>
      <path id="DejaVuSans-28" d="M 1984 4856 
Q 1566 4138 1362 3434 
Q 1159 2731 1159 2009 
Q 1159 1288 1364 580 
Q 1569 -128 1984 -844 
L 1484 -844 
Q 1016 -109 783 600 
Q 550 1309 550 2009 
Q 550 2706 781 3412 
Q 1013 4119 1484 4856 
L 1984 4856 
z
" transform="scale(0.015625)"/>
      <path id="DejaVuSans-Oblique-3c9" d="M 1369 -91 
Q 72 -91 434 1766 
Q 575 2500 1256 3500 
L 1875 3500 
Q 1231 2500 1088 1750 
Q 819 397 1519 397 
Q 2166 397 2478 2078 
L 3009 2078 
Q 2669 388 3316 397 
Q 4013 403 4275 1750 
Q 4419 2500 4169 3500 
L 4788 3500 
Q 5075 2500 4934 1766 
Q 4578 -94 3278 -91 
Q 2428 -88 2503 844 
Q 2194 -91 1369 -91 
z
" transform="scale(0.015625)"/>
      <path id="DejaVuSans-29" d="M 513 4856 
L 1013 4856 
Q 1481 4119 1714 3412 
Q 1947 2706 1947 2009 
Q 1947 1309 1714 600 
Q 1481 -109 1013 -844 
L 513 -844 
Q 928 -128 1133 580 
Q 1338 1288 1338 2009 
Q 1338 2731 1133 3434 
Q 928 4138 513 4856 
z
" transform="scale(0.015625)"/>
     </defs>
     <use xlink:href="#DejaVuSans-Oblique-4b" transform="translate(0 0.96875)"/>
     <use xlink:href="#DejaVuSans-3d" transform="translate(85.058594 0.96875)"/>
     <use xlink:href="#DejaVuSansDisplay-222b" transform="translate(188.330078 0.96875)"/>
     <use xlink:href="#DejaVuSans-303" transform="translate(327.591309 22.453125)"/>
     <use xlink:href="#DejaVuSans-Oblique-4b" transform="translate(261.962891 0.96875)"/>
     <use xlink:href="#DejaVuSans-28" transform="translate(327.539062 0.96875)"/>
     <use xlink:href="#DejaVuSans-Oblique-3c9" transform="translate(366.552734 0.96875)"/>
     <use xlink:href="#DejaVuSans-29" transform="translate(450.292969 0.96875)"/>
     <use xlink:href="#DejaVuSans-Oblique-65" transform="translate(505.542317 0.96875)"/>
     <use xlink:href="#DejaVuSans-2212" transform="translate(571.71565 39.25) scale(0.7)"/>
     <use xlink:href="#DejaVuSans-Oblique-69" transform="translate(630.367994 39.25) scale(0.7)"/>
     <use xlink:href="#DejaVuSans-Oblique-3c9" transform="translate(649.816236 39.25) scale(0.7)"/>
     <use xlink:href="#DejaVuSans-Oblique-74" transform="translate(708.4344 39.25) scale(0.7)"/>
     <use xlink:href="#DejaVuSans-Oblique-64" transform="translate(754.850741 0.96875)"/>
     <use xlink:href="#DejaVuSans-Oblique-3c9" transform="translate(818.327303 0.96875)"/>
    </g>
   </g>
   <g id="text_14">
    <!-- $K(B,A)$ -->
    <g style="fill: #f59e0b" transform="translate(261.317173 312.094571) scale(0.14 -0.14)">
     <defs>
      <path id="DejaVuSans-Oblique-42" d="M 1081 4666 
L 2694 4666 
Q 3350 4666 3675 4422 
Q 4000 4178 4000 3688 
Q 4000 3238 3720 2911 
Q 3441 2584 2988 2516 
Q 3375 2428 3569 2181 
Q 3763 1934 3763 1522 
Q 3763 819 3242 409 
Q 2722 0 1819 0 
L 172 0 
L 1081 4666 
z
M 1234 2228 
L 903 519 
L 1919 519 
Q 2491 519 2800 781 
Q 3109 1044 3109 1522 
Q 3109 1891 2904 2059 
Q 2700 2228 2247 2228 
L 1234 2228 
z
M 1606 4147 
L 1331 2741 
L 2272 2741 
Q 2775 2741 3058 2959 
Q 3341 3178 3341 3566 
Q 3341 3869 3150 4008 
Q 2959 4147 2541 4147 
L 1606 4147 
z
" transform="scale(0.015625)"/>
      <path id="DejaVuSans-2c" d="M 750 794 
L 1409 794 
L 1409 256 
L 897 -744 
L 494 -744 
L 750 256 
L 750 794 
z
" transform="scale(0.015625)"/>
      <path id="DejaVuSans-Oblique-41" d="M 2356 4666 
L 3072 4666 
L 3938 0 
L 3278 0 
L 3084 1197 
L 984 1197 
L 325 0 
L -341 0 
L 2356 4666 
z
M 2584 4044 
L 1275 1722 
L 2988 1722 
L 2584 4044 
z
" transform="scale(0.015625)"/>
     </defs>
     <use xlink:href="#DejaVuSans-Oblique-4b" transform="translate(0 0.125)"/>
     <use xlink:href="#DejaVuSans-28" transform="translate(65.576172 0.125)"/>
     <use xlink:href="#DejaVuSans-Oblique-42" transform="translate(104.589844 0.125)"/>
     <use xlink:href="#DejaVuSans-2c" transform="translate(173.193359 0.125)"/>
     <use xlink:href="#DejaVuSans-Oblique-41" transform="translate(224.462891 0.125)"/>
     <use xlink:href="#DejaVuSans-29" transform="translate(292.871094 0.125)"/>
    </g>
   </g>
  </g>
 </g>
 <defs>
  <clipPath id="p7b8c2f280c">
   <rect x="7.2" y="70.496726" width="554.714346" height="406.130146"/>
  </clipPath>
 </defs>
</svg>
