<?xml version="1.0" encoding="UTF-8" standalone="no"?>
<svg
   xmlns:dc="http://purl.org/dc/elements/1.1/"
   xmlns:cc="http://creativecommons.org/ns#"
   xmlns:rdf="http://www.w3.org/1999/02/22-rdf-syntax-ns#"
   xmlns:svg="http://www.w3.org/2000/svg"
   xmlns="http://www.w3.org/2000/svg"
   xmlns:sodipodi="http://sodipodi.sourceforge.net/DTD/sodipodi-0.dtd"
   xmlns:inkscape="http://www.inkscape.org/namespaces/inkscape"
   sodipodi:docname="ViewFrustum.svg"
   height="430.86713"
   width="525.21039"
   inkscape:version="1.0 (4035a4fb49, 2020-05-01)"
   version="1.1"
   id="svg3873">
  <metadata
     id="metadata3879">
    <rdf:RDF>
      <cc:Work
         rdf:about="">
        <dc:format>image/svg+xml</dc:format>
        <dc:type
           rdf:resource="http://purl.org/dc/dcmitype/StillImage" />
        <dc:title />
      </cc:Work>
    </rdf:RDF>
  </metadata>
  <defs
     id="defs3877" />
  <sodipodi:namedview
     inkscape:document-rotation="0"
     fit-margin-bottom="0"
     fit-margin-right="0"
     fit-margin-left="0"
     fit-margin-top="0"
     inkscape:current-layer="layer4"
     inkscape:window-maximized="1"
     inkscape:window-y="-9"
     inkscape:window-x="-9"
     inkscape:cy="214.41384"
     inkscape:cx="421.7303"
     inkscape:zoom="1.2509657"
     showgrid="false"
     id="namedview3875"
     inkscape:window-height="1001"
     inkscape:window-width="1920"
     inkscape:pageshadow="2"
     inkscape:pageopacity="0"
     guidetolerance="10"
     gridtolerance="10"
     objecttolerance="10"
     borderopacity="1"
     bordercolor="#666666"
     pagecolor="#ffffff">
    <inkscape:grid
       snapvisiblegridlinesonly="true"
       enabled="true"
       visible="true"
       empspacing="5"
       id="grid2994"
       type="xygrid" />
  </sodipodi:namedview>
  <g
     transform="translate(4.1092643,-79.5)"
     style="display:inline"
     inkscape:label="Back"
     id="layer2"
     inkscape:groupmode="layer">
    <path
       sodipodi:nodetypes="ccccc"
       inkscape:connector-curvature="0"
       id="path3912"
       d="M 192,125 258.53244,326.77812 451,379 403,162 z"
       style="fill:#cccccc;fill-opacity:0.55947133999999998;stroke:#000000;stroke-width:3;stroke-linecap:round;stroke-linejoin:round;stroke-opacity:1;stroke-miterlimit:4;stroke-dasharray:none" />
    <g
       transform="matrix(0.79025404,-0.61277936,0.61277936,0.79025404,-179.72548,96.733023)"
       id="g3804">
      <rect
         style="fill:#000000;stroke-width:1;stroke-linecap:round;stroke-linejoin:round;stroke-miterlimit:4;stroke-dasharray:none"
         id="rect3784"
         width="25"
         height="20"
         x="-105"
         y="422" />
      <path
         sodipodi:type="star"
         style="fill:#000000;stroke-width:1;stroke-linecap:round;stroke-linejoin:round;stroke-miterlimit:4;stroke-dasharray:none"
         id="path3802"
         sodipodi:sides="3"
         sodipodi:cx="-65"
         sodipodi:cy="432"
         sodipodi:r1="10"
         sodipodi:r2="5"
         sodipodi:arg1="3.1415927"
         sodipodi:arg2="4.1887902"
         inkscape:flatsided="true"
         inkscape:rounded="0"
         inkscape:randomized="0"
         d="m -75,432 15,-8.66025 0,17.3205 z"
         inkscape:transform-center-x="1.5270207"
         transform="translate(-8,0)" />
    </g>
  </g>
  <g
     transform="translate(4.1092643,-79.5)"
     style="display:inline"
     inkscape:label="Lines"
     id="layer3"
     inkscape:groupmode="layer">
    <path
       sodipodi:nodetypes="cc"
       inkscape:connector-curvature="0"
       id="path3915"
       d="M 32,480 212,80"
       style="fill:none;stroke:#000000;stroke-width:1px;stroke-linecap:round;stroke-linejoin:round;stroke-opacity:1" />
    <path
       sodipodi:nodetypes="cc"
       inkscape:connector-curvature="0"
       id="path3919"
       d="M 32,480 318.06148,285.92486"
       style="fill:none;stroke:#000000;stroke-width:1px;stroke-linecap:round;stroke-linejoin:round;stroke-opacity:1" />
    <path
       sodipodi:nodetypes="cc"
       inkscape:connector-curvature="0"
       id="path3921"
       d="M 32,480 520.60111,361.89981"
       style="fill:none;stroke:#000000;stroke-width:1px;stroke-linecap:round;stroke-linejoin:round;stroke-opacity:1" />
  </g>
  <g
     transform="translate(4.1092643,-79.5)"
     style="display:inline"
     inkscape:label="Layer"
     id="layer1"
     inkscape:groupmode="layer">
    <path
       sodipodi:nodetypes="ccccc"
       inkscape:connector-curvature="0"
       id="path3886"
       d="M 97,336 192,125 403,162 166,365 Z"
       style="fill:#ff0000;fill-opacity:0.559471;stroke:#000000;stroke-width:3;stroke-linecap:round;stroke-linejoin:round;stroke-miterlimit:4;stroke-dasharray:none;stroke-opacity:1" />
    <path
       sodipodi:nodetypes="ccccc"
       inkscape:connector-curvature="0"
       id="path3907"
       d="M 451,379 403,162 166,365 193,442 Z"
       style="fill:#00ff00;fill-opacity:0.559471;stroke:#000000;stroke-width:3;stroke-linecap:round;stroke-linejoin:round;stroke-miterlimit:4;stroke-dasharray:none;stroke-opacity:1" />
    <path
       sodipodi:nodetypes="ccccc"
       inkscape:connector-curvature="0"
       id="path3909"
       d="m 97,336 69,29 27,77 -68.69969,-24.61102 z"
       style="fill:#ffff00;fill-opacity:0.559471;stroke:#000000;stroke-width:3;stroke-linecap:round;stroke-linejoin:round;stroke-miterlimit:4;stroke-dasharray:none;stroke-opacity:1" />
    <g
       style="font-style:normal;font-variant:normal;font-weight:normal;font-stretch:normal;line-height:0%;font-family:Arial;-inkscape-font-specification:Arial;letter-spacing:0px;word-spacing:0px;fill:#ffff00;fill-opacity:1;stroke:#000000;stroke-width:0.3;stroke-miterlimit:4;stroke-dasharray:none;stroke-opacity:1"
       id="text3835"
       aria-label="Near">
      <path
         id="path858"
         style="font-style:normal;font-variant:normal;font-weight:normal;font-stretch:normal;font-size:40px;line-height:1.25;font-family:Arial;-inkscape-font-specification:Arial"
         d="m 146.48288,487.3024 v -28.63281 h 3.88672 l 15.03906,22.48046 v -22.48046 h 3.63281 v 28.63281 h -3.88672 l -15.03906,-22.5 v 22.5 z" />
      <path
         id="path860"
         style="font-style:normal;font-variant:normal;font-weight:normal;font-stretch:normal;font-size:40px;line-height:1.25;font-family:Arial;-inkscape-font-specification:Arial"
         d="m 189.17819,480.62271 3.63281,0.44922 q -0.85937,3.18359 -3.18359,4.94141 -2.32422,1.75781 -5.9375,1.75781 -4.55078,0 -7.22656,-2.79297 -2.65625,-2.8125 -2.65625,-7.87109 0,-5.23438 2.69531,-8.125 2.69531,-2.89063 6.99219,-2.89063 4.16015,0 6.79687,2.83203 2.63672,2.83203 2.63672,7.96875 0,0.3125 -0.0195,0.9375 h -15.46875 q 0.19531,3.41797 1.93359,5.23438 1.73829,1.8164 4.33594,1.8164 1.9336,0 3.30078,-1.01562 1.36719,-1.01563 2.16797,-3.24219 z m -11.54297,-5.68359 h 11.58203 q -0.23437,-2.61719 -1.32812,-3.92578 -1.67969,-2.03125 -4.35547,-2.03125 -2.42187,0 -4.08203,1.62109 -1.64063,1.62109 -1.81641,4.33594 z" />
      <path
         id="path862"
         style="font-style:normal;font-variant:normal;font-weight:normal;font-stretch:normal;font-size:40px;line-height:1.25;font-family:Arial;-inkscape-font-specification:Arial"
         d="m 210.77975,484.7438 q -1.95312,1.66016 -3.76953,2.34375 -1.79687,0.6836 -3.86718,0.6836 -3.41797,0 -5.25391,-1.66016 -1.83594,-1.67969 -1.83594,-4.27734 0,-1.52344 0.6836,-2.77344 0.70312,-1.26953 1.8164,-2.03125 1.13281,-0.76172 2.53906,-1.15234 1.03516,-0.27344 3.125,-0.52735 4.25782,-0.50781 6.26954,-1.21093 0.0195,-0.72266 0.0195,-0.91797 0,-2.14844 -0.9961,-3.02735 -1.34765,-1.1914 -4.0039,-1.1914 -2.48047,0 -3.67188,0.8789 -1.17187,0.85938 -1.73828,3.06641 l -3.4375,-0.46875 q 0.46875,-2.20703 1.54297,-3.55469 1.07422,-1.36719 3.10547,-2.08984 2.03125,-0.74219 4.70703,-0.74219 2.65625,0 4.31641,0.625 1.66015,0.625 2.4414,1.58203 0.78125,0.9375 1.09375,2.38281 0.17578,0.89844 0.17578,3.24219 v 4.6875 q 0,4.90235 0.21485,6.21094 0.23437,1.28906 0.89843,2.48047 h -3.67187 q -0.54688,-1.09375 -0.70313,-2.5586 z m -0.29296,-7.85156 q -1.91407,0.78125 -5.74219,1.32813 -2.16797,0.3125 -3.06641,0.70312 -0.89844,0.39063 -1.38672,1.15235 -0.48828,0.74218 -0.48828,1.66015 0,1.40625 1.05469,2.34375 1.07422,0.9375 3.125,0.9375 2.03125,0 3.61328,-0.8789 1.58203,-0.89844 2.32422,-2.44141 0.56641,-1.19141 0.56641,-3.51563 z" />
      <path
         id="path864"
         style="font-style:normal;font-variant:normal;font-weight:normal;font-stretch:normal;font-size:40px;line-height:1.25;font-family:Arial;-inkscape-font-specification:Arial"
         d="m 219.47116,487.3024 v -20.74219 h 3.16406 v 3.14453 q 1.21094,-2.20703 2.22657,-2.91015 1.03515,-0.70313 2.26562,-0.70313 1.77734,0 3.61328,1.13281 l -1.21094,3.26172 q -1.28906,-0.76172 -2.57812,-0.76172 -1.15234,0 -2.07031,0.70313 -0.91797,0.68359 -1.3086,1.91406 -0.58593,1.875 -0.58593,4.10156 v 10.85938 z" />
    </g>
    <path
       sodipodi:nodetypes="cc"
       inkscape:connector-curvature="0"
       id="path3917"
       d="M 32,480 470.96938,103.83605"
       style="display:inline;fill:none;stroke:#000000;stroke-width:1px;stroke-linecap:round;stroke-linejoin:round;stroke-opacity:1" />
  </g>
  <g
     transform="translate(4.1092643,-79.5)"
     inkscape:label="Text"
     id="layer4"
     inkscape:groupmode="layer">
    <g
       style="font-style:normal;font-variant:normal;font-weight:normal;font-stretch:normal;line-height:0%;font-family:Arial;-inkscape-font-specification:Arial;letter-spacing:0px;word-spacing:0px;fill:#ff0000;fill-opacity:1;stroke:#000000;stroke-width:0.3;stroke-miterlimit:4;stroke-dasharray:none;stroke-opacity:1"
       id="text3819"
       aria-label="Top">
      <path
         id="path851"
         style="font-style:normal;font-variant:normal;font-weight:normal;font-stretch:normal;font-size:40px;line-height:1.25;font-family:Arial;-inkscape-font-specification:Arial"
         d="m 87.313576,206.12987 v -25.25391 h -9.433594 v -3.3789 h 22.695308 v 3.3789 h -9.472652 v 25.25391 z" />
      <path
         id="path853"
         style="font-style:normal;font-variant:normal;font-weight:normal;font-stretch:normal;font-size:40px;line-height:1.25;font-family:Arial;-inkscape-font-specification:Arial"
         d="m 98.270607,195.75877 q 0,-5.76171 3.203123,-8.53515 2.67578,-2.30469 6.52344,-2.30469 4.27734,0 6.99219,2.8125 2.71484,2.79297 2.71484,7.73438 0,4.0039 -1.21094,6.30859 -1.1914,2.28516 -3.49609,3.55469 -2.28516,1.26953 -5,1.26953 -4.35547,0 -7.05078,-2.79297 -2.675783,-2.79297 -2.675783,-8.04688 z m 3.613283,0 q 0,3.98438 1.73828,5.97657 1.73828,1.97265 4.375,1.97265 2.61719,0 4.35547,-1.99218 1.73828,-1.99219 1.73828,-6.07422 0,-3.84766 -1.75781,-5.82032 -1.73828,-1.99218 -4.33594,-1.99218 -2.63672,0 -4.375,1.97265 -1.73828,1.97266 -1.73828,5.95703 z" />
      <path
         id="path855"
         style="font-style:normal;font-variant:normal;font-weight:normal;font-stretch:normal;font-size:40px;line-height:1.25;font-family:Arial;-inkscape-font-specification:Arial"
         d="m 121.84483,214.07909 v -28.69141 h 3.20312 v 2.69531 q 1.13281,-1.58203 2.55859,-2.36328 1.42579,-0.80078 3.45704,-0.80078 2.65625,0 4.6875,1.36719 2.03125,1.36719 3.0664,3.86719 1.03516,2.48046 1.03516,5.44921 0,3.1836 -1.15235,5.74219 -1.13281,2.53906 -3.32031,3.90625 -2.16797,1.34766 -4.57031,1.34766 -1.75781,0 -3.16406,-0.74219 -1.38672,-0.74219 -2.28516,-1.875 v 10.09766 z m 3.18359,-18.20313 q 0,4.00391 1.62109,5.91797 1.6211,1.91406 3.92578,1.91406 2.34375,0 4.00391,-1.97265 1.67969,-1.99219 1.67969,-6.15235 0,-3.96484 -1.64063,-5.9375 -1.62109,-1.97265 -3.88672,-1.97265 -2.24609,0 -3.98437,2.10937 -1.71875,2.08985 -1.71875,6.09375 z" />
    </g>
    <g
       style="font-style:normal;font-variant:normal;font-weight:normal;font-stretch:normal;line-height:0%;font-family:Arial;-inkscape-font-specification:Arial;letter-spacing:0px;word-spacing:0px;fill:#00ff00;fill-opacity:1;stroke:#000000;stroke-width:0.3;stroke-miterlimit:4;stroke-dasharray:none;stroke-opacity:1"
       id="text3827"
       aria-label="Right">
      <path
         id="path867"
         style="font-style:normal;font-variant:normal;font-weight:normal;font-stretch:normal;font-size:40px;line-height:1.25;font-family:Arial;-inkscape-font-specification:Arial"
         d="M 314.71411,447.40631 V 418.7735 h 12.69531 q 3.82813,0 5.82032,0.78125 1.99218,0.76172 3.18359,2.71484 1.19141,1.95313 1.19141,4.31641 0,3.04687 -1.97266,5.13672 -1.97266,2.08984 -6.09375,2.65625 1.50391,0.72265 2.28516,1.42578 1.66015,1.52344 3.14453,3.80859 l 4.98047,7.79297 h -4.76563 l -3.78906,-5.95703 q -1.66016,-2.57813 -2.73438,-3.94531 -1.07421,-1.36719 -1.93359,-1.91407 -0.83984,-0.54687 -1.71875,-0.76171 -0.64453,-0.13672 -2.10937,-0.13672 h -4.39454 v 12.71484 z m 3.78906,-15.99609 h 8.14454 q 2.59765,0 4.0625,-0.52735 1.46484,-0.54687 2.22656,-1.71875 0.76172,-1.1914 0.76172,-2.57812 0,-2.03125 -1.48438,-3.33985 -1.46484,-1.30859 -4.64844,-1.30859 h -9.0625 z" />
      <path
         id="path869"
         style="font-style:normal;font-variant:normal;font-weight:normal;font-stretch:normal;font-size:40px;line-height:1.25;font-family:Arial;-inkscape-font-specification:Arial"
         d="m 343.13208,422.81647 v -4.04297 h 3.51563 v 4.04297 z m 0,24.58984 v -20.74219 h 3.51563 v 20.74219 z" />
      <path
         id="path871"
         style="font-style:normal;font-variant:normal;font-weight:normal;font-stretch:normal;font-size:40px;line-height:1.25;font-family:Arial;-inkscape-font-specification:Arial"
         d="m 351.37427,449.12506 3.41797,0.50781 q 0.21484,1.58203 1.1914,2.30469 1.3086,0.97656 3.57422,0.97656 2.44141,0 3.76953,-0.97656 1.32813,-0.97656 1.79688,-2.73437 0.27344,-1.07422 0.2539,-4.51172 -2.30468,2.71484 -5.74218,2.71484 -4.27735,0 -6.6211,-3.08594 -2.34375,-3.08593 -2.34375,-7.40234 0,-2.96875 1.07422,-5.46875 1.07422,-2.51953 3.10547,-3.88672 2.05078,-1.36719 4.80469,-1.36719 3.67187,0 6.05469,2.96875 v -2.5 h 3.24218 v 17.92969 q 0,4.84375 -0.99609,6.85547 -0.97656,2.03125 -3.125,3.20312 -2.12891,1.17188 -5.25391,1.17188 -3.71093,0 -5.99609,-1.67969 -2.28516,-1.66015 -2.20703,-5.01953 z m 2.91015,-12.46094 q 0,4.08203 1.6211,5.95703 1.62109,1.875 4.0625,1.875 2.42187,0 4.0625,-1.85546 1.64062,-1.875 1.64062,-5.85938 0,-3.80859 -1.69922,-5.74219 -1.67968,-1.93359 -4.0625,-1.93359 -2.34375,0 -3.98437,1.91406 -1.64063,1.89453 -1.64063,5.64453 z" />
      <path
         id="path873"
         style="font-style:normal;font-variant:normal;font-weight:normal;font-stretch:normal;font-size:40px;line-height:1.25;font-family:Arial;-inkscape-font-specification:Arial"
         d="M 374.28442,447.40631 V 418.7735 h 3.51563 v 10.27344 q 2.46094,-2.85157 6.21094,-2.85157 2.30468,0 4.0039,0.91797 1.69922,0.89844 2.42188,2.5 0.74219,1.60156 0.74219,4.64844 v 13.14453 h -3.51563 v -13.14453 q 0,-2.63672 -1.15234,-3.82813 -1.13282,-1.21093 -3.22266,-1.21093 -1.5625,0 -2.94922,0.82031 -1.36719,0.80078 -1.95312,2.1875 -0.58594,1.38672 -0.58594,3.82812 v 11.34766 z" />
      <path
         id="path875"
         style="font-style:normal;font-variant:normal;font-weight:normal;font-stretch:normal;font-size:40px;line-height:1.25;font-family:Arial;-inkscape-font-specification:Arial"
         d="m 404.22583,444.26178 0.50781,3.10547 q -1.48437,0.3125 -2.65625,0.3125 -1.91406,0 -2.96875,-0.60547 -1.05468,-0.60547 -1.48437,-1.58203 -0.42969,-0.9961 -0.42969,-4.16016 V 429.3985 h -2.57812 v -2.73438 h 2.57812 v -5.13672 l 3.49609,-2.10937 v 7.24609 h 3.53516 v 2.73438 h -3.53516 v 12.1289 q 0,1.50391 0.17579,1.9336 0.19531,0.42969 0.60546,0.68359 0.42969,0.25391 1.21094,0.25391 0.58594,0 1.54297,-0.13672 z" />
    </g>
  </g>
</svg>
